<svg width="982" height="1081" viewBox="0 0 982 1081" fill="none" xmlns="http://www.w3.org/2000/svg">
<g clip-path="url(#clip0_264_266)">
<g filter="url(#filter0_dd_264_266)">
<rect width="56" height="56" rx="28" fill="#0A0A0A"/>
<g clip-path="url(#clip1_264_266)">
<mask id="mask0_264_266" style="mask-type:luminance" maskUnits="userSpaceOnUse" x="12" y="12" width="32" height="32">
<path d="M44 12H12V44H44V12Z" fill="white"/>
</mask>
<g mask="url(#mask0_264_266)">
<path d="M28 42.75C36.1462 42.75 42.75 36.1462 42.75 28C42.75 19.8538 36.1462 13.25 28 13.25C19.8538 13.25 13.25 19.8538 13.25 28C13.25 36.1462 19.8538 42.75 28 42.75Z" fill="black" stroke="#EDEDED" stroke-width="2" stroke-linecap="round" stroke-linejoin="round"/>
<path d="M33.2598 34V22Z" fill="black"/>
<path d="M33.2598 34V22" stroke="url(#paint0_linear_264_266)" stroke-width="2" stroke-miterlimit="1.41421" stroke-linejoin="round"/>
<path fill-rule="evenodd" clip-rule="evenodd" d="M23.9902 22.0017L21.4902 22V34H23.9902V25.936L36.7232 41.4152C37.4242 40.9586 38.087 40.4484 38.7062 39.8906L23.9902 22.0017Z" fill="url(#paint1_linear_264_266)"/>
</g>
</g>
</g>
<g filter="url(#filter1_dd_264_266)">
<rect x="185.188" width="56" height="56" rx="28" fill="#0A0A0A"/>
<g clip-path="url(#clip2_264_266)">
<mask id="mask1_264_266" style="mask-type:luminance" maskUnits="userSpaceOnUse" x="197" y="12" width="33" height="32">
<path d="M229.188 12H197.188V44H229.188V12Z" fill="white"/>
</mask>
<g mask="url(#mask1_264_266)">
<path fill-rule="evenodd" clip-rule="evenodd" d="M206.188 15.8756C206.59 15.6432 207.177 15.5716 208.014 15.8211C208.853 16.0713 209.85 16.6215 210.94 17.479C211.21 17.6916 211.484 17.921 211.759 18.1666C210.912 19.0689 210.072 20.0872 209.263 21.2018C207.892 21.3458 206.591 21.5637 205.386 21.8462C205.311 21.4849 205.249 21.1334 205.2 20.7931C205.002 19.4206 205.024 18.2823 205.227 17.43C205.429 16.5805 205.785 16.1081 206.188 15.8756ZM212.177 15.9072C212.512 16.171 212.849 16.4561 213.187 16.7613C213.526 16.4561 213.863 16.171 214.198 15.9072C215.406 14.9568 216.627 14.251 217.79 13.9044C218.955 13.557 220.155 13.5476 221.188 14.1436C222.22 14.7396 222.812 15.7834 223.094 16.9664C223.375 18.1467 223.374 19.5572 223.155 21.0783C223.094 21.5005 223.016 21.9352 222.92 22.3807C223.354 22.5209 223.77 22.6705 224.166 22.8289C225.593 23.3997 226.814 24.1043 227.696 24.938C228.579 25.7736 229.188 26.808 229.188 28C229.188 29.192 228.579 30.2264 227.696 31.062C226.814 31.8957 225.593 32.6004 224.166 33.1712C223.77 33.3296 223.354 33.4792 222.92 33.6194C223.016 34.0648 223.094 34.4996 223.155 34.9216C223.374 36.4428 223.375 37.8534 223.094 39.0336C222.812 40.2166 222.22 41.2604 221.188 41.8564C220.155 42.4524 218.955 42.443 217.79 42.0956C216.627 41.749 215.406 41.0432 214.198 40.0928C213.863 39.829 213.526 39.5438 213.187 39.2386C212.849 39.5438 212.512 39.829 212.177 40.0928C210.969 41.0432 209.748 41.749 208.585 42.0956C207.42 42.443 206.22 42.4524 205.187 41.8564C204.155 41.2604 203.563 40.2166 203.281 39.0336C203 37.8534 203.001 36.4428 203.22 34.9216C203.281 34.4996 203.359 34.0648 203.455 33.6194C203.021 33.479 202.605 33.3296 202.209 33.1712C200.783 32.6004 199.561 31.8957 198.679 31.062C197.796 30.2264 197.188 29.192 197.188 28C197.188 26.808 197.796 25.7736 198.679 24.938C199.561 24.1043 200.783 23.3997 202.209 22.8289C202.605 22.6705 203.021 22.5209 203.455 22.3807C203.359 21.9352 203.281 21.5005 203.22 21.0783C203.001 19.5572 203 18.1466 203.282 16.9664C203.563 15.7834 204.155 14.7396 205.188 14.1436C206.22 13.5476 207.42 13.557 208.585 13.9044C209.748 14.251 210.969 14.9568 212.177 15.9072ZM211.922 21.0205C212.342 20.5039 212.765 20.0185 213.187 19.5671C213.61 20.0185 214.033 20.5039 214.453 21.0205C214.035 21.0069 213.613 21 213.188 21C212.762 21 212.34 21.0069 211.922 21.0205ZM214.616 18.1666C215.463 19.0689 216.303 20.0872 217.112 21.2018C218.482 21.3458 219.784 21.5637 220.989 21.8462C221.064 21.4849 221.126 21.1334 221.175 20.7931C221.373 19.4206 221.351 18.2823 221.148 17.43C220.945 16.5805 220.59 16.1081 220.188 15.8756C219.785 15.6432 219.198 15.5716 218.361 15.8211C217.521 16.0714 216.525 16.6215 215.435 17.479C215.165 17.6916 214.891 17.921 214.616 18.1666ZM213.188 23C214.156 23 215.1 23.0377 216.011 23.1091C216.529 23.8624 217.033 24.6611 217.518 25.5C218.002 26.3389 218.441 27.1753 218.835 28C218.441 28.8246 218.002 29.6611 217.517 30.5C217.033 31.3389 216.529 32.1376 216.011 32.8908C215.1 32.9624 214.156 33 213.188 33C212.219 33 211.275 32.9624 210.364 32.8908C209.846 32.1376 209.342 31.3389 208.857 30.5C208.373 29.6611 207.934 28.8246 207.54 28C207.934 27.1753 208.373 26.3389 208.857 25.5C209.342 24.6611 209.846 23.8624 210.364 23.1091C211.275 23.0377 212.219 23 213.188 23ZM219.25 24.5C219.463 24.8685 219.667 25.2373 219.865 25.6057C220.102 24.9839 220.311 24.375 220.49 23.7836C219.888 23.6435 219.257 23.5199 218.6 23.4147C218.82 23.7696 219.037 24.1315 219.25 24.5ZM219.25 31.5C219.462 31.1315 219.667 30.7627 219.865 30.3942C220.102 31.016 220.311 31.6249 220.49 32.2164C219.888 32.3564 219.257 32.48 218.599 32.5852C218.82 32.2304 219.037 31.8685 219.25 31.5ZM221.037 28C221.598 29.2585 222.06 30.4948 222.418 31.6795C222.768 31.5638 223.104 31.4418 223.423 31.3142C224.71 30.7992 225.685 30.2109 226.322 29.6089C226.956 29.0089 227.188 28.4649 227.188 28C227.188 27.5351 226.956 26.9911 226.322 26.3911C225.685 25.7891 224.71 25.2008 223.423 24.6858C223.104 24.5581 222.768 24.4362 222.418 24.3204C222.06 25.5052 221.598 26.7414 221.037 28ZM217.112 34.7982C218.482 34.6542 219.784 34.4362 220.989 34.1538C221.064 34.5152 221.126 34.8666 221.175 35.2068C221.373 36.5794 221.351 37.7178 221.148 38.57C220.945 39.4196 220.59 39.892 220.188 40.1244C219.785 40.3568 219.198 40.4284 218.361 40.179C217.521 39.9286 216.525 39.3786 215.435 38.521C215.165 38.3084 214.891 38.079 214.616 37.8334C215.463 36.931 216.303 35.9128 217.112 34.7982ZM214.452 34.9796C214.033 35.4962 213.61 35.9814 213.187 36.4328C212.765 35.9814 212.342 35.4962 211.922 34.9794C212.34 34.993 212.762 35 213.188 35C213.613 35 214.035 34.993 214.452 34.9796ZM207.125 31.5C207.338 31.8685 207.555 32.2304 207.776 32.5852C207.118 32.48 206.487 32.3564 205.884 32.2164C206.064 31.6249 206.273 31.016 206.511 30.3942C206.708 30.7627 206.913 31.1315 207.125 31.5ZM209.263 34.7982C207.892 34.6542 206.591 34.4362 205.386 34.1538C205.311 34.5152 205.249 34.8666 205.2 35.2068C205.002 36.5794 205.024 37.7178 205.227 38.57C205.429 39.4196 205.785 39.892 206.187 40.1244C206.59 40.3568 207.177 40.4284 208.014 40.179C208.853 39.9286 209.85 39.3786 210.94 38.521C211.21 38.3084 211.484 38.079 211.759 37.8334C210.912 36.931 210.072 35.9128 209.263 34.7982ZM205.338 28C204.777 29.2585 204.315 30.4947 203.957 31.6795C203.607 31.5638 203.272 31.4418 202.952 31.3142C201.665 30.7992 200.69 30.2109 200.053 29.6089C199.419 29.0089 199.188 28.4649 199.188 28C199.188 27.5351 199.419 26.9911 200.053 26.3911C200.69 25.7891 201.665 25.2008 202.952 24.6858C203.272 24.5581 203.607 24.4362 203.957 24.3204C204.315 25.5052 204.777 26.7414 205.338 28ZM206.511 25.6057C206.273 24.9839 206.064 24.375 205.884 23.7836C206.487 23.6435 207.118 23.5199 207.776 23.4147C207.555 23.7696 207.338 24.1315 207.125 24.5C206.913 24.8685 206.708 25.2373 206.511 25.6057ZM215.688 28C215.688 29.3807 214.568 30.5 213.188 30.5C211.807 30.5 210.688 29.3807 210.688 28C210.688 26.6193 211.807 25.5 213.188 25.5C214.568 25.5 215.688 26.6193 215.688 28Z" fill="#149ECA"/>
</g>
</g>
</g>
<g filter="url(#filter2_dd_264_266)">
<rect x="370.375" width="56" height="56" rx="28" fill="#0A0A0A"/>
</g>
<g filter="url(#filter3_dd_264_266)">
<rect x="555.564" width="56" height="56" rx="28" fill="#0A0A0A"/>
<path fill-rule="evenodd" clip-rule="evenodd" d="M595.468 21.2827C595.477 21.3154 595.481 21.3492 595.481 21.383V26.6496C595.481 26.7172 595.464 26.7836 595.43 26.8421C595.396 26.9006 595.347 26.9491 595.288 26.9827L590.868 29.5277V34.572C590.868 34.7093 590.795 34.836 590.676 34.9051L581.449 40.2168C581.428 40.2288 581.405 40.2365 581.382 40.2446C581.373 40.2475 581.365 40.2528 581.356 40.2552C581.291 40.2722 581.224 40.2722 581.159 40.2552C581.149 40.2523 581.139 40.2466 581.129 40.2427C581.108 40.235 581.086 40.2283 581.066 40.2168L571.84 34.9051C571.782 34.8714 571.733 34.8229 571.699 34.7644C571.665 34.706 571.648 34.6396 571.647 34.572V18.7723C571.647 18.7378 571.652 18.7042 571.661 18.6715C571.664 18.6605 571.671 18.6504 571.674 18.6394C571.682 18.6192 571.688 18.5986 571.699 18.5798C571.706 18.5674 571.717 18.5573 571.725 18.5458C571.736 18.5304 571.746 18.5146 571.759 18.5011C571.77 18.4901 571.785 18.4819 571.797 18.4723C571.811 18.4608 571.824 18.4483 571.839 18.4392L576.453 15.7834C576.511 15.7497 576.577 15.7321 576.645 15.7321C576.712 15.7321 576.778 15.7497 576.837 15.7834L581.45 18.4392H581.451C581.466 18.4488 581.479 18.4608 581.493 18.4718C581.505 18.4814 581.519 18.4901 581.53 18.5006C581.544 18.5146 581.553 18.5304 581.565 18.5458C581.573 18.5573 581.584 18.5674 581.591 18.5798C581.602 18.599 581.608 18.6192 581.616 18.6394C581.619 18.6504 581.626 18.6605 581.629 18.672C581.638 18.7047 581.642 18.7384 581.643 18.7723V28.6406L585.486 26.4274V21.3826C585.486 21.349 585.491 21.3149 585.5 21.2827C585.503 21.2712 585.509 21.2611 585.513 21.2501C585.521 21.2299 585.528 21.2093 585.538 21.1906C585.545 21.1781 585.556 21.168 585.564 21.1565C585.576 21.1411 585.585 21.1253 585.599 21.1118C585.61 21.1008 585.624 21.0926 585.636 21.083C585.651 21.0715 585.663 21.059 585.678 21.0499L590.292 18.3941C590.35 18.3604 590.417 18.3427 590.484 18.3427C590.551 18.3427 590.618 18.3604 590.676 18.3941L595.289 21.0499C595.305 21.0595 595.318 21.0715 595.332 21.0826C595.344 21.0922 595.358 21.1008 595.369 21.1114C595.382 21.1253 595.392 21.1411 595.404 21.1565C595.412 21.168 595.423 21.1781 595.43 21.1906C595.441 21.2093 595.447 21.2299 595.455 21.2501C595.459 21.2611 595.465 21.2712 595.468 21.2827ZM594.712 26.4274V22.0478L593.098 22.9771L590.868 24.2611V28.6406L594.713 26.4274H594.712ZM590.1 34.3498V29.9674L587.906 31.2202L581.642 34.7952V39.2189L590.1 34.3498ZM572.416 19.4371V34.3498L580.873 39.2184V34.7957L576.455 32.2954L576.454 32.2944L576.452 32.2934C576.437 32.2848 576.424 32.2723 576.411 32.2618C576.399 32.2522 576.385 32.2445 576.374 32.2339L576.373 32.2325C576.361 32.2205 576.352 32.2056 576.341 32.1922C576.332 32.1792 576.32 32.1682 576.313 32.1547L576.312 32.1533C576.303 32.1389 576.298 32.1216 576.292 32.1053C576.286 32.0909 576.278 32.0774 576.274 32.0621C576.269 32.0438 576.268 32.0242 576.266 32.0054C576.264 31.991 576.26 31.9766 576.26 31.9622V31.9613V21.6504L574.031 20.3659L572.416 19.4371ZM576.645 16.56L572.802 18.7723L576.644 20.9846L580.487 18.7718L576.644 16.56H576.645ZM578.644 30.3667L580.874 29.0832V19.4371L579.259 20.3664L577.029 21.6504V31.2965L578.644 30.3667ZM590.484 19.1707L586.641 21.383L590.484 23.5954L594.327 21.3826L590.484 19.1707ZM590.1 24.2611L587.87 22.9771L586.255 22.0478V26.4274L588.485 27.7109L590.1 28.6406V24.2611ZM581.257 34.1304L586.894 30.9125L589.711 29.3045L585.871 27.0936L581.45 29.639L577.42 31.9589L581.257 34.1304Z" fill="#FF2D20"/>
</g>
<g filter="url(#filter4_dd_264_266)">
<rect x="740.752" width="56" height="56" rx="28" fill="#0A0A0A"/>
<rect x="753.752" y="13" width="30" height="30" rx="15" fill="#007ACC"/>
<path d="M760.752 24.1204V25.0984H763.872V33.9784H766.086V25.0984H769.206V24.1384C769.206 23.5984 769.206 23.1604 769.182 23.1484C769.182 23.1304 767.28 23.1244 764.97 23.1244L760.77 23.1424V24.1264L760.752 24.1204ZM774.774 23.1184C775.386 23.2624 775.854 23.5384 776.274 23.9764C776.496 24.2164 776.826 24.6364 776.85 24.7444C776.85 24.7804 775.812 25.4824 775.182 25.8724C775.158 25.8904 775.062 25.7884 774.966 25.6324C774.654 25.1884 774.336 24.9964 773.838 24.9604C773.118 24.9124 772.638 25.2904 772.638 25.9204C772.638 26.1124 772.674 26.2204 772.746 26.3764C772.908 26.7064 773.208 26.9044 774.138 27.3124C775.854 28.0504 776.598 28.5364 777.048 29.2324C777.558 30.0124 777.672 31.2364 777.33 32.1544C776.946 33.1564 776.01 33.8344 774.672 34.0564C774.252 34.1284 773.292 34.1164 772.842 34.0384C771.882 33.8584 770.964 33.3784 770.4 32.7604C770.178 32.5204 769.752 31.8784 769.776 31.8364L770.004 31.6924L770.904 31.1704L771.582 30.7744L771.738 30.9844C771.936 31.2964 772.38 31.7164 772.638 31.8604C773.418 32.2624 774.462 32.2084 774.978 31.7404C775.2 31.5364 775.296 31.3204 775.296 31.0204C775.296 30.7444 775.254 30.6184 775.116 30.4084C774.924 30.1444 774.54 29.9284 773.46 29.4484C772.218 28.9204 771.69 28.5844 771.198 28.0684C770.916 27.7564 770.658 27.2704 770.538 26.8684C770.448 26.5204 770.418 25.6684 770.502 25.3264C770.76 24.1264 771.666 23.2864 772.962 23.0464C773.382 22.9624 774.372 22.9984 774.786 23.1064L774.774 23.1184Z" fill="white"/>
</g>
<g filter="url(#filter5_dd_264_266)">
<rect x="925.94" width="56" height="56" rx="28" fill="#0A0A0A"/>
<g clip-path="url(#clip3_264_266)">
<path d="M939 28C939 19.7157 945.716 13 954 13V13C962.284 13 969 19.7157 969 28V28C969 36.2843 962.284 43 954 43V43C945.716 43 939 36.2843 939 28V28Z" fill="#F0DB4F"/>
<path d="M963.66 29.7356C963.44 28.3668 962.548 27.2176 959.904 26.1453C958.986 25.7233 957.962 25.421 957.657 24.7252C957.548 24.3202 957.534 24.0921 957.603 23.8469C957.799 23.0512 958.749 22.8031 959.502 23.0313C959.987 23.1938 960.446 23.5674 960.722 24.1634C962.017 23.325 962.014 23.3307 962.918 22.7547C962.587 22.2414 962.411 22.0046 962.194 21.7851C961.415 20.9153 960.355 20.4676 958.658 20.5018C958.364 20.5389 958.068 20.5788 957.774 20.6159C956.927 20.8298 956.12 21.2746 955.646 21.8706C954.226 23.4819 954.631 26.3022 956.359 27.4629C958.062 28.7404 960.563 29.0313 960.882 30.2262C961.193 31.6891 959.807 32.1624 958.43 31.9942C957.414 31.7832 956.85 31.267 956.24 30.3288C955.116 30.979 955.116 30.979 953.961 31.6435C954.235 32.2423 954.523 32.5132 954.982 33.0322C957.155 35.2366 962.593 35.1283 963.568 31.7917C963.608 31.6777 963.871 30.9134 963.66 29.7356ZM952.424 20.6786H949.618C949.618 23.1026 949.606 25.5094 949.606 27.9334C949.606 29.4761 949.686 30.8906 949.435 31.324C949.025 32.1767 947.961 32.0712 947.476 31.9058C946.983 31.6634 946.732 31.3183 946.441 30.8307C946.361 30.691 946.301 30.5826 946.281 30.574C945.52 31.0389 944.761 31.5065 944 31.9714C944.379 32.7499 944.938 33.4258 945.654 33.8649C946.723 34.5065 948.161 34.7033 949.664 34.3582C950.642 34.0731 951.486 33.4828 951.928 32.5845C952.567 31.4067 952.43 29.9809 952.424 28.4039C952.438 25.8316 952.424 23.2594 952.424 20.6786Z" fill="#323330"/>
</g>
</g>
<g clip-path="url(#clip4_264_266)">
<path d="M583.376 56V69.3512C583.376 100.418 567.624 129.479 541.287 147C514.95 164.52 499.197 193.582 499.197 224.649V236" stroke="#FF2D20" stroke-width="2.0264"/>
<path d="M398.594 56V69.3512C398.594 100.418 414.347 129.479 440.683 147C467.02 164.52 482.773 193.582 482.773 224.649V236" stroke="#00DC82" stroke-width="2.0264"/>
<path d="M768.159 56C768.159 105.706 726.794 146 675.767 146H608.014C556.987 146 515.622 186.294 515.622 236" stroke="#007ACC" stroke-width="2.0264"/>
<path d="M952.943 56C952.943 114.542 904.224 162 844.126 162H608.014C566.059 162 532.048 195.131 532.048 236" stroke="#F0DB4F" stroke-width="2.0264"/>
<path d="M213.811 56C213.811 105.706 255.175 146 306.202 146H373.956C424.983 146 466.348 186.294 466.348 236" stroke="#149ECA" stroke-width="2.0264"/>
<path d="M29.0273 56C29.0273 114.542 77.7463 162 137.844 162H373.956C415.911 162 449.922 195.131 449.922 236" stroke="#8F8F8F" stroke-width="2.0264"/>
</g>
<rect x="409.984" y="236" width="162" height="56.5" rx="28.25" fill="#EDEDED"/>
<path d="M444.096 257.672H438.912V272H435.792V257.672H430.632V254.96H444.096V257.672ZM442.993 265.64C442.993 264.312 443.257 263.144 443.785 262.136C444.313 261.128 445.049 260.352 445.993 259.808C446.937 259.264 448.041 258.992 449.305 258.992C450.425 258.992 451.433 259.248 452.329 259.76C453.225 260.272 453.937 261.032 454.465 262.04C454.993 263.048 455.265 264.28 455.281 265.736V266.48H446.233C446.297 267.536 446.593 268.368 447.121 268.976C447.665 269.568 448.393 269.864 449.305 269.864C449.881 269.864 450.409 269.704 450.889 269.384C451.369 269.064 451.729 268.632 451.969 268.088L455.113 268.328C454.729 269.528 454.009 270.488 452.953 271.208C451.897 271.928 450.681 272.288 449.305 272.288C448.041 272.288 446.937 272.016 445.993 271.472C445.049 270.928 444.313 270.152 443.785 269.144C443.257 268.136 442.993 266.968 442.993 265.64ZM452.113 264.44C452.001 263.4 451.689 262.64 451.177 262.16C450.665 261.664 450.041 261.416 449.305 261.416C448.457 261.416 447.769 261.68 447.241 262.208C446.713 262.736 446.385 263.48 446.257 264.44H452.113ZM465.354 263.96C465.226 263.192 464.906 262.592 464.394 262.16C463.898 261.712 463.306 261.488 462.618 261.488C461.626 261.488 460.858 261.848 460.314 262.568C459.77 263.288 459.498 264.312 459.498 265.64C459.498 266.968 459.77 267.992 460.314 268.712C460.858 269.432 461.626 269.792 462.618 269.792C463.338 269.792 463.954 269.568 464.466 269.12C464.978 268.656 465.29 268 465.402 267.152L468.594 267.296C468.482 268.304 468.154 269.184 467.61 269.936C467.066 270.688 466.362 271.272 465.498 271.688C464.634 272.088 463.674 272.288 462.618 272.288C461.354 272.288 460.25 272.016 459.306 271.472C458.362 270.928 457.626 270.152 457.098 269.144C456.57 268.136 456.306 266.968 456.306 265.64C456.306 264.312 456.57 263.144 457.098 262.136C457.626 261.128 458.362 260.352 459.306 259.808C460.25 259.264 461.354 258.992 462.618 258.992C463.642 258.992 464.578 259.192 465.426 259.592C466.29 259.976 466.994 260.528 467.538 261.248C468.082 261.968 468.41 262.816 468.522 263.792L465.354 263.96ZM472.778 254.96V262.184L472.346 262.28C472.554 261.144 473.026 260.312 473.762 259.784C474.514 259.256 475.418 258.992 476.474 258.992C477.786 258.992 478.826 259.432 479.594 260.312C480.378 261.192 480.77 262.36 480.77 263.816V272H477.698V264.92C477.698 263.784 477.522 262.944 477.17 262.4C476.818 261.856 476.25 261.584 475.466 261.584C474.618 261.584 473.954 261.872 473.474 262.448C473.01 263.024 472.778 263.848 472.778 264.92V272H469.706V254.96H472.778ZM490.632 266.264C490.76 266.952 491 267.544 491.352 268.04C491.704 268.52 492.16 268.896 492.72 269.168C493.296 269.44 493.968 269.576 494.736 269.576C495.344 269.576 495.872 269.496 496.32 269.336C496.784 269.176 497.136 268.944 497.376 268.64C497.632 268.32 497.76 267.928 497.76 267.464C497.744 266.76 497.416 266.184 496.776 265.736C496.136 265.272 495.088 264.864 493.632 264.512C491.792 264.064 490.36 263.44 489.336 262.64C488.328 261.84 487.824 260.792 487.824 259.496C487.824 258.504 488.08 257.64 488.592 256.904C489.104 256.152 489.824 255.576 490.752 255.176C491.68 254.776 492.752 254.576 493.968 254.576C495.2 254.576 496.296 254.816 497.256 255.296C498.232 255.776 499.008 256.44 499.584 257.288C500.16 258.136 500.512 259.12 500.64 260.24L497.496 260.384C497.432 259.76 497.24 259.216 496.92 258.752C496.6 258.272 496.184 257.904 495.672 257.648C495.16 257.392 494.576 257.264 493.92 257.264C493.04 257.264 492.328 257.472 491.784 257.888C491.256 258.304 491 258.856 491.016 259.544C491.032 260.024 491.2 260.432 491.52 260.768C491.856 261.088 492.272 261.344 492.768 261.536C493.264 261.728 493.896 261.92 494.664 262.112C494.728 262.128 494.824 262.152 494.952 262.184C496.84 262.648 498.312 263.304 499.368 264.152C500.424 264.984 500.952 266.032 500.952 267.296C500.952 268.336 500.664 269.232 500.088 269.984C499.528 270.736 498.768 271.312 497.808 271.712C496.848 272.096 495.776 272.288 494.592 272.288C493.264 272.288 492.08 272.048 491.04 271.568C490 271.088 489.168 270.408 488.544 269.528C487.92 268.648 487.56 267.624 487.464 266.456L490.632 266.264ZM506.635 256.4V268.088C506.635 268.584 506.755 268.968 506.995 269.24C507.251 269.496 507.611 269.624 508.075 269.624H509.995V272H507.571C506.259 272 505.259 271.672 504.571 271.016C503.899 270.36 503.563 269.384 503.563 268.088V256.4H506.635ZM509.995 259.28V261.656H501.547V259.28H509.995ZM511.019 263.168C511.275 261.84 511.891 260.816 512.867 260.096C513.859 259.36 515.139 258.992 516.707 258.992C518.531 258.992 519.915 259.456 520.859 260.384C521.819 261.312 522.299 262.672 522.299 264.464V268.832C522.299 269.184 522.363 269.432 522.491 269.576C522.635 269.704 522.835 269.768 523.091 269.768H523.595V272L522.875 272.024H522.611C521.875 272.056 521.219 271.944 520.643 271.688C520.067 271.416 519.731 270.872 519.635 270.056C519.315 270.728 518.787 271.272 518.051 271.688C517.331 272.088 516.443 272.288 515.387 272.288C514.075 272.288 512.979 271.96 512.099 271.304C511.235 270.648 510.803 269.768 510.803 268.664C510.803 267.864 510.987 267.216 511.355 266.72C511.739 266.224 512.275 265.84 512.963 265.568C513.651 265.28 514.547 265.024 515.651 264.8L519.203 264.104C519.203 263.112 518.995 262.384 518.579 261.92C518.163 261.44 517.539 261.2 516.707 261.2C516.019 261.2 515.459 261.384 515.027 261.752C514.595 262.104 514.307 262.632 514.163 263.336L511.019 263.168ZM513.995 268.568C513.995 269.032 514.187 269.408 514.571 269.696C514.955 269.984 515.507 270.128 516.227 270.128C516.819 270.128 517.339 269.984 517.787 269.696C518.251 269.408 518.611 268.984 518.867 268.424C519.139 267.848 519.275 267.16 519.275 266.36V266.192L516.851 266.624C516.739 266.64 516.619 266.656 516.491 266.672C515.915 266.784 515.451 266.904 515.099 267.032C514.763 267.144 514.491 267.328 514.283 267.584C514.091 267.824 513.995 268.152 513.995 268.568ZM533.211 263.96C533.083 263.192 532.763 262.592 532.251 262.16C531.755 261.712 531.163 261.488 530.475 261.488C529.483 261.488 528.715 261.848 528.171 262.568C527.627 263.288 527.355 264.312 527.355 265.64C527.355 266.968 527.627 267.992 528.171 268.712C528.715 269.432 529.483 269.792 530.475 269.792C531.195 269.792 531.811 269.568 532.323 269.12C532.835 268.656 533.147 268 533.259 267.152L536.451 267.296C536.339 268.304 536.011 269.184 535.467 269.936C534.923 270.688 534.219 271.272 533.355 271.688C532.491 272.088 531.531 272.288 530.475 272.288C529.211 272.288 528.107 272.016 527.163 271.472C526.219 270.928 525.483 270.152 524.955 269.144C524.427 268.136 524.163 266.968 524.163 265.64C524.163 264.312 524.427 263.144 524.955 262.136C525.483 261.128 526.219 260.352 527.163 259.808C528.107 259.264 529.211 258.992 530.475 258.992C531.499 258.992 532.435 259.192 533.283 259.592C534.147 259.976 534.851 260.528 535.395 261.248C535.939 261.968 536.267 262.816 536.379 263.792L533.211 263.96ZM540.823 254.96V265.016L546.031 259.28H549.799L544.831 264.536L550.039 272H546.583L542.815 266.384L540.823 268.52V272H537.751V254.96H540.823Z" fill="#0A0A0A"/>
<rect x="489.984" y="292.5" width="2" height="788" fill="url(#paint2_linear_264_266)"/>
<path d="M400.775 19.8301L398 24.5926L395.225 19.8301H386L398 40.4551L410 19.8301H400.775Z" fill="#42B883"/>
<path d="M400.776 19.8301L398.001 24.5926L395.226 19.8301H390.801L398.001 32.2051L405.201 19.8301H400.776Z" fill="#35495E"/>
</g>
<defs>
<filter id="filter0_dd_264_266" x="-2" y="-1" width="60" height="60" filterUnits="userSpaceOnUse" color-interpolation-filters="sRGB">
<feFlood flood-opacity="0" result="BackgroundImageFix"/>
<feColorMatrix in="SourceAlpha" type="matrix" values="0 0 0 0 0 0 0 0 0 0 0 0 0 0 0 0 0 0 127 0" result="hardAlpha"/>
<feOffset dy="1"/>
<feGaussianBlur stdDeviation="1"/>
<feComposite in2="hardAlpha" operator="out"/>
<feColorMatrix type="matrix" values="0 0 0 0 0 0 0 0 0 0 0 0 0 0 0 0 0 0 0.16 0"/>
<feBlend mode="normal" in2="BackgroundImageFix" result="effect1_dropShadow_264_266"/>
<feColorMatrix in="SourceAlpha" type="matrix" values="0 0 0 0 0 0 0 0 0 0 0 0 0 0 0 0 0 0 127 0" result="hardAlpha"/>
<feMorphology radius="1" operator="dilate" in="SourceAlpha" result="effect2_dropShadow_264_266"/>
<feOffset/>
<feComposite in2="hardAlpha" operator="out"/>
<feColorMatrix type="matrix" values="0 0 0 0 1 0 0 0 0 1 0 0 0 0 1 0 0 0 0.145 0"/>
<feBlend mode="normal" in2="effect1_dropShadow_264_266" result="effect2_dropShadow_264_266"/>
<feBlend mode="normal" in="SourceGraphic" in2="effect2_dropShadow_264_266" result="shape"/>
</filter>
<filter id="filter1_dd_264_266" x="183.188" y="-1" width="60" height="60" filterUnits="userSpaceOnUse" color-interpolation-filters="sRGB">
<feFlood flood-opacity="0" result="BackgroundImageFix"/>
<feColorMatrix in="SourceAlpha" type="matrix" values="0 0 0 0 0 0 0 0 0 0 0 0 0 0 0 0 0 0 127 0" result="hardAlpha"/>
<feOffset dy="1"/>
<feGaussianBlur stdDeviation="1"/>
<feComposite in2="hardAlpha" operator="out"/>
<feColorMatrix type="matrix" values="0 0 0 0 0 0 0 0 0 0 0 0 0 0 0 0 0 0 0.16 0"/>
<feBlend mode="normal" in2="BackgroundImageFix" result="effect1_dropShadow_264_266"/>
<feColorMatrix in="SourceAlpha" type="matrix" values="0 0 0 0 0 0 0 0 0 0 0 0 0 0 0 0 0 0 127 0" result="hardAlpha"/>
<feMorphology radius="1" operator="dilate" in="SourceAlpha" result="effect2_dropShadow_264_266"/>
<feOffset/>
<feComposite in2="hardAlpha" operator="out"/>
<feColorMatrix type="matrix" values="0 0 0 0 1 0 0 0 0 1 0 0 0 0 1 0 0 0 0.145 0"/>
<feBlend mode="normal" in2="effect1_dropShadow_264_266" result="effect2_dropShadow_264_266"/>
<feBlend mode="normal" in="SourceGraphic" in2="effect2_dropShadow_264_266" result="shape"/>
</filter>
<filter id="filter2_dd_264_266" x="368.375" y="-1" width="60" height="60" filterUnits="userSpaceOnUse" color-interpolation-filters="sRGB">
<feFlood flood-opacity="0" result="BackgroundImageFix"/>
<feColorMatrix in="SourceAlpha" type="matrix" values="0 0 0 0 0 0 0 0 0 0 0 0 0 0 0 0 0 0 127 0" result="hardAlpha"/>
<feOffset dy="1"/>
<feGaussianBlur stdDeviation="1"/>
<feComposite in2="hardAlpha" operator="out"/>
<feColorMatrix type="matrix" values="0 0 0 0 0 0 0 0 0 0 0 0 0 0 0 0 0 0 0.16 0"/>
<feBlend mode="normal" in2="BackgroundImageFix" result="effect1_dropShadow_264_266"/>
<feColorMatrix in="SourceAlpha" type="matrix" values="0 0 0 0 0 0 0 0 0 0 0 0 0 0 0 0 0 0 127 0" result="hardAlpha"/>
<feMorphology radius="1" operator="dilate" in="SourceAlpha" result="effect2_dropShadow_264_266"/>
<feOffset/>
<feComposite in2="hardAlpha" operator="out"/>
<feColorMatrix type="matrix" values="0 0 0 0 1 0 0 0 0 1 0 0 0 0 1 0 0 0 0.145 0"/>
<feBlend mode="normal" in2="effect1_dropShadow_264_266" result="effect2_dropShadow_264_266"/>
<feBlend mode="normal" in="SourceGraphic" in2="effect2_dropShadow_264_266" result="shape"/>
</filter>
<filter id="filter3_dd_264_266" x="553.564" y="-1" width="60" height="60" filterUnits="userSpaceOnUse" color-interpolation-filters="sRGB">
<feFlood flood-opacity="0" result="BackgroundImageFix"/>
<feColorMatrix in="SourceAlpha" type="matrix" values="0 0 0 0 0 0 0 0 0 0 0 0 0 0 0 0 0 0 127 0" result="hardAlpha"/>
<feOffset dy="1"/>
<feGaussianBlur stdDeviation="1"/>
<feComposite in2="hardAlpha" operator="out"/>
<feColorMatrix type="matrix" values="0 0 0 0 0 0 0 0 0 0 0 0 0 0 0 0 0 0 0.16 0"/>
<feBlend mode="normal" in2="BackgroundImageFix" result="effect1_dropShadow_264_266"/>
<feColorMatrix in="SourceAlpha" type="matrix" values="0 0 0 0 0 0 0 0 0 0 0 0 0 0 0 0 0 0 127 0" result="hardAlpha"/>
<feMorphology radius="1" operator="dilate" in="SourceAlpha" result="effect2_dropShadow_264_266"/>
<feOffset/>
<feComposite in2="hardAlpha" operator="out"/>
<feColorMatrix type="matrix" values="0 0 0 0 1 0 0 0 0 1 0 0 0 0 1 0 0 0 0.145 0"/>
<feBlend mode="normal" in2="effect1_dropShadow_264_266" result="effect2_dropShadow_264_266"/>
<feBlend mode="normal" in="SourceGraphic" in2="effect2_dropShadow_264_266" result="shape"/>
</filter>
<filter id="filter4_dd_264_266" x="738.752" y="-1" width="60" height="60" filterUnits="userSpaceOnUse" color-interpolation-filters="sRGB">
<feFlood flood-opacity="0" result="BackgroundImageFix"/>
<feColorMatrix in="SourceAlpha" type="matrix" values="0 0 0 0 0 0 0 0 0 0 0 0 0 0 0 0 0 0 127 0" result="hardAlpha"/>
<feOffset dy="1"/>
<feGaussianBlur stdDeviation="1"/>
<feComposite in2="hardAlpha" operator="out"/>
<feColorMatrix type="matrix" values="0 0 0 0 0 0 0 0 0 0 0 0 0 0 0 0 0 0 0.16 0"/>
<feBlend mode="normal" in2="BackgroundImageFix" result="effect1_dropShadow_264_266"/>
<feColorMatrix in="SourceAlpha" type="matrix" values="0 0 0 0 0 0 0 0 0 0 0 0 0 0 0 0 0 0 127 0" result="hardAlpha"/>
<feMorphology radius="1" operator="dilate" in="SourceAlpha" result="effect2_dropShadow_264_266"/>
<feOffset/>
<feComposite in2="hardAlpha" operator="out"/>
<feColorMatrix type="matrix" values="0 0 0 0 1 0 0 0 0 1 0 0 0 0 1 0 0 0 0.145 0"/>
<feBlend mode="normal" in2="effect1_dropShadow_264_266" result="effect2_dropShadow_264_266"/>
<feBlend mode="normal" in="SourceGraphic" in2="effect2_dropShadow_264_266" result="shape"/>
</filter>
<filter id="filter5_dd_264_266" x="923.94" y="-1" width="60" height="60" filterUnits="userSpaceOnUse" color-interpolation-filters="sRGB">
<feFlood flood-opacity="0" result="BackgroundImageFix"/>
<feColorMatrix in="SourceAlpha" type="matrix" values="0 0 0 0 0 0 0 0 0 0 0 0 0 0 0 0 0 0 127 0" result="hardAlpha"/>
<feOffset dy="1"/>
<feGaussianBlur stdDeviation="1"/>
<feComposite in2="hardAlpha" operator="out"/>
<feColorMatrix type="matrix" values="0 0 0 0 0 0 0 0 0 0 0 0 0 0 0 0 0 0 0.16 0"/>
<feBlend mode="normal" in2="BackgroundImageFix" result="effect1_dropShadow_264_266"/>
<feColorMatrix in="SourceAlpha" type="matrix" values="0 0 0 0 0 0 0 0 0 0 0 0 0 0 0 0 0 0 127 0" result="hardAlpha"/>
<feMorphology radius="1" operator="dilate" in="SourceAlpha" result="effect2_dropShadow_264_266"/>
<feOffset/>
<feComposite in2="hardAlpha" operator="out"/>
<feColorMatrix type="matrix" values="0 0 0 0 1 0 0 0 0 1 0 0 0 0 1 0 0 0 0.145 0"/>
<feBlend mode="normal" in2="effect1_dropShadow_264_266" result="effect2_dropShadow_264_266"/>
<feBlend mode="normal" in="SourceGraphic" in2="effect2_dropShadow_264_266" result="shape"/>
</filter>
<linearGradient id="paint0_linear_264_266" x1="-nan" y1="-nan" x2="-nan" y2="-nan" gradientUnits="userSpaceOnUse">
<stop stop-color="white"/>
<stop offset="0.609375" stop-color="white" stop-opacity="0.57"/>
<stop offset="0.796875" stop-color="white" stop-opacity="0"/>
<stop offset="1" stop-color="white" stop-opacity="0"/>
</linearGradient>
<linearGradient id="paint1_linear_264_266" x1="31.8752" y1="30.125" x2="39.115" y2="38.7984" gradientUnits="userSpaceOnUse">
<stop stop-color="white"/>
<stop offset="1" stop-color="white" stop-opacity="0"/>
</linearGradient>
<linearGradient id="paint2_linear_264_266" x1="490.984" y1="1080.5" x2="490.984" y2="292.5" gradientUnits="userSpaceOnUse">
<stop stop-opacity="0"/>
<stop offset="1" stop-color="#EDEDED"/>
</linearGradient>
<clipPath id="clip0_264_266">
<rect width="981.97" height="1080.5" fill="white"/>
</clipPath>
<clipPath id="clip1_264_266">
<rect width="32" height="32" fill="white" transform="translate(12 12)"/>
</clipPath>
<clipPath id="clip2_264_266">
<rect width="32" height="32" fill="white" transform="translate(197.188 12)"/>
</clipPath>
<clipPath id="clip3_264_266">
<rect width="30" height="30" fill="white" transform="translate(939 13)"/>
</clipPath>
<clipPath id="clip4_264_266">
<rect width="925.969" height="180" fill="white" transform="translate(28 56)"/>
</clipPath>
</defs>
</svg>
