<svg width="982" height="1081" viewBox="0 0 982 1081" fill="none" xmlns="http://www.w3.org/2000/svg">
<g clip-path="url(#clip0_312_568)">
<g filter="url(#filter0_dd_312_568)">
<rect width="56" height="56" rx="28" fill="#0A0A0A"/>
<g clip-path="url(#clip1_312_568)">
<mask id="mask0_312_568" style="mask-type:luminance" maskUnits="userSpaceOnUse" x="12" y="12" width="32" height="32">
<path d="M44 12H12V44H44V12Z" fill="white"/>
</mask>
<g mask="url(#mask0_312_568)">
<path d="M28 42.75C36.1462 42.75 42.75 36.1462 42.75 28C42.75 19.8538 36.1462 13.25 28 13.25C19.8538 13.25 13.25 19.8538 13.25 28C13.25 36.1462 19.8538 42.75 28 42.75Z" fill="black" stroke="#EDEDED" stroke-width="2" stroke-linecap="round" stroke-linejoin="round"/>
<path d="M33.26 34V22Z" fill="black"/>
<path d="M33.26 34V22" stroke="url(#paint0_linear_312_568)" stroke-width="2" stroke-miterlimit="1.41421" stroke-linejoin="round"/>
<path fill-rule="evenodd" clip-rule="evenodd" d="M23.99 22.0017L21.49 22V34H23.99V25.936L36.723 41.4152C37.424 40.9586 38.0868 40.4484 38.706 39.8906L23.99 22.0017Z" fill="url(#paint1_linear_312_568)"/>
</g>
</g>
</g>
<g filter="url(#filter1_dd_312_568)">
<rect x="185.188" width="56" height="56" rx="28" fill="#0A0A0A"/>
<g clip-path="url(#clip2_312_568)">
<mask id="mask1_312_568" style="mask-type:luminance" maskUnits="userSpaceOnUse" x="197" y="12" width="33" height="32">
<path d="M229.188 12H197.188V44H229.188V12Z" fill="white"/>
</mask>
<g mask="url(#mask1_312_568)">
<path fill-rule="evenodd" clip-rule="evenodd" d="M206.188 15.8758C206.591 15.6433 207.177 15.5717 208.014 15.8212C208.854 16.0715 209.851 16.6216 210.941 17.4791C211.211 17.6917 211.484 17.9212 211.759 18.1667C210.912 19.069 210.073 20.0873 209.263 21.202C207.893 21.3459 206.591 21.5638 205.386 21.8463C205.311 21.485 205.249 21.1335 205.2 20.7932C205.002 19.4207 205.024 18.2824 205.228 17.4301C205.43 16.5806 205.785 16.1082 206.188 15.8758ZM212.177 15.9073C212.512 16.1711 212.85 16.4562 213.188 16.7615C213.526 16.4562 213.863 16.1711 214.199 15.9073C215.406 14.957 216.628 14.2511 217.79 13.9045C218.956 13.5571 220.156 13.5477 221.188 14.1437C222.22 14.7397 222.812 15.7835 223.094 16.9666C223.375 18.1468 223.374 19.5573 223.155 21.0785C223.094 21.5006 223.016 21.9353 222.921 22.3808C223.354 22.521 223.77 22.6706 224.166 22.829C225.593 23.3998 226.815 24.1045 227.696 24.9381C228.58 25.7737 229.188 26.8081 229.188 28.0001C229.188 29.1921 228.58 30.2265 227.696 31.0621C226.815 31.8958 225.593 32.6005 224.166 33.1713C223.77 33.3297 223.354 33.4793 222.921 33.6195C223.016 34.0649 223.094 34.4997 223.155 34.9217C223.374 36.4429 223.375 37.8535 223.094 39.0337C222.812 40.2167 222.22 41.2605 221.188 41.8565C220.156 42.4525 218.956 42.4431 217.79 42.0957C216.628 41.7491 215.406 41.0433 214.199 40.0929C213.863 39.8291 213.526 39.5439 213.188 39.2387C212.85 39.5439 212.512 39.8291 212.177 40.0929C210.969 41.0433 209.748 41.7491 208.586 42.0957C207.42 42.4431 206.22 42.4525 205.188 41.8565C204.156 41.2605 203.564 40.2167 203.282 39.0337C203.001 37.8535 203.001 36.4429 203.221 34.9217C203.281 34.4997 203.36 34.0649 203.455 33.6195C203.022 33.4791 202.606 33.3297 202.21 33.1713C200.783 32.6005 199.561 31.8958 198.68 31.0621C197.796 30.2265 197.188 29.1921 197.188 28.0001C197.188 26.8081 197.796 25.7737 198.68 24.9381C199.561 24.1045 200.783 23.3998 202.21 22.829C202.606 22.6706 203.022 22.521 203.455 22.3808C203.36 21.9353 203.281 21.5006 203.221 21.0785C203.002 19.5573 203.001 18.1468 203.282 16.9665C203.564 15.7835 204.156 14.7397 205.188 14.1437C206.22 13.5477 207.42 13.5571 208.586 13.9045C209.748 14.2511 210.97 14.9569 212.177 15.9073ZM211.923 21.0206C212.343 20.504 212.766 20.0187 213.188 19.5672C213.61 20.0187 214.033 20.504 214.453 21.0206C214.035 21.007 213.613 21.0001 213.188 21.0001C212.762 21.0001 212.341 21.007 211.923 21.0206ZM214.616 18.1667C215.464 19.0691 216.303 20.0873 217.113 21.202C218.483 21.3459 219.785 21.5638 220.99 21.8463C221.065 21.485 221.127 21.1335 221.176 20.7933C221.373 19.4207 221.351 18.2824 221.148 17.4301C220.946 16.5806 220.591 16.1082 220.188 15.8758C219.785 15.6433 219.199 15.5717 218.362 15.8212C217.522 16.0715 216.525 16.6216 215.435 17.4791C215.165 17.6917 214.892 17.9212 214.616 18.1667ZM213.188 23.0001C214.157 23.0001 215.101 23.0378 216.012 23.1092C216.529 23.8625 217.034 24.6612 217.518 25.5001C218.002 26.339 218.442 27.1754 218.835 28.0001C218.442 28.8248 218.002 29.6612 217.518 30.5001C217.034 31.339 216.529 32.1377 216.012 32.8909C215.101 32.9625 214.157 33.0001 213.188 33.0001C212.219 33.0001 211.275 32.9625 210.364 32.8909C209.847 32.1377 209.342 31.339 208.858 30.5001C208.374 29.6612 207.934 28.8248 207.54 28.0001C207.934 27.1754 208.373 26.339 208.858 25.5001C209.342 24.6612 209.847 23.8625 210.364 23.1092C211.275 23.0378 212.219 23.0001 213.188 23.0001ZM219.25 24.5001C219.463 24.8686 219.668 25.2374 219.865 25.6059C220.102 24.9841 220.311 24.3752 220.491 23.7837C219.889 23.6436 219.257 23.52 218.6 23.4148C218.821 23.7697 219.037 24.1316 219.25 24.5001ZM219.25 31.5001C219.463 31.1316 219.668 30.7628 219.865 30.3943C220.102 31.0161 220.311 31.625 220.491 32.2165C219.889 32.3565 219.257 32.4801 218.6 32.5853C218.82 32.2305 219.037 31.8686 219.25 31.5001ZM221.038 28.0001C221.598 29.2587 222.06 30.4949 222.418 31.6797C222.769 31.564 223.104 31.442 223.423 31.3143C224.711 30.7993 225.686 30.2111 226.322 29.609C226.957 29.009 227.188 28.465 227.188 28.0001C227.188 27.5353 226.957 26.9912 226.322 26.3912C225.686 25.7892 224.711 25.201 223.423 24.686C223.104 24.5583 222.769 24.4363 222.418 24.3206C222.06 25.5053 221.598 26.7415 221.038 28.0001ZM217.113 34.7983C218.483 34.6543 219.785 34.4363 220.99 34.1539C221.065 34.5153 221.127 34.8667 221.176 35.2069C221.374 36.5795 221.351 37.7179 221.148 38.5701C220.946 39.4197 220.591 39.8921 220.188 40.1245C219.785 40.3569 219.199 40.4285 218.362 40.1791C217.522 39.9287 216.525 39.3787 215.435 38.5211C215.165 38.3085 214.892 38.0791 214.616 37.8335C215.464 36.9311 216.303 35.9129 217.113 34.7983ZM214.453 34.9797C214.033 35.4963 213.61 35.9815 213.188 36.4329C212.766 35.9815 212.343 35.4963 211.923 34.9795C212.341 34.9931 212.763 35.0001 213.188 35.0001C213.613 35.0001 214.035 34.9931 214.453 34.9797ZM207.126 31.5001C207.339 31.8686 207.555 32.2305 207.776 32.5853C207.119 32.4801 206.487 32.3565 205.885 32.2165C206.065 31.625 206.274 31.0161 206.511 30.3943C206.708 30.7628 206.913 31.1316 207.126 31.5001ZM209.263 34.7983C207.893 34.6543 206.591 34.4363 205.386 34.1539C205.311 34.5153 205.249 34.8667 205.2 35.2069C205.002 36.5795 205.024 37.7179 205.228 38.5701C205.43 39.4197 205.785 39.8921 206.188 40.1245C206.591 40.3569 207.177 40.4285 208.014 40.1791C208.854 39.9287 209.851 39.3787 210.94 38.5211C211.211 38.3085 211.484 38.0791 211.759 37.8335C210.912 36.9311 210.073 35.9129 209.263 34.7983ZM205.338 28.0001C204.778 29.2587 204.316 30.4949 203.958 31.6797C203.607 31.564 203.272 31.442 202.953 31.3143C201.665 30.7993 200.69 30.2111 200.054 29.609C199.419 29.009 199.188 28.465 199.188 28.0001C199.188 27.5353 199.419 26.9912 200.054 26.3912C200.69 25.7892 201.665 25.201 202.953 24.686C203.272 24.5583 203.607 24.4363 203.958 24.3206C204.316 25.5053 204.778 26.7415 205.338 28.0001ZM206.511 25.6059C206.274 24.9841 206.065 24.3752 205.885 23.7837C206.487 23.6436 207.119 23.52 207.776 23.4148C207.555 23.7697 207.339 24.1316 207.126 24.5001C206.913 24.8686 206.708 25.2374 206.511 25.6059ZM215.688 28.0001C215.688 29.3808 214.569 30.5001 213.188 30.5001C211.807 30.5001 210.688 29.3808 210.688 28.0001C210.688 26.6194 211.807 25.5001 213.188 25.5001C214.569 25.5001 215.688 26.6194 215.688 28.0001Z" fill="#149ECA"/>
</g>
</g>
</g>
<g filter="url(#filter2_dd_312_568)">
<rect x="370.376" width="56" height="56" rx="28" fill="#0A0A0A"/>
</g>
<g filter="url(#filter3_dd_312_568)">
<rect x="555.564" width="56" height="56" rx="28" fill="#0A0A0A"/>
<path fill-rule="evenodd" clip-rule="evenodd" d="M595.467 21.2831C595.476 21.3158 595.481 21.3495 595.481 21.3834V26.65C595.481 26.7176 595.463 26.784 595.429 26.8424C595.395 26.9009 595.347 26.9494 595.288 26.9831L590.868 29.528V34.5724C590.868 34.7096 590.795 34.8364 590.676 34.9055L581.449 40.2172C581.427 40.2292 581.404 40.2368 581.381 40.245C581.373 40.2479 581.365 40.2532 581.355 40.2556C581.291 40.2725 581.223 40.2725 581.159 40.2556C581.148 40.2527 581.138 40.2469 581.128 40.2431C581.107 40.2354 581.085 40.2287 581.065 40.2172L571.84 34.9055C571.781 34.8718 571.733 34.8233 571.699 34.7648C571.665 34.7063 571.647 34.6399 571.647 34.5724V18.7727C571.647 18.7381 571.652 18.7045 571.66 18.6719C571.663 18.6608 571.67 18.6508 571.674 18.6397C571.681 18.6196 571.688 18.5989 571.698 18.5802C571.706 18.5677 571.716 18.5576 571.725 18.5461C571.736 18.5308 571.746 18.5149 571.759 18.5015C571.77 18.4904 571.784 18.4823 571.797 18.4727C571.811 18.4612 571.823 18.4487 571.839 18.4396L576.452 15.7837C576.511 15.7501 576.577 15.7324 576.644 15.7324C576.712 15.7324 576.778 15.7501 576.836 15.7837L581.449 18.4396H581.45C581.465 18.4492 581.478 18.4612 581.492 18.4722C581.505 18.4818 581.519 18.4904 581.53 18.501C581.543 18.5149 581.553 18.5308 581.564 18.5461C581.572 18.5576 581.583 18.5677 581.59 18.5802C581.601 18.5994 581.607 18.6196 581.615 18.6397C581.619 18.6508 581.626 18.6608 581.629 18.6724C581.637 18.7051 581.642 18.7388 581.642 18.7727V28.641L585.486 26.4277V21.3829C585.486 21.3493 585.491 21.3152 585.499 21.2831C585.503 21.2716 585.509 21.2615 585.513 21.2504C585.52 21.2303 585.527 21.2096 585.538 21.1909C585.545 21.1784 585.555 21.1684 585.564 21.1568C585.575 21.1415 585.585 21.1256 585.598 21.1122C585.609 21.1012 585.623 21.093 585.636 21.0834C585.65 21.0719 585.662 21.0594 585.678 21.0503L590.292 18.3944C590.35 18.3608 590.416 18.3431 590.484 18.3431C590.551 18.3431 590.617 18.3608 590.676 18.3944L595.288 21.0503C595.305 21.0599 595.317 21.0719 595.332 21.0829C595.344 21.0925 595.358 21.1012 595.369 21.1117C595.382 21.1256 595.392 21.1415 595.403 21.1568C595.412 21.1684 595.422 21.1784 595.429 21.1909C595.44 21.2096 595.446 21.2303 595.454 21.2504C595.458 21.2615 595.465 21.2716 595.467 21.2831ZM594.712 26.4277V22.0482L593.098 22.9775L590.868 24.2615V28.641L594.712 26.4277H594.712ZM590.099 34.3501V29.9677L587.906 31.2205L581.642 34.7956V39.2192L590.099 34.3501ZM572.416 19.4375V34.3501L580.873 39.2188V34.796L576.455 32.2957L576.453 32.2948L576.451 32.2938C576.436 32.2852 576.424 32.2727 576.41 32.2621C576.398 32.2525 576.384 32.2448 576.374 32.2343L576.373 32.2328C576.36 32.2208 576.351 32.206 576.341 32.1925C576.331 32.1796 576.32 32.1685 576.312 32.1551L576.312 32.1536C576.303 32.1392 576.298 32.122 576.291 32.1056C576.285 32.0912 576.277 32.0778 576.273 32.0624C576.268 32.0442 576.267 32.0245 576.266 32.0058C576.264 31.9914 576.26 31.977 576.26 31.9626V31.9616V21.6508L574.03 20.3663L572.416 19.4375ZM576.645 16.5604L572.801 18.7727L576.644 20.985L580.487 18.7722L576.644 16.5604H576.645ZM578.643 30.3671L580.873 29.0836V19.4375L579.259 20.3668L577.029 21.6508V31.2968L578.643 30.3671ZM590.484 19.1711L586.641 21.3834L590.484 23.5957L594.326 21.3829L590.484 19.1711ZM590.099 24.2615L587.869 22.9775L586.255 22.0482V26.4277L588.484 27.7112L590.099 28.641V24.2615ZM581.257 34.1308L586.893 30.9128L589.711 29.3048L585.871 27.094L581.45 29.6394L577.42 31.9592L581.257 34.1308Z" fill="#FF2D20"/>
</g>
<g filter="url(#filter4_dd_312_568)">
<rect x="740.752" width="56" height="56" rx="28" fill="#0A0A0A"/>
<rect x="753.752" y="13" width="30" height="30" rx="15" fill="#007ACC"/>
<path d="M760.752 24.1204V25.0984H763.872V33.9784H766.086V25.0984H769.206V24.1384C769.206 23.5984 769.206 23.1604 769.182 23.1484C769.182 23.1304 767.28 23.1244 764.97 23.1244L760.77 23.1424V24.1264L760.752 24.1204ZM774.774 23.1184C775.386 23.2624 775.854 23.5384 776.274 23.9764C776.496 24.2164 776.826 24.6364 776.85 24.7444C776.85 24.7804 775.812 25.4824 775.182 25.8724C775.158 25.8904 775.062 25.7884 774.966 25.6324C774.654 25.1884 774.336 24.9964 773.838 24.9604C773.118 24.9124 772.638 25.2904 772.638 25.9204C772.638 26.1124 772.674 26.2204 772.746 26.3764C772.908 26.7064 773.208 26.9044 774.138 27.3124C775.854 28.0504 776.598 28.5364 777.048 29.2324C777.558 30.0124 777.672 31.2364 777.33 32.1544C776.946 33.1564 776.01 33.8344 774.672 34.0564C774.252 34.1284 773.292 34.1164 772.842 34.0384C771.882 33.8584 770.964 33.3784 770.4 32.7604C770.178 32.5204 769.752 31.8784 769.776 31.8364L770.004 31.6924L770.904 31.1704L771.582 30.7744L771.738 30.9844C771.936 31.2964 772.38 31.7164 772.638 31.8604C773.418 32.2624 774.462 32.2084 774.978 31.7404C775.2 31.5364 775.296 31.3204 775.296 31.0204C775.296 30.7444 775.254 30.6184 775.116 30.4084C774.924 30.1444 774.54 29.9284 773.46 29.4484C772.218 28.9204 771.69 28.5844 771.198 28.0684C770.916 27.7564 770.658 27.2704 770.538 26.8684C770.448 26.5204 770.418 25.6684 770.502 25.3264C770.76 24.1264 771.666 23.2864 772.962 23.0464C773.382 22.9624 774.372 22.9984 774.786 23.1064L774.774 23.1184Z" fill="white"/>
</g>
<g filter="url(#filter5_dd_312_568)">
<rect x="925.94" width="56" height="56" rx="28" fill="#0A0A0A"/>
<g clip-path="url(#clip3_312_568)">
<path d="M939 28C939 19.7157 945.716 13 954 13V13C962.284 13 969 19.7157 969 28V28C969 36.2843 962.284 43 954 43V43C945.716 43 939 36.2843 939 28V28Z" fill="#F0DB4F"/>
<path d="M963.66 29.7356C963.44 28.3668 962.548 27.2176 959.904 26.1453C958.986 25.7233 957.962 25.421 957.657 24.7252C957.548 24.3202 957.534 24.0921 957.603 23.8469C957.799 23.0512 958.749 22.8031 959.502 23.0313C959.987 23.1938 960.446 23.5674 960.722 24.1634C962.017 23.325 962.014 23.3307 962.918 22.7547C962.587 22.2414 962.411 22.0046 962.194 21.7851C961.415 20.9153 960.355 20.4676 958.658 20.5018C958.364 20.5389 958.068 20.5788 957.774 20.6159C956.927 20.8298 956.12 21.2746 955.646 21.8706C954.226 23.4819 954.631 26.3022 956.359 27.4629C958.062 28.7404 960.563 29.0313 960.882 30.2262C961.193 31.6891 959.807 32.1624 958.43 31.9942C957.414 31.7832 956.85 31.267 956.24 30.3288C955.116 30.979 955.116 30.979 953.961 31.6435C954.235 32.2423 954.523 32.5132 954.982 33.0322C957.155 35.2366 962.593 35.1283 963.568 31.7917C963.608 31.6777 963.871 30.9134 963.66 29.7356ZM952.424 20.6786H949.618C949.618 23.1026 949.606 25.5094 949.606 27.9334C949.606 29.4761 949.686 30.8906 949.435 31.324C949.025 32.1767 947.961 32.0712 947.476 31.9058C946.983 31.6634 946.732 31.3183 946.441 30.8307C946.361 30.691 946.301 30.5826 946.281 30.574C945.52 31.0389 944.761 31.5065 944 31.9714C944.379 32.7499 944.938 33.4258 945.654 33.8649C946.723 34.5065 948.161 34.7033 949.664 34.3582C950.642 34.0731 951.486 33.4828 951.928 32.5845C952.567 31.4067 952.43 29.9809 952.424 28.4039C952.438 25.8316 952.424 23.2594 952.424 20.6786Z" fill="#323330"/>
</g>
</g>
<g clip-path="url(#clip4_312_568)">
<path d="M583.376 56V69.3512C583.376 100.418 567.623 129.479 541.287 147C514.95 164.52 499.197 193.582 499.197 224.649V236" stroke="#FF2D20" stroke-width="2.0264"/>
<path d="M398.593 56V69.3512C398.593 100.418 414.346 129.479 440.683 147C467.019 164.52 482.772 193.582 482.772 224.649V236" stroke="#00DC82" stroke-width="2.0264"/>
<path d="M768.159 56C768.159 105.706 726.795 146 675.768 146H608.014C556.987 146 515.622 186.294 515.622 236" stroke="#007ACC" stroke-width="2.0264"/>
<path d="M952.942 56C952.942 114.542 904.223 162 844.126 162H608.014C566.059 162 532.047 195.131 532.047 236" stroke="#F0DB4F" stroke-width="2.0264"/>
<path d="M213.81 56C213.81 105.706 255.175 146 306.201 146H373.955C424.982 146 466.347 186.294 466.347 236" stroke="#149ECA" stroke-width="2.0264"/>
<path d="M29.0266 56C29.0266 114.542 77.7455 162 137.843 162H373.955C415.91 162 449.922 195.131 449.922 236" stroke="#8F8F8F" stroke-width="2.0264"/>
</g>
<rect x="410.985" y="236" width="160" height="56.5" rx="28.25" fill="#0A0A0A"/>
<path d="M452.745 259.06H448.425V271H445.825V259.06H441.525V256.8H452.745V259.06ZM451.665 265.7C451.665 264.593 451.885 263.62 452.325 262.78C452.765 261.94 453.379 261.293 454.165 260.84C454.952 260.387 455.872 260.16 456.925 260.16C457.859 260.16 458.699 260.373 459.445 260.8C460.192 261.227 460.785 261.86 461.225 262.7C461.665 263.54 461.892 264.567 461.905 265.78V266.4H454.365C454.419 267.28 454.665 267.973 455.105 268.48C455.559 268.973 456.165 269.22 456.925 269.22C457.405 269.22 457.845 269.087 458.245 268.82C458.645 268.553 458.945 268.193 459.145 267.74L461.765 267.94C461.445 268.94 460.845 269.74 459.965 270.34C459.085 270.94 458.072 271.24 456.925 271.24C455.872 271.24 454.952 271.013 454.165 270.56C453.379 270.107 452.765 269.46 452.325 268.62C451.885 267.78 451.665 266.807 451.665 265.7ZM459.265 264.7C459.172 263.833 458.912 263.2 458.485 262.8C458.059 262.387 457.539 262.18 456.925 262.18C456.219 262.18 455.645 262.4 455.205 262.84C454.765 263.28 454.492 263.9 454.385 264.7H459.265ZM470.14 264.3C470.033 263.66 469.766 263.16 469.34 262.8C468.926 262.427 468.433 262.24 467.86 262.24C467.033 262.24 466.393 262.54 465.94 263.14C465.486 263.74 465.26 264.593 465.26 265.7C465.26 266.807 465.486 267.66 465.94 268.26C466.393 268.86 467.033 269.16 467.86 269.16C468.46 269.16 468.973 268.973 469.4 268.6C469.826 268.213 470.086 267.667 470.18 266.96L472.84 267.08C472.746 267.92 472.473 268.653 472.02 269.28C471.566 269.907 470.98 270.393 470.26 270.74C469.54 271.073 468.74 271.24 467.86 271.24C466.806 271.24 465.886 271.013 465.1 270.56C464.313 270.107 463.7 269.46 463.26 268.62C462.82 267.78 462.6 266.807 462.6 265.7C462.6 264.593 462.82 263.62 463.26 262.78C463.7 261.94 464.313 261.293 465.1 260.84C465.886 260.387 466.806 260.16 467.86 260.16C468.713 260.16 469.493 260.327 470.2 260.66C470.92 260.98 471.506 261.44 471.96 262.04C472.413 262.64 472.686 263.347 472.78 264.16L470.14 264.3ZM476.166 256.8V262.82L475.806 262.9C475.98 261.953 476.373 261.26 476.986 260.82C477.613 260.38 478.366 260.16 479.246 260.16C480.34 260.16 481.206 260.527 481.846 261.26C482.5 261.993 482.826 262.967 482.826 264.18V271H480.266V265.1C480.266 264.153 480.12 263.453 479.826 263C479.533 262.547 479.06 262.32 478.406 262.32C477.7 262.32 477.146 262.56 476.746 263.04C476.36 263.52 476.166 264.207 476.166 265.1V271H473.606V256.8H476.166ZM490.725 266.22C490.831 266.793 491.031 267.287 491.325 267.7C491.618 268.1 491.998 268.413 492.465 268.64C492.945 268.867 493.505 268.98 494.145 268.98C494.651 268.98 495.091 268.913 495.465 268.78C495.851 268.647 496.145 268.453 496.345 268.2C496.558 267.933 496.665 267.607 496.665 267.22C496.651 266.633 496.378 266.153 495.845 265.78C495.311 265.393 494.438 265.053 493.225 264.76C491.691 264.387 490.498 263.867 489.645 263.2C488.805 262.533 488.385 261.66 488.385 260.58C488.385 259.753 488.598 259.033 489.025 258.42C489.451 257.793 490.051 257.313 490.825 256.98C491.598 256.647 492.491 256.48 493.505 256.48C494.531 256.48 495.445 256.68 496.245 257.08C497.058 257.48 497.705 258.033 498.185 258.74C498.665 259.447 498.958 260.267 499.065 261.2L496.445 261.32C496.391 260.8 496.231 260.347 495.965 259.96C495.698 259.56 495.351 259.253 494.925 259.04C494.498 258.827 494.011 258.72 493.465 258.72C492.731 258.72 492.138 258.893 491.685 259.24C491.245 259.587 491.031 260.047 491.045 260.62C491.058 261.02 491.198 261.36 491.465 261.64C491.745 261.907 492.091 262.12 492.505 262.28C492.918 262.44 493.445 262.6 494.085 262.76C494.138 262.773 494.218 262.793 494.325 262.82C495.898 263.207 497.125 263.753 498.005 264.46C498.885 265.153 499.325 266.027 499.325 267.08C499.325 267.947 499.085 268.693 498.605 269.32C498.138 269.947 497.505 270.427 496.705 270.76C495.905 271.08 495.011 271.24 494.025 271.24C492.918 271.24 491.931 271.04 491.065 270.64C490.198 270.24 489.505 269.673 488.985 268.94C488.465 268.207 488.165 267.353 488.085 266.38L490.725 266.22ZM503.9 258V267.74C503.9 268.153 504 268.473 504.2 268.7C504.413 268.913 504.713 269.02 505.1 269.02H506.7V271H504.68C503.587 271 502.753 270.727 502.18 270.18C501.62 269.633 501.34 268.82 501.34 267.74V258H503.9ZM506.7 260.4V262.38H499.66V260.4H506.7ZM507.394 263.64C507.607 262.533 508.12 261.68 508.934 261.08C509.76 260.467 510.827 260.16 512.134 260.16C513.654 260.16 514.807 260.547 515.594 261.32C516.394 262.093 516.794 263.227 516.794 264.72V268.36C516.794 268.653 516.847 268.86 516.954 268.98C517.074 269.087 517.24 269.14 517.454 269.14H517.874V271L517.274 271.02H517.054C516.44 271.047 515.894 270.953 515.414 270.74C514.934 270.513 514.654 270.06 514.574 269.38C514.307 269.94 513.867 270.393 513.254 270.74C512.654 271.073 511.914 271.24 511.034 271.24C509.94 271.24 509.027 270.967 508.294 270.42C507.574 269.873 507.214 269.14 507.214 268.22C507.214 267.553 507.367 267.013 507.674 266.6C507.994 266.187 508.44 265.867 509.014 265.64C509.587 265.4 510.334 265.187 511.254 265L514.214 264.42C514.214 263.593 514.04 262.987 513.694 262.6C513.347 262.2 512.827 262 512.134 262C511.56 262 511.094 262.153 510.734 262.46C510.374 262.753 510.134 263.193 510.014 263.78L507.394 263.64ZM509.874 268.14C509.874 268.527 510.034 268.84 510.354 269.08C510.674 269.32 511.134 269.44 511.734 269.44C512.227 269.44 512.66 269.32 513.034 269.08C513.42 268.84 513.72 268.487 513.934 268.02C514.16 267.54 514.274 266.967 514.274 266.3V266.16L512.254 266.52C512.16 266.533 512.06 266.547 511.954 266.56C511.474 266.653 511.087 266.753 510.794 266.86C510.514 266.953 510.287 267.107 510.114 267.32C509.954 267.52 509.874 267.793 509.874 268.14ZM525.727 264.3C525.621 263.66 525.354 263.16 524.927 262.8C524.514 262.427 524.021 262.24 523.447 262.24C522.621 262.24 521.981 262.54 521.527 263.14C521.074 263.74 520.847 264.593 520.847 265.7C520.847 266.807 521.074 267.66 521.527 268.26C521.981 268.86 522.621 269.16 523.447 269.16C524.047 269.16 524.561 268.973 524.987 268.6C525.414 268.213 525.674 267.667 525.767 266.96L528.427 267.08C528.334 267.92 528.061 268.653 527.607 269.28C527.154 269.907 526.567 270.393 525.847 270.74C525.127 271.073 524.327 271.24 523.447 271.24C522.394 271.24 521.474 271.013 520.687 270.56C519.901 270.107 519.287 269.46 518.847 268.62C518.407 267.78 518.187 266.807 518.187 265.7C518.187 264.593 518.407 263.62 518.847 262.78C519.287 261.94 519.901 261.293 520.687 260.84C521.474 260.387 522.394 260.16 523.447 260.16C524.301 260.16 525.081 260.327 525.787 260.66C526.507 260.98 527.094 261.44 527.547 262.04C528.001 262.64 528.274 263.347 528.367 264.16L525.727 264.3ZM531.91 256.8V265.18L536.25 260.4H539.39L535.25 264.78L539.59 271H536.71L533.57 266.32L531.91 268.1V271H529.35V256.8H531.91Z" fill="#EAEAEA"/>
<rect x="489.985" y="292.5" width="2" height="788" fill="url(#paint2_linear_312_568)"/>
<path d="M400.775 19.8301L398 24.5926L395.225 19.8301H386L398 40.4551L410 19.8301H400.775Z" fill="#42B883"/>
<path d="M400.775 19.8301L398 24.5926L395.225 19.8301H390.8L398 32.2051L405.2 19.8301H400.775Z" fill="#35495E"/>
</g>
<defs>
<filter id="filter0_dd_312_568" x="-2" y="-1" width="60" height="60" filterUnits="userSpaceOnUse" color-interpolation-filters="sRGB">
<feFlood flood-opacity="0" result="BackgroundImageFix"/>
<feColorMatrix in="SourceAlpha" type="matrix" values="0 0 0 0 0 0 0 0 0 0 0 0 0 0 0 0 0 0 127 0" result="hardAlpha"/>
<feOffset dy="1"/>
<feGaussianBlur stdDeviation="1"/>
<feComposite in2="hardAlpha" operator="out"/>
<feColorMatrix type="matrix" values="0 0 0 0 0 0 0 0 0 0 0 0 0 0 0 0 0 0 0.16 0"/>
<feBlend mode="normal" in2="BackgroundImageFix" result="effect1_dropShadow_312_568"/>
<feColorMatrix in="SourceAlpha" type="matrix" values="0 0 0 0 0 0 0 0 0 0 0 0 0 0 0 0 0 0 127 0" result="hardAlpha"/>
<feMorphology radius="1" operator="dilate" in="SourceAlpha" result="effect2_dropShadow_312_568"/>
<feOffset/>
<feComposite in2="hardAlpha" operator="out"/>
<feColorMatrix type="matrix" values="0 0 0 0 1 0 0 0 0 1 0 0 0 0 1 0 0 0 0.145 0"/>
<feBlend mode="normal" in2="effect1_dropShadow_312_568" result="effect2_dropShadow_312_568"/>
<feBlend mode="normal" in="SourceGraphic" in2="effect2_dropShadow_312_568" result="shape"/>
</filter>
<filter id="filter1_dd_312_568" x="183.188" y="-1" width="60" height="60" filterUnits="userSpaceOnUse" color-interpolation-filters="sRGB">
<feFlood flood-opacity="0" result="BackgroundImageFix"/>
<feColorMatrix in="SourceAlpha" type="matrix" values="0 0 0 0 0 0 0 0 0 0 0 0 0 0 0 0 0 0 127 0" result="hardAlpha"/>
<feOffset dy="1"/>
<feGaussianBlur stdDeviation="1"/>
<feComposite in2="hardAlpha" operator="out"/>
<feColorMatrix type="matrix" values="0 0 0 0 0 0 0 0 0 0 0 0 0 0 0 0 0 0 0.16 0"/>
<feBlend mode="normal" in2="BackgroundImageFix" result="effect1_dropShadow_312_568"/>
<feColorMatrix in="SourceAlpha" type="matrix" values="0 0 0 0 0 0 0 0 0 0 0 0 0 0 0 0 0 0 127 0" result="hardAlpha"/>
<feMorphology radius="1" operator="dilate" in="SourceAlpha" result="effect2_dropShadow_312_568"/>
<feOffset/>
<feComposite in2="hardAlpha" operator="out"/>
<feColorMatrix type="matrix" values="0 0 0 0 1 0 0 0 0 1 0 0 0 0 1 0 0 0 0.145 0"/>
<feBlend mode="normal" in2="effect1_dropShadow_312_568" result="effect2_dropShadow_312_568"/>
<feBlend mode="normal" in="SourceGraphic" in2="effect2_dropShadow_312_568" result="shape"/>
</filter>
<filter id="filter2_dd_312_568" x="368.376" y="-1" width="60" height="60" filterUnits="userSpaceOnUse" color-interpolation-filters="sRGB">
<feFlood flood-opacity="0" result="BackgroundImageFix"/>
<feColorMatrix in="SourceAlpha" type="matrix" values="0 0 0 0 0 0 0 0 0 0 0 0 0 0 0 0 0 0 127 0" result="hardAlpha"/>
<feOffset dy="1"/>
<feGaussianBlur stdDeviation="1"/>
<feComposite in2="hardAlpha" operator="out"/>
<feColorMatrix type="matrix" values="0 0 0 0 0 0 0 0 0 0 0 0 0 0 0 0 0 0 0.16 0"/>
<feBlend mode="normal" in2="BackgroundImageFix" result="effect1_dropShadow_312_568"/>
<feColorMatrix in="SourceAlpha" type="matrix" values="0 0 0 0 0 0 0 0 0 0 0 0 0 0 0 0 0 0 127 0" result="hardAlpha"/>
<feMorphology radius="1" operator="dilate" in="SourceAlpha" result="effect2_dropShadow_312_568"/>
<feOffset/>
<feComposite in2="hardAlpha" operator="out"/>
<feColorMatrix type="matrix" values="0 0 0 0 1 0 0 0 0 1 0 0 0 0 1 0 0 0 0.145 0"/>
<feBlend mode="normal" in2="effect1_dropShadow_312_568" result="effect2_dropShadow_312_568"/>
<feBlend mode="normal" in="SourceGraphic" in2="effect2_dropShadow_312_568" result="shape"/>
</filter>
<filter id="filter3_dd_312_568" x="553.564" y="-1" width="60" height="60" filterUnits="userSpaceOnUse" color-interpolation-filters="sRGB">
<feFlood flood-opacity="0" result="BackgroundImageFix"/>
<feColorMatrix in="SourceAlpha" type="matrix" values="0 0 0 0 0 0 0 0 0 0 0 0 0 0 0 0 0 0 127 0" result="hardAlpha"/>
<feOffset dy="1"/>
<feGaussianBlur stdDeviation="1"/>
<feComposite in2="hardAlpha" operator="out"/>
<feColorMatrix type="matrix" values="0 0 0 0 0 0 0 0 0 0 0 0 0 0 0 0 0 0 0.16 0"/>
<feBlend mode="normal" in2="BackgroundImageFix" result="effect1_dropShadow_312_568"/>
<feColorMatrix in="SourceAlpha" type="matrix" values="0 0 0 0 0 0 0 0 0 0 0 0 0 0 0 0 0 0 127 0" result="hardAlpha"/>
<feMorphology radius="1" operator="dilate" in="SourceAlpha" result="effect2_dropShadow_312_568"/>
<feOffset/>
<feComposite in2="hardAlpha" operator="out"/>
<feColorMatrix type="matrix" values="0 0 0 0 1 0 0 0 0 1 0 0 0 0 1 0 0 0 0.145 0"/>
<feBlend mode="normal" in2="effect1_dropShadow_312_568" result="effect2_dropShadow_312_568"/>
<feBlend mode="normal" in="SourceGraphic" in2="effect2_dropShadow_312_568" result="shape"/>
</filter>
<filter id="filter4_dd_312_568" x="738.752" y="-1" width="60" height="60" filterUnits="userSpaceOnUse" color-interpolation-filters="sRGB">
<feFlood flood-opacity="0" result="BackgroundImageFix"/>
<feColorMatrix in="SourceAlpha" type="matrix" values="0 0 0 0 0 0 0 0 0 0 0 0 0 0 0 0 0 0 127 0" result="hardAlpha"/>
<feOffset dy="1"/>
<feGaussianBlur stdDeviation="1"/>
<feComposite in2="hardAlpha" operator="out"/>
<feColorMatrix type="matrix" values="0 0 0 0 0 0 0 0 0 0 0 0 0 0 0 0 0 0 0.16 0"/>
<feBlend mode="normal" in2="BackgroundImageFix" result="effect1_dropShadow_312_568"/>
<feColorMatrix in="SourceAlpha" type="matrix" values="0 0 0 0 0 0 0 0 0 0 0 0 0 0 0 0 0 0 127 0" result="hardAlpha"/>
<feMorphology radius="1" operator="dilate" in="SourceAlpha" result="effect2_dropShadow_312_568"/>
<feOffset/>
<feComposite in2="hardAlpha" operator="out"/>
<feColorMatrix type="matrix" values="0 0 0 0 1 0 0 0 0 1 0 0 0 0 1 0 0 0 0.145 0"/>
<feBlend mode="normal" in2="effect1_dropShadow_312_568" result="effect2_dropShadow_312_568"/>
<feBlend mode="normal" in="SourceGraphic" in2="effect2_dropShadow_312_568" result="shape"/>
</filter>
<filter id="filter5_dd_312_568" x="923.94" y="-1" width="60" height="60" filterUnits="userSpaceOnUse" color-interpolation-filters="sRGB">
<feFlood flood-opacity="0" result="BackgroundImageFix"/>
<feColorMatrix in="SourceAlpha" type="matrix" values="0 0 0 0 0 0 0 0 0 0 0 0 0 0 0 0 0 0 127 0" result="hardAlpha"/>
<feOffset dy="1"/>
<feGaussianBlur stdDeviation="1"/>
<feComposite in2="hardAlpha" operator="out"/>
<feColorMatrix type="matrix" values="0 0 0 0 0 0 0 0 0 0 0 0 0 0 0 0 0 0 0.16 0"/>
<feBlend mode="normal" in2="BackgroundImageFix" result="effect1_dropShadow_312_568"/>
<feColorMatrix in="SourceAlpha" type="matrix" values="0 0 0 0 0 0 0 0 0 0 0 0 0 0 0 0 0 0 127 0" result="hardAlpha"/>
<feMorphology radius="1" operator="dilate" in="SourceAlpha" result="effect2_dropShadow_312_568"/>
<feOffset/>
<feComposite in2="hardAlpha" operator="out"/>
<feColorMatrix type="matrix" values="0 0 0 0 1 0 0 0 0 1 0 0 0 0 1 0 0 0 0.145 0"/>
<feBlend mode="normal" in2="effect1_dropShadow_312_568" result="effect2_dropShadow_312_568"/>
<feBlend mode="normal" in="SourceGraphic" in2="effect2_dropShadow_312_568" result="shape"/>
</filter>
<linearGradient id="paint0_linear_312_568" x1="33.26" y1="28" x2="34.26" y2="28" gradientUnits="userSpaceOnUse">
<stop stop-color="white"/>
<stop offset="0.609375" stop-color="white" stop-opacity="0.57"/>
<stop offset="0.796875" stop-color="white" stop-opacity="0"/>
<stop offset="1" stop-color="white" stop-opacity="0"/>
</linearGradient>
<linearGradient id="paint1_linear_312_568" x1="31.875" y1="30.125" x2="39.1148" y2="38.7984" gradientUnits="userSpaceOnUse">
<stop stop-color="white"/>
<stop offset="1" stop-color="white" stop-opacity="0"/>
</linearGradient>
<linearGradient id="paint2_linear_312_568" x1="490.985" y1="1080.5" x2="490.985" y2="292.5" gradientUnits="userSpaceOnUse">
<stop stop-opacity="0"/>
<stop offset="1" stop-color="#EDEDED"/>
</linearGradient>
<clipPath id="clip0_312_568">
<rect width="981.97" height="1080.5" fill="white"/>
</clipPath>
<clipPath id="clip1_312_568">
<rect width="32" height="32" fill="white" transform="translate(12 12)"/>
</clipPath>
<clipPath id="clip2_312_568">
<rect width="32" height="32" fill="white" transform="translate(197.188 12)"/>
</clipPath>
<clipPath id="clip3_312_568">
<rect width="30" height="30" fill="white" transform="translate(939 13)"/>
</clipPath>
<clipPath id="clip4_312_568">
<rect width="925.969" height="180" fill="white" transform="translate(28 56)"/>
</clipPath>
</defs>
</svg>
