<svg width="60" height="60" viewBox="0 0 60 60" fill="none" xmlns="http://www.w3.org/2000/svg">
<g filter="url(#filter0_dd_312_589)">
<rect x="2" y="1" width="56" height="56" rx="28" fill="#0A0A0A"/>
<path fill-rule="evenodd" clip-rule="evenodd" d="M41.9035 22.2831C41.9123 22.3158 41.9168 22.3495 41.9169 22.3834V27.65C41.9169 27.7176 41.8991 27.784 41.8652 27.8424C41.8313 27.9009 41.7826 27.9494 41.724 27.9831L37.3036 30.528V35.5724C37.3036 35.7096 37.2307 35.8364 37.1116 35.9055L27.8846 41.2172C27.8635 41.2292 27.8404 41.2368 27.8174 41.245C27.8088 41.2479 27.8006 41.2532 27.7915 41.2556C27.727 41.2725 27.6592 41.2725 27.5947 41.2556C27.5841 41.2527 27.5745 41.2469 27.5644 41.2431C27.5433 41.2354 27.5212 41.2287 27.5011 41.2172L18.276 35.9055C18.2174 35.8718 18.1687 35.8233 18.1348 35.7648C18.1009 35.7063 18.0831 35.6399 18.083 35.5724V19.7727C18.083 19.7381 18.0878 19.7045 18.0964 19.6719C18.0993 19.6608 18.106 19.6508 18.1099 19.6397C18.1171 19.6196 18.1238 19.5989 18.1344 19.5802C18.1416 19.5677 18.1521 19.5576 18.1608 19.5461C18.1718 19.5308 18.1819 19.5149 18.1948 19.5015C18.2059 19.4904 18.2203 19.4823 18.2328 19.4727C18.2467 19.4612 18.2592 19.4487 18.275 19.4396L22.8883 16.7837C22.9467 16.7501 23.0129 16.7324 23.0803 16.7324C23.1477 16.7324 23.2139 16.7501 23.2723 16.7837L27.8851 19.4396H27.886C27.9014 19.4492 27.9144 19.4612 27.9283 19.4722C27.9408 19.4818 27.9547 19.4904 27.9657 19.501C27.9792 19.5149 27.9888 19.5308 28.0003 19.5461C28.0084 19.5576 28.0195 19.5677 28.0262 19.5802C28.0372 19.5994 28.0435 19.6196 28.0512 19.6397C28.055 19.6508 28.0617 19.6608 28.0646 19.6724C28.0734 19.7051 28.078 19.7388 28.078 19.7727V29.641L31.9219 27.4277V22.3829C31.9219 22.3493 31.9267 22.3152 31.9353 22.2831C31.9387 22.2716 31.9449 22.2615 31.9488 22.2504C31.9564 22.2303 31.9632 22.2096 31.9737 22.1909C31.9809 22.1784 31.9915 22.1684 31.9996 22.1568C32.0112 22.1415 32.0208 22.1256 32.0342 22.1122C32.0452 22.1012 32.0592 22.093 32.0716 22.0834C32.086 22.0719 32.0985 22.0594 32.1139 22.0503L36.7276 19.3944C36.786 19.3608 36.8523 19.3431 36.9196 19.3431C36.987 19.3431 37.0533 19.3608 37.1116 19.3944L41.7244 22.0503C41.7408 22.0599 41.7532 22.0719 41.7676 22.0829C41.7796 22.0925 41.7936 22.1012 41.8046 22.1117C41.818 22.1256 41.8276 22.1415 41.8392 22.1568C41.8478 22.1684 41.8584 22.1784 41.8651 22.1909C41.8761 22.2096 41.8824 22.2303 41.89 22.2504C41.8944 22.2615 41.9006 22.2716 41.9035 22.2831ZM41.148 27.4277V23.0482L39.5337 23.9775L37.3036 25.2615V29.641L41.1484 27.4277H41.148ZM36.5352 35.3501V30.9677L34.3416 32.2205L28.0776 35.7956V40.2192L36.5352 35.3501ZM18.852 20.4375V35.3501L27.3086 40.2188V35.796L22.8907 33.2957L22.8892 33.2948L22.8873 33.2938C22.8724 33.2852 22.86 33.2727 22.846 33.2621C22.834 33.2525 22.8201 33.2448 22.8096 33.2343L22.8086 33.2328C22.7961 33.2208 22.7875 33.206 22.7769 33.1925C22.7673 33.1796 22.7558 33.1685 22.7481 33.1551L22.7476 33.1536C22.739 33.1392 22.7337 33.122 22.7275 33.1056C22.7212 33.0912 22.7131 33.0778 22.7092 33.0624C22.7044 33.0442 22.7035 33.0245 22.7016 33.0058C22.6996 32.9914 22.6958 32.977 22.6958 32.9626V32.9616V22.6508L20.4662 21.3663L18.852 20.4375ZM23.0808 17.5604L19.2374 19.7727L23.0798 21.985L26.9227 19.7722L23.0798 17.5604H23.0808ZM25.0795 31.3671L27.3091 30.0836V20.4375L25.6948 21.3668L23.4648 22.6508V32.2968L25.0795 31.3671ZM36.9196 20.1711L33.0768 22.3834L36.9196 24.5957L40.762 22.3829L36.9196 20.1711ZM36.5352 25.2615L34.3051 23.9775L32.6908 23.0482V27.4277L34.9204 28.7112L36.5352 29.641V25.2615ZM27.6926 35.1308L33.3292 31.9128L36.1468 30.3048L32.3068 28.094L27.8856 30.6394L23.856 32.9592L27.6926 35.1308Z" fill="#FF2D20"/>
</g>
<defs>
<filter id="filter0_dd_312_589" x="0" y="0" width="60" height="60" filterUnits="userSpaceOnUse" color-interpolation-filters="sRGB">
<feFlood flood-opacity="0" result="BackgroundImageFix"/>
<feColorMatrix in="SourceAlpha" type="matrix" values="0 0 0 0 0 0 0 0 0 0 0 0 0 0 0 0 0 0 127 0" result="hardAlpha"/>
<feOffset dy="1"/>
<feGaussianBlur stdDeviation="1"/>
<feComposite in2="hardAlpha" operator="out"/>
<feColorMatrix type="matrix" values="0 0 0 0 0 0 0 0 0 0 0 0 0 0 0 0 0 0 0.16 0"/>
<feBlend mode="normal" in2="BackgroundImageFix" result="effect1_dropShadow_312_589"/>
<feColorMatrix in="SourceAlpha" type="matrix" values="0 0 0 0 0 0 0 0 0 0 0 0 0 0 0 0 0 0 127 0" result="hardAlpha"/>
<feMorphology radius="1" operator="dilate" in="SourceAlpha" result="effect2_dropShadow_312_589"/>
<feOffset/>
<feComposite in2="hardAlpha" operator="out"/>
<feColorMatrix type="matrix" values="0 0 0 0 1 0 0 0 0 1 0 0 0 0 1 0 0 0 0.145 0"/>
<feBlend mode="normal" in2="effect1_dropShadow_312_589" result="effect2_dropShadow_312_589"/>
<feBlend mode="normal" in="SourceGraphic" in2="effect2_dropShadow_312_589" result="shape"/>
</filter>
</defs>
</svg>
