<svg width="60" height="60" viewBox="0 0 60 60" fill="none" xmlns="http://www.w3.org/2000/svg">
<g filter="url(#filter0_dd_312_571)">
<rect x="2" y="1" width="56" height="56" rx="28" fill="#0A0A0A"/>
<g clip-path="url(#clip0_312_571)">
<mask id="mask0_312_571" style="mask-type:luminance" maskUnits="userSpaceOnUse" x="14" y="13" width="32" height="32">
<path d="M46 13H14V45H46V13Z" fill="white"/>
</mask>
<g mask="url(#mask0_312_571)">
<path d="M30 43.75C38.1462 43.75 44.75 37.1462 44.75 29C44.75 20.8538 38.1462 14.25 30 14.25C21.8538 14.25 15.25 20.8538 15.25 29C15.25 37.1462 21.8538 43.75 30 43.75Z" fill="black" stroke="#EDEDED" stroke-width="2" stroke-linecap="round" stroke-linejoin="round"/>
<path d="M35.2598 35V23V35Z" fill="black"/>
<path d="M35.2598 35V23" stroke="url(#paint0_linear_312_571)" stroke-width="2" stroke-miterlimit="1.41421" stroke-linejoin="round"/>
<path fill-rule="evenodd" clip-rule="evenodd" d="M25.9902 23.0017L23.4902 23V35H25.9902V26.936L38.7232 42.4152C39.4242 41.9586 40.087 41.4484 40.7062 40.8906L25.9902 23.0017Z" fill="url(#paint1_linear_312_571)"/>
</g>
</g>
</g>
<defs>
<filter id="filter0_dd_312_571" x="0" y="0" width="60" height="60" filterUnits="userSpaceOnUse" color-interpolation-filters="sRGB">
<feFlood flood-opacity="0" result="BackgroundImageFix"/>
<feColorMatrix in="SourceAlpha" type="matrix" values="0 0 0 0 0 0 0 0 0 0 0 0 0 0 0 0 0 0 127 0" result="hardAlpha"/>
<feOffset dy="1"/>
<feGaussianBlur stdDeviation="1"/>
<feComposite in2="hardAlpha" operator="out"/>
<feColorMatrix type="matrix" values="0 0 0 0 0 0 0 0 0 0 0 0 0 0 0 0 0 0 0.16 0"/>
<feBlend mode="normal" in2="BackgroundImageFix" result="effect1_dropShadow_312_571"/>
<feColorMatrix in="SourceAlpha" type="matrix" values="0 0 0 0 0 0 0 0 0 0 0 0 0 0 0 0 0 0 127 0" result="hardAlpha"/>
<feMorphology radius="1" operator="dilate" in="SourceAlpha" result="effect2_dropShadow_312_571"/>
<feOffset/>
<feComposite in2="hardAlpha" operator="out"/>
<feColorMatrix type="matrix" values="0 0 0 0 1 0 0 0 0 1 0 0 0 0 1 0 0 0 0.145 0"/>
<feBlend mode="normal" in2="effect1_dropShadow_312_571" result="effect2_dropShadow_312_571"/>
<feBlend mode="normal" in="SourceGraphic" in2="effect2_dropShadow_312_571" result="shape"/>
</filter>
<linearGradient id="paint0_linear_312_571" x1="35.2598" y1="29" x2="36.2598" y2="29" gradientUnits="userSpaceOnUse">
<stop stop-color="white"/>
<stop offset="0.609375" stop-color="white" stop-opacity="0.57"/>
<stop offset="0.796875" stop-color="white" stop-opacity="0"/>
<stop offset="1" stop-color="white" stop-opacity="0"/>
</linearGradient>
<linearGradient id="paint1_linear_312_571" x1="33.8752" y1="31.125" x2="41.115" y2="39.7984" gradientUnits="userSpaceOnUse">
<stop stop-color="white"/>
<stop offset="1" stop-color="white" stop-opacity="0"/>
</linearGradient>
<clipPath id="clip0_312_571">
<rect width="32" height="32" fill="white" transform="translate(14 13)"/>
</clipPath>
</defs>
</svg>
