<svg width="60" height="60" viewBox="0 0 60 60" fill="none" xmlns="http://www.w3.org/2000/svg">
<g filter="url(#filter0_dd_312_580)">
<rect x="2" y="1" width="56" height="56" rx="28" fill="#0A0A0A"/>
<g clip-path="url(#clip0_312_580)">
<mask id="mask0_312_580" style="mask-type:luminance" maskUnits="userSpaceOnUse" x="14" y="13" width="32" height="32">
<path d="M46 13H14V45H46V13Z" fill="white"/>
</mask>
<g mask="url(#mask0_312_580)">
<path fill-rule="evenodd" clip-rule="evenodd" d="M23 16.8758C23.4026 16.6433 23.9894 16.5717 24.8263 16.8212C25.666 17.0715 26.6628 17.6216 27.7525 18.4791C28.0227 18.6917 28.2961 18.9212 28.5715 19.1667C27.7243 20.069 26.8848 21.0873 26.075 22.202C24.7049 22.3459 23.4033 22.5638 22.1983 22.8463C22.1233 22.485 22.0613 22.1335 22.0122 21.7932C21.8145 20.4207 21.8365 19.2824 22.0396 18.4301C22.242 17.5806 22.5974 17.1082 23 16.8758ZM28.9893 16.9073C29.3245 17.1711 29.6618 17.4562 30 17.7615C30.3381 17.4562 30.6755 17.1711 31.0106 16.9073C32.2184 15.957 33.4396 15.2511 34.6024 14.9045C35.7678 14.5571 36.9676 14.5477 38 15.1437C39.0322 15.7397 39.624 16.7835 39.906 17.9666C40.1872 19.1468 40.1864 20.5573 39.9672 22.0785C39.9064 22.5006 39.8282 22.9353 39.733 23.3808C40.1664 23.521 40.582 23.6706 40.978 23.829C42.405 24.3998 43.6268 25.1045 44.5084 25.9381C45.392 26.7737 46 27.8081 46 29.0001C46 30.1921 45.392 31.2265 44.5084 32.0621C43.6268 32.8958 42.405 33.6005 40.978 34.1713C40.582 34.3297 40.1664 34.4793 39.733 34.6195C39.8282 35.0649 39.9064 35.4997 39.9674 35.9217C40.1864 37.4429 40.1872 38.8535 39.906 40.0337C39.624 41.2167 39.0322 42.2605 38 42.8565C36.9678 43.4525 35.7678 43.4431 34.6024 43.0957C33.4397 42.7491 32.2185 42.0433 31.0107 41.0929C30.6755 40.8291 30.3381 40.5439 30 40.2387C29.6618 40.5439 29.3245 40.8291 28.9893 41.0929C27.7815 42.0433 26.5603 42.7491 25.3976 43.0957C24.2321 43.4431 23.0323 43.4525 22 42.8565C20.9677 42.2605 20.3759 41.2167 20.094 40.0337C19.8128 38.8535 19.8135 37.4429 20.0326 35.9217C20.0935 35.4997 20.1717 35.0649 20.267 34.6195C19.8336 34.4791 19.418 34.3297 19.022 34.1713C17.595 33.6005 16.3732 32.8958 15.4917 32.0621C14.6081 31.2265 14 30.1921 14 29.0001C14 27.8081 14.6081 26.7737 15.4917 25.9381C16.3732 25.1045 17.595 24.3998 19.022 23.829C19.418 23.6706 19.8336 23.521 20.267 23.3808C20.1717 22.9353 20.0935 22.5006 20.0327 22.0785C19.8135 20.5573 19.8128 19.1468 20.094 17.9665C20.3759 16.7835 20.9677 15.7397 22 15.1437C23.0323 14.5477 24.2321 14.5571 25.3976 14.9045C26.5603 15.2511 27.7815 15.9569 28.9893 16.9073ZM28.7349 22.0206C29.1547 21.504 29.5776 21.0187 30 20.5672C30.4223 21.0187 30.8453 21.504 31.265 22.0206C30.8474 22.007 30.4255 22.0001 30 22.0001C29.5745 22.0001 29.1526 22.007 28.7349 22.0206ZM31.4285 19.1667C32.2756 20.0691 33.1152 21.0873 33.9249 22.202C35.295 22.3459 36.5966 22.5638 37.8016 22.8463C37.8766 22.485 37.9386 22.1335 37.9878 21.7933C38.1854 20.4207 38.1634 19.2824 37.9604 18.4301C37.758 17.5806 37.4026 17.1082 37 16.8758C36.5974 16.6433 36.0106 16.5717 35.1736 16.8212C34.334 17.0715 33.3372 17.6216 32.2474 18.4791C31.9772 18.6917 31.7039 18.9212 31.4285 19.1667ZM30 24.0001C30.9687 24.0001 31.9128 24.0378 32.8238 24.1092C33.3411 24.8625 33.8458 25.6612 34.3302 26.5001C34.8144 27.339 35.2538 28.1754 35.6474 29.0001C35.2538 29.8248 34.8144 30.6612 34.33 31.5001C33.8458 32.339 33.3411 33.1377 32.8237 33.8909C31.9127 33.9625 30.9686 34.0001 30 34.0001C29.0313 34.0001 28.0873 33.9625 27.1763 33.8909C26.6589 33.1377 26.1542 32.339 25.6699 31.5001C25.1855 30.6612 24.7461 29.8248 24.3525 29.0001C24.7461 28.1754 25.1855 27.339 25.6698 26.5001C26.1542 25.6612 26.6588 24.8625 27.1762 24.1092C28.0872 24.0378 29.0313 24.0001 30 24.0001ZM36.0622 25.5001C36.275 25.8686 36.4798 26.2374 36.677 26.6059C36.9144 25.9841 37.1232 25.3752 37.303 24.7837C36.701 24.6436 36.0692 24.52 35.412 24.4148C35.6326 24.7697 35.8494 25.1316 36.0622 25.5001ZM36.0622 32.5001C36.2748 32.1316 36.4798 31.7628 36.677 31.3943C36.9144 32.0161 37.1234 32.625 37.303 33.2165C36.701 33.3565 36.0692 33.4801 35.4118 33.5853C35.6324 33.2305 35.8494 32.8686 36.0622 32.5001ZM37.8498 29.0001C38.4102 30.2587 38.8724 31.4949 39.2302 32.6797C39.5806 32.5639 39.916 32.442 40.2352 32.3143C41.5228 31.7993 42.4976 31.2111 43.1342 30.609C43.7686 30.009 44 29.465 44 29.0001C44 28.5353 43.7686 27.9912 43.1342 27.3912C42.4976 26.7892 41.5228 26.201 40.2352 25.686C39.916 25.5583 39.5806 25.4363 39.2302 25.3206C38.8724 26.5053 38.4102 27.7415 37.8498 29.0001ZM33.9249 35.7983C35.295 35.6543 36.5966 35.4363 37.8016 35.1539C37.8766 35.5153 37.9388 35.8667 37.9878 36.2069C38.1856 37.5795 38.1634 38.7179 37.9604 39.5701C37.758 40.4197 37.4026 40.8921 37 41.1245C36.5974 41.3569 36.0106 41.4285 35.1736 41.1791C34.334 40.9287 33.3372 40.3787 32.2475 39.5211C31.9773 39.3085 31.7039 39.0791 31.4285 38.8335C32.2756 37.9311 33.1152 36.9129 33.9249 35.7983ZM31.265 35.9797C30.8452 36.4963 30.4223 36.9815 30 37.4329C29.5776 36.9815 29.1547 36.4963 28.735 35.9795C29.1526 35.9931 29.5745 36.0001 30 36.0001C30.4255 36.0001 30.8473 35.9931 31.265 35.9797ZM23.9378 32.5001C24.1506 32.8686 24.3675 33.2305 24.5881 33.5853C23.9308 33.4801 23.299 33.3565 22.6969 33.2165C22.8767 32.625 23.0855 32.0161 23.323 31.3943C23.5201 31.7628 23.7251 32.1316 23.9378 32.5001ZM26.0751 35.7983C24.7049 35.6543 23.4033 35.4363 22.1983 35.1539C22.1233 35.5153 22.0612 35.8667 22.0122 36.2069C21.8145 37.5795 21.8365 38.7179 22.0395 39.5701C22.2419 40.4197 22.5974 40.8921 23 41.1245C23.4025 41.3569 23.9894 41.4285 24.8263 41.1791C25.6659 40.9287 26.6627 40.3787 27.7525 39.5211C28.0227 39.3085 28.296 39.0791 28.5715 38.8335C27.7243 37.9311 26.8848 36.9129 26.0751 35.7983ZM22.1501 29.0001C21.5897 30.2587 21.1276 31.4949 20.7698 32.6797C20.4194 32.5639 20.084 32.442 19.7648 32.3143C18.4773 31.7993 17.5025 31.2111 16.8659 30.609C16.2314 30.009 16 29.465 16 29.0001C16 28.5353 16.2314 27.9912 16.8659 27.3912C17.5025 26.7892 18.4773 26.201 19.7648 25.686C20.084 25.5583 20.4194 25.4363 20.7698 25.3206C21.1277 26.5053 21.5897 27.7415 22.1501 29.0001ZM23.323 26.6059C23.0855 25.9841 22.8767 25.3752 22.6969 24.7837C23.299 24.6436 23.9308 24.52 24.588 24.4148C24.3675 24.7697 24.1505 25.1316 23.9378 25.5001C23.7251 25.8686 23.5201 26.2374 23.323 26.6059ZM32.5 29.0001C32.5 30.3808 31.3807 31.5001 30 31.5001C28.6193 31.5001 27.5 30.3808 27.5 29.0001C27.5 27.6194 28.6193 26.5001 30 26.5001C31.3807 26.5001 32.5 27.6194 32.5 29.0001Z" fill="#149ECA"/>
</g>
</g>
</g>
<defs>
<filter id="filter0_dd_312_580" x="0" y="0" width="60" height="60" filterUnits="userSpaceOnUse" color-interpolation-filters="sRGB">
<feFlood flood-opacity="0" result="BackgroundImageFix"/>
<feColorMatrix in="SourceAlpha" type="matrix" values="0 0 0 0 0 0 0 0 0 0 0 0 0 0 0 0 0 0 127 0" result="hardAlpha"/>
<feOffset dy="1"/>
<feGaussianBlur stdDeviation="1"/>
<feComposite in2="hardAlpha" operator="out"/>
<feColorMatrix type="matrix" values="0 0 0 0 0 0 0 0 0 0 0 0 0 0 0 0 0 0 0.16 0"/>
<feBlend mode="normal" in2="BackgroundImageFix" result="effect1_dropShadow_312_580"/>
<feColorMatrix in="SourceAlpha" type="matrix" values="0 0 0 0 0 0 0 0 0 0 0 0 0 0 0 0 0 0 127 0" result="hardAlpha"/>
<feMorphology radius="1" operator="dilate" in="SourceAlpha" result="effect2_dropShadow_312_580"/>
<feOffset/>
<feComposite in2="hardAlpha" operator="out"/>
<feColorMatrix type="matrix" values="0 0 0 0 1 0 0 0 0 1 0 0 0 0 1 0 0 0 0.145 0"/>
<feBlend mode="normal" in2="effect1_dropShadow_312_580" result="effect2_dropShadow_312_580"/>
<feBlend mode="normal" in="SourceGraphic" in2="effect2_dropShadow_312_580" result="shape"/>
</filter>
<clipPath id="clip0_312_580">
<rect width="32" height="32" fill="white" transform="translate(14 13)"/>
</clipPath>
</defs>
</svg>
