<svg width="201" height="65" viewBox="0 0 201 65" fill="none" xmlns="http://www.w3.org/2000/svg">
<mask id="path-1-outside-1_227_265" maskUnits="userSpaceOnUse" x="0" y="15.043" width="86" height="38" fill="black">
<rect fill="white" y="15.043" width="86" height="38"/>
<path d="M20.3802 16.9961H26.5182V51.043H20.6679L20.524 47.3985C19.7888 48.7092 18.7338 49.7482 17.3591 50.5155C15.9845 51.2508 14.434 51.6184 12.7076 51.6184C10.5338 51.6184 8.6316 51.0749 7.00119 49.988C5.37078 48.9011 4.12399 47.3665 3.26083 45.3845C2.39767 43.3704 1.96609 41.0207 1.96609 38.3353C1.96609 35.6499 2.39767 33.3162 3.26083 31.3341C4.12399 29.3201 5.37078 27.7696 7.00119 26.6827C8.6316 25.5957 10.5338 25.0523 12.7076 25.0523C14.37 25.0523 15.8726 25.4199 17.2153 26.1552C18.5579 26.8585 19.6129 27.8335 20.3802 29.0803V16.9961ZM19.9965 42.747C20.5081 41.5003 20.7638 40.0297 20.7638 38.3353C20.7638 36.609 20.5081 35.1065 19.9965 33.8277C19.485 32.549 18.7498 31.5739 17.7907 30.9026C16.8636 30.1992 15.7767 29.8476 14.5299 29.8476C12.6117 29.8476 11.0932 30.6148 9.9743 32.1493C8.85539 33.6839 8.29593 35.7458 8.29593 38.3353C8.29593 40.8609 8.85539 42.8909 9.9743 44.4254C11.1252 45.9279 12.6437 46.6792 14.5299 46.6792C15.7767 46.6792 16.8636 46.3435 17.7907 45.6722C18.7498 44.9689 19.485 43.9938 19.9965 42.747ZM31.7028 38.3353C31.7028 35.6819 32.2303 33.3482 33.2852 31.3341C34.3402 29.3201 35.8108 27.7696 37.697 26.6827C39.5831 25.5957 41.789 25.0523 44.3145 25.0523C46.5523 25.0523 48.5664 25.5638 50.3566 26.5868C52.1469 27.6098 53.5695 29.1283 54.6245 31.1423C55.6795 33.1564 56.2229 35.618 56.2549 38.5271V40.0137H38.1765C38.3044 42.1236 38.8958 43.786 39.9508 45.0008C41.0377 46.1837 42.4923 46.7751 44.3145 46.7751C45.4654 46.7751 46.5204 46.4554 47.4794 45.8161C48.4385 45.1767 49.1578 44.3135 49.6373 43.2266L55.9192 43.7061C55.152 46.1038 53.7134 48.0219 51.6034 49.4605C49.4935 50.8991 47.0638 51.6184 44.3145 51.6184C41.789 51.6184 39.5831 51.0749 37.697 49.988C35.8108 48.9011 34.3402 47.3506 33.2852 45.3365C32.2303 43.3225 31.7028 40.9887 31.7028 38.3353ZM49.9251 35.9377C49.7013 33.8597 49.0779 32.3412 48.0549 31.3821C47.0319 30.3911 45.7851 29.8955 44.3145 29.8955C42.6202 29.8955 41.2455 30.423 40.1905 31.478C39.1356 32.533 38.4802 34.0195 38.2244 35.9377H49.9251ZM74.5446 51.043H67.3037L57.9527 25.6277H64.2826L70.9002 44.809L77.5177 25.6277H83.9435L74.5446 51.043Z"/>
</mask>
<path d="M20.3802 16.9961V15.9961H19.3802V16.9961H20.3802ZM26.5182 16.9961H27.5182V15.9961H26.5182V16.9961ZM26.5182 51.043V52.043H27.5182V51.043H26.5182ZM20.6679 51.043L19.6687 51.0824L19.7066 52.043H20.6679V51.043ZM20.524 47.3985L21.5233 47.3591L21.3836 43.8222L19.6519 46.9093L20.524 47.3985ZM17.3591 50.5155L17.8308 51.3973L17.8387 51.393L17.8465 51.3887L17.3591 50.5155ZM7.00119 49.988L7.55589 49.1559L7.00119 49.988ZM3.26083 45.3845L2.34167 45.7784L2.34399 45.7837L3.26083 45.3845ZM3.26083 31.3341L4.17768 31.7334L4.17997 31.7281L3.26083 31.3341ZM7.00119 26.6827L7.55589 27.5147L7.55589 27.5147L7.00119 26.6827ZM17.2153 26.1552L16.7349 27.0323L16.7431 27.0367L16.7512 27.041L17.2153 26.1552ZM20.3802 29.0803L19.5285 29.6044L21.3802 32.6134V29.0803H20.3802ZM19.9965 33.8277L20.925 33.4563L19.9965 33.8277ZM17.7907 30.9026L17.1863 31.6993L17.2016 31.7108L17.2172 31.7218L17.7907 30.9026ZM9.9743 32.1493L9.16629 31.5602L9.9743 32.1493ZM9.9743 44.4254L9.16629 45.0146L9.17324 45.0241L9.18042 45.0335L9.9743 44.4254ZM17.7907 45.6722L18.3772 46.4822L18.3821 46.4786L17.7907 45.6722ZM20.3802 17.9961H26.5182V15.9961H20.3802V17.9961ZM25.5182 16.9961V51.043H27.5182V16.9961H25.5182ZM26.5182 50.043H20.6679V52.043H26.5182V50.043ZM21.6671 51.0035L21.5233 47.3591L19.5248 47.438L19.6687 51.0824L21.6671 51.0035ZM19.6519 46.9093C19.0113 48.0511 18.0932 48.9606 16.8717 49.6423L17.8465 51.3887C19.3744 50.5359 20.5662 49.3674 21.3962 47.8878L19.6519 46.9093ZM16.8875 49.6337C15.673 50.2833 14.2874 50.6184 12.7076 50.6184V52.6184C14.5805 52.6184 16.2959 52.2182 17.8308 51.3973L16.8875 49.6337ZM12.7076 50.6184C10.7087 50.6184 9.00431 50.1216 7.55589 49.1559L6.44649 50.82C8.2589 52.0283 10.3588 52.6184 12.7076 52.6184V50.6184ZM7.55589 49.1559C6.10152 48.1864 4.97237 46.8101 4.17766 44.9852L2.34399 45.7837C3.27561 47.923 4.64003 49.6157 6.44649 50.82L7.55589 49.1559ZM4.17997 44.9906C3.38074 43.1257 2.96609 40.915 2.96609 38.3353H0.966087C0.966087 41.1264 1.41459 43.6152 2.34168 45.7784L4.17997 44.9906ZM2.96609 38.3353C2.96609 35.755 3.38093 33.563 4.17766 31.7334L2.34399 30.9349C1.41441 33.0695 0.966087 35.5448 0.966087 38.3353H2.96609ZM4.17997 31.7281C4.97606 29.8705 6.10555 28.4816 7.55589 27.5147L6.44649 25.8506C4.636 27.0576 3.27191 28.7697 2.34168 30.9402L4.17997 31.7281ZM7.55589 27.5147C9.00431 26.5491 10.7087 26.0522 12.7076 26.0522V24.0522C10.3588 24.0522 8.2589 24.6423 6.44649 25.8506L7.55589 27.5147ZM12.7076 26.0522C14.2169 26.0522 15.552 26.3845 16.7349 27.0323L17.6956 25.2781C16.1932 24.4553 14.5231 24.0522 12.7076 24.0522V26.0522ZM16.7512 27.041C17.9404 27.6639 18.859 28.5165 19.5285 29.6044L21.2318 28.5562C20.3668 27.1506 19.1755 26.0531 17.6793 25.2693L16.7512 27.041ZM21.3802 29.0803V16.9961H19.3802V29.0803H21.3802ZM20.9217 43.1266C21.4936 41.7327 21.7638 40.1276 21.7638 38.3353H19.7638C19.7638 39.9318 19.5225 41.2678 19.0714 42.3675L20.9217 43.1266ZM21.7638 38.3353C21.7638 36.5128 21.4941 34.879 20.925 33.4563L19.0681 34.1991C19.522 35.334 19.7638 36.7052 19.7638 38.3353H21.7638ZM20.925 33.4563C20.3543 32.0294 19.509 30.8847 18.3642 30.0833L17.2172 31.7218C17.9905 32.2631 18.6158 33.0685 19.0681 34.1991L20.925 33.4563ZM18.3951 30.1059C17.2813 29.261 15.9783 28.8476 14.5299 28.8476V30.8476C15.575 30.8476 16.4459 31.1375 17.1863 31.6993L18.3951 30.1059ZM14.5299 28.8476C12.296 28.8476 10.4757 29.7645 9.16629 31.5602L10.7823 32.7385C11.7107 31.4652 12.9274 30.8476 14.5299 30.8476V28.8476ZM9.16629 31.5602C7.88443 33.3182 7.29593 35.6097 7.29593 38.3353H9.29593C9.29593 35.882 9.82634 34.0496 10.7823 32.7385L9.16629 31.5602ZM7.29593 38.3353C7.29593 41.0034 7.88723 43.2604 9.16629 45.0146L10.7823 43.8362C9.82354 42.5214 9.29593 40.7183 9.29593 38.3353H7.29593ZM9.18042 45.0335C10.5198 46.7821 12.3312 47.6792 14.5299 47.6792V45.6792C12.9562 45.6792 11.7306 45.0738 10.7682 43.8173L9.18042 45.0335ZM14.5299 47.6792C15.9675 47.6792 17.2641 47.2882 18.3772 46.4821L17.2042 44.8623C16.4631 45.3989 15.5858 45.6792 14.5299 45.6792V47.6792ZM18.3821 46.4786C19.5086 45.6525 20.3499 44.5205 20.9217 43.1266L19.0714 42.3675C18.6202 43.4672 17.991 44.2853 17.1993 44.8658L18.3821 46.4786ZM33.2852 31.3341L34.1711 31.7981L33.2852 31.3341ZM37.697 26.6827L38.1963 27.5491V27.5491L37.697 26.6827ZM50.3566 26.5868L50.8528 25.7185L50.3566 26.5868ZM54.6245 31.1423L55.5103 30.6783L54.6245 31.1423ZM56.2549 38.5271H57.255L57.2548 38.5162L56.2549 38.5271ZM56.2549 40.0137V41.0137H57.2549V40.0137H56.2549ZM38.1765 40.0137V39.0137H37.114L37.1783 40.0742L38.1765 40.0137ZM39.9508 45.0008L39.1957 45.6565L39.2049 45.6671L39.2144 45.6775L39.9508 45.0008ZM49.6373 43.2266L49.7135 42.2295L49.008 42.1756L48.7224 42.8229L49.6373 43.2266ZM55.9192 43.7061L56.8717 44.0109L57.2574 42.8053L55.9953 42.709L55.9192 43.7061ZM51.6034 49.4605L52.1668 50.2867L51.6034 49.4605ZM37.697 49.988L38.1963 49.1216L37.697 49.988ZM33.2852 45.3365L32.3994 45.8005L33.2852 45.3365ZM49.9251 35.9377V36.9377H51.0385L50.9193 35.8306L49.9251 35.9377ZM48.0549 31.3821L47.3591 32.1003L47.365 32.106L47.3709 32.1116L48.0549 31.3821ZM38.2244 35.9377L37.2332 35.8055L37.0823 36.9377H38.2244V35.9377ZM32.7028 38.3353C32.7028 35.8165 33.2027 33.6468 34.1711 31.7981L32.3994 30.8701C31.2578 33.0495 30.7028 35.5473 30.7028 38.3353H32.7028ZM34.1711 31.7981C35.1421 29.9444 36.482 28.537 38.1963 27.5491L37.1977 25.8162C35.1396 27.0023 33.5383 28.6958 32.3994 30.8701L34.1711 31.7981ZM38.1963 27.5491C39.9077 26.5628 41.9359 26.0522 44.3145 26.0522V24.0522C41.6421 24.0522 39.2585 24.6286 37.1977 25.8162L38.1963 27.5491ZM44.3145 26.0522C46.3936 26.0522 48.2341 26.5256 49.8605 27.455L50.8528 25.7185C48.8987 24.6019 46.7111 24.0522 44.3145 24.0522V26.0522ZM49.8605 27.455C51.4681 28.3736 52.7629 29.7435 53.7387 31.6063L55.5103 30.6783C54.3761 28.5131 52.8257 26.8459 50.8528 25.7185L49.8605 27.455ZM53.7387 31.6063C54.7028 33.4469 55.2243 35.744 55.255 38.5381L57.2548 38.5162C57.2216 35.4919 56.6562 32.8658 55.5103 30.6783L53.7387 31.6063ZM55.2549 38.5271V40.0137H57.2549V38.5271H55.2549ZM56.2549 39.0137H38.1765V41.0137H56.2549V39.0137ZM37.1783 40.0742C37.3153 42.3349 37.9568 44.2299 39.1957 45.6565L40.7058 44.3452C39.8348 43.3421 39.2934 41.9124 39.1747 39.9532L37.1783 40.0742ZM39.2144 45.6775C40.5171 47.0951 42.2539 47.7751 44.3145 47.7751V45.7751C42.7307 45.7751 41.5583 45.2723 40.6871 44.3242L39.2144 45.6775ZM44.3145 47.7751C45.6631 47.7751 46.9111 47.3968 48.0341 46.6481L46.9247 44.984C46.1297 45.514 45.2676 45.7751 44.3145 45.7751V47.7751ZM48.0341 46.6481C49.1567 45.8998 49.9984 44.8857 50.5523 43.6302L48.7224 42.8229C48.3172 43.7413 47.7203 44.4536 46.9247 44.984L48.0341 46.6481ZM49.5612 44.2237L55.8431 44.7032L55.9953 42.709L49.7135 42.2295L49.5612 44.2237ZM54.9668 43.4013C54.2685 45.5834 52.9687 47.3193 51.0401 48.6343L52.1668 50.2867C54.458 48.7245 56.0354 46.6242 56.8717 44.0109L54.9668 43.4013ZM51.0401 48.6343C49.1091 49.9509 46.879 50.6184 44.3145 50.6184V52.6184C47.2486 52.6184 49.8779 51.8473 52.1668 50.2867L51.0401 48.6343ZM44.3145 50.6184C41.9359 50.6184 39.9077 50.1078 38.1963 49.1216L37.1977 50.8544C39.2585 52.042 41.6421 52.6184 44.3145 52.6184V50.6184ZM38.1963 49.1216C36.482 48.1337 35.1421 46.7263 34.1711 44.8725L32.3994 45.8005C33.5383 47.9748 35.1396 49.6684 37.1977 50.8544L38.1963 49.1216ZM34.1711 44.8725C33.2027 43.0238 32.7028 40.8542 32.7028 38.3353H30.7028C30.7028 41.1233 31.2578 43.6211 32.3994 45.8005L34.1711 44.8725ZM50.9193 35.8306C50.6821 33.6278 50.0046 31.8392 48.7388 30.6526L47.3709 32.1116C48.1512 32.8431 48.7205 34.0916 48.9308 36.0447L50.9193 35.8306ZM48.7507 30.6639C47.5345 29.4857 46.0354 28.8955 44.3145 28.8955V30.8955C45.5347 30.8955 46.5293 31.2964 47.3591 32.1003L48.7507 30.6639ZM44.3145 28.8955C42.3941 28.8955 40.7519 29.5024 39.4834 30.7709L40.8976 32.1851C41.7391 31.3437 42.8462 30.8955 44.3145 30.8955V28.8955ZM39.4834 30.7709C38.2325 32.0218 37.5093 33.7347 37.2332 35.8055L39.2157 36.0698C39.4511 34.3044 40.0386 33.0441 40.8976 32.1851L39.4834 30.7709ZM38.2244 36.9377H49.9251V34.9377H38.2244V36.9377ZM74.5446 51.043V52.043H75.241L75.4825 51.3898L74.5446 51.043ZM67.3036 51.043L66.3652 51.3883L66.606 52.043H67.3036V51.043ZM57.9527 25.6277V24.6277H56.5193L57.0143 25.973L57.9527 25.6277ZM64.2826 25.6277L65.2279 25.3016L64.9954 24.6277H64.2826V25.6277ZM70.9002 44.809L69.9548 45.1352L70.9002 47.8752L71.8455 45.1352L70.9002 44.809ZM77.5177 25.6277V24.6277H76.8049L76.5724 25.3016L77.5177 25.6277ZM83.9435 25.6277L84.8814 25.9745L85.3795 24.6277H83.9435V25.6277ZM74.5446 50.043H67.3036V52.043H74.5446V50.043ZM68.2421 50.6977L58.8912 25.2824L57.0143 25.973L66.3652 51.3883L68.2421 50.6977ZM57.9527 26.6277H64.2826V24.6277H57.9527V26.6277ZM63.3373 25.9538L69.9548 45.1352L71.8455 44.4829L65.2279 25.3016L63.3373 25.9538ZM71.8455 45.1352L78.463 25.9538L76.5724 25.3016L69.9548 44.4829L71.8455 45.1352ZM77.5177 26.6277H83.9435V24.6277H77.5177V26.6277ZM83.0055 25.2808L73.6067 50.6961L75.4825 51.3898L84.8814 25.9745L83.0055 25.2808Z" fill="black" mask="url(#path-1-outside-1_227_265)"/>
<path d="M108.3 10.5896C107.818 9.57389 106.373 9.57386 105.891 10.5896L87.358 49.6479C86.9382 50.5325 87.5834 51.5528 88.5626 51.5528H125.628C126.607 51.5528 127.252 50.5325 126.832 49.6479L108.3 10.5896Z" stroke="#111111" stroke-width="1.90476"/>
<path d="M97.9152 42.2318L98.7696 42.6372L97.9152 42.2318C97.4955 43.1164 98.1406 44.1367 99.1198 44.1367H115.071C116.05 44.1367 116.695 43.1164 116.275 42.2318L108.3 25.424C107.818 24.4083 106.373 24.4083 105.891 25.424L97.9152 42.2318Z" fill="black" stroke="black" stroke-width="1.90476"/>
<path opacity="0.9" d="M98.794 0.0213077L97.9307 0.884521L115.198 18.1487L116.061 17.2855L98.794 0.0213077Z" fill="url(#paint0_linear_227_265)"/>
<path opacity="0.9" d="M98.794 18.1491L97.9307 17.2859L115.198 0.0216905L116.061 0.884904L98.794 18.1491Z" fill="url(#paint1_linear_227_265)"/>
<path d="M106.995 10.3051C107.67 10.3051 108.216 9.75851 108.216 9.0843C108.216 8.41009 107.67 7.86353 106.995 7.86353C106.321 7.86353 105.774 8.41009 105.774 9.0843C105.774 9.75851 106.321 10.3051 106.995 10.3051Z" fill="black"/>
<mask id="path-8-outside-2_227_265" maskUnits="userSpaceOnUse" x="131.19" y="15.043" width="69" height="38" fill="black">
<rect fill="white" x="131.19" y="15.043" width="69" height="38"/>
<path d="M138.685 16.9961V44.4254C138.685 45.0008 138.845 45.4644 139.165 45.8161C139.516 46.1357 139.98 46.2956 140.555 46.2956H142.474V51.043H138.973C137.023 51.043 135.456 50.4835 134.273 49.3646C133.123 48.2137 132.547 46.6472 132.547 44.6652V16.9961H138.685ZM145.814 38.3353C145.814 35.6819 146.342 33.3482 147.397 31.3341C148.452 29.3201 149.922 27.7696 151.808 26.6827C153.694 25.5957 155.9 25.0523 158.426 25.0523C160.664 25.0523 162.678 25.5638 164.468 26.5868C166.258 27.6098 167.681 29.1283 168.736 31.1423C169.791 33.1564 170.334 35.618 170.366 38.5271V40.0137H152.288C152.416 42.1236 153.007 43.786 154.062 45.0008C155.149 46.1837 156.604 46.7751 158.426 46.7751C159.577 46.7751 160.632 46.4554 161.591 45.8161C162.55 45.1767 163.269 44.3135 163.749 43.2266L170.031 43.7061C169.263 46.1038 167.825 48.0219 165.715 49.4605C163.605 50.8991 161.175 51.6184 158.426 51.6184C155.9 51.6184 153.694 51.0749 151.808 49.988C149.922 48.9011 148.452 47.3506 147.397 45.3365C146.342 43.3225 145.814 40.9887 145.814 38.3353ZM164.036 35.9377C163.813 33.8597 163.189 32.3412 162.166 31.3821C161.143 30.3911 159.896 29.8955 158.426 29.8955C156.732 29.8955 155.357 30.423 154.302 31.478C153.247 32.533 152.592 34.0195 152.336 35.9377H164.036ZM197.131 25.6277L188.259 38.0956L197.466 51.043H190.561L184.663 42.2196L178.717 51.043H171.811L181.018 38.0956L172.147 25.6277H179.052L184.663 33.9716L190.273 25.6277H197.131Z"/>
</mask>
<path d="M138.685 16.9961H139.685V15.9961H138.685V16.9961ZM139.165 45.8161L138.425 46.4887L138.457 46.524L138.492 46.556L139.165 45.8161ZM142.474 46.2956H143.474V45.2956H142.474V46.2956ZM142.474 51.043V52.043H143.474V51.043H142.474ZM134.273 49.3646L133.566 50.0717L133.576 50.0815L133.586 50.0911L134.273 49.3646ZM132.547 16.9961V15.9961H131.547V16.9961H132.547ZM137.685 16.9961V44.4254H139.685V16.9961H137.685ZM137.685 44.4254C137.685 45.1944 137.904 45.9159 138.425 46.4887L139.905 45.1434C139.786 45.0129 139.685 44.8073 139.685 44.4254H137.685ZM138.492 46.556C139.065 47.0768 139.786 47.2956 140.555 47.2956V45.2956C140.174 45.2956 139.968 45.1947 139.837 45.0761L138.492 46.556ZM140.555 47.2956H142.474V45.2956H140.555V47.2956ZM141.474 46.2956V51.043H143.474V46.2956H141.474ZM142.474 50.043H138.973V52.043H142.474V50.043ZM138.973 50.043C137.225 50.043 135.922 49.5477 134.961 48.6381L133.586 50.0911C134.99 51.4193 136.821 52.043 138.973 52.043V50.043ZM134.981 48.6575C134.057 47.7336 133.547 46.4436 133.547 44.6652H131.547C131.547 46.8509 132.189 48.6939 133.566 50.0717L134.981 48.6575ZM133.547 44.6652V16.9961H131.547V44.6652H133.547ZM132.547 17.9961H138.685V15.9961H132.547V17.9961ZM147.397 31.3341L148.282 31.7981L147.397 31.3341ZM151.808 26.6827L152.308 27.5491V27.5491L151.808 26.6827ZM164.468 26.5868L164.964 25.7185L164.468 26.5868ZM168.736 31.1423L169.622 30.6783L168.736 31.1423ZM170.366 38.5271H171.366L171.366 38.5162L170.366 38.5271ZM170.366 40.0137V41.0137H171.366V40.0137H170.366ZM152.288 40.0137V39.0137H151.225L151.29 40.0742L152.288 40.0137ZM154.062 45.0008L153.307 45.6565L153.316 45.6671L153.326 45.6775L154.062 45.0008ZM163.749 43.2266L163.825 42.2295L163.119 42.1756L162.834 42.8229L163.749 43.2266ZM170.031 43.7061L170.983 44.0109L171.369 42.8053L170.107 42.709L170.031 43.7061ZM165.715 49.4605L166.278 50.2867L165.715 49.4605ZM151.808 49.988L152.308 49.1216L151.808 49.988ZM147.397 45.3365L146.511 45.8005L147.397 45.3365ZM164.036 35.9377V36.9377H165.15L165.031 35.8306L164.036 35.9377ZM162.166 31.3821L161.47 32.1003L161.476 32.106L161.482 32.1116L162.166 31.3821ZM152.336 35.9377L151.345 35.8055L151.194 36.9377H152.336V35.9377ZM146.814 38.3353C146.814 35.8165 147.314 33.6468 148.282 31.7981L146.511 30.8701C145.369 33.0495 144.814 35.5473 144.814 38.3353H146.814ZM148.282 31.7981C149.253 29.9444 150.593 28.537 152.308 27.5491L151.309 25.8162C149.251 27.0023 147.65 28.6958 146.511 30.8701L148.282 31.7981ZM152.308 27.5491C154.019 26.5628 156.047 26.0522 158.426 26.0522V24.0522C155.753 24.0522 153.37 24.6286 151.309 25.8162L152.308 27.5491ZM158.426 26.0522C160.505 26.0522 162.345 26.5256 163.972 27.455L164.964 25.7185C163.01 24.6019 160.822 24.0522 158.426 24.0522V26.0522ZM163.972 27.455C165.579 28.3736 166.874 29.7435 167.85 31.6063L169.622 30.6783C168.487 28.5131 166.937 26.8459 164.964 25.7185L163.972 27.455ZM167.85 31.6063C168.814 33.4469 169.336 35.744 169.366 38.5381L171.366 38.5162C171.333 35.4919 170.768 32.8658 169.622 30.6783L167.85 31.6063ZM169.366 38.5271V40.0137H171.366V38.5271H169.366ZM170.366 39.0137H152.288V41.0137H170.366V39.0137ZM151.29 40.0742C151.427 42.3349 152.068 44.2299 153.307 45.6565L154.817 44.3452C153.946 43.3421 153.405 41.9124 153.286 39.9532L151.29 40.0742ZM153.326 45.6775C154.628 47.0951 156.365 47.7751 158.426 47.7751V45.7751C156.842 45.7751 155.67 45.2723 154.798 44.3242L153.326 45.6775ZM158.426 47.7751C159.774 47.7751 161.022 47.3968 162.145 46.6481L161.036 44.984C160.241 45.514 159.379 45.7751 158.426 45.7751V47.7751ZM162.145 46.6481C163.268 45.8998 164.11 44.8857 164.664 43.6302L162.834 42.8229C162.429 43.7413 161.832 44.4536 161.036 44.984L162.145 46.6481ZM163.673 44.2237L169.954 44.7032L170.107 42.709L163.825 42.2295L163.673 44.2237ZM169.078 43.4013C168.38 45.5834 167.08 47.3193 165.151 48.6343L166.278 50.2867C168.569 48.7245 170.147 46.6242 170.983 44.0109L169.078 43.4013ZM165.151 48.6343C163.22 49.9509 160.99 50.6184 158.426 50.6184V52.6184C161.36 52.6184 163.989 51.8473 166.278 50.2867L165.151 48.6343ZM158.426 50.6184C156.047 50.6184 154.019 50.1078 152.308 49.1216L151.309 50.8544C153.37 52.042 155.753 52.6184 158.426 52.6184V50.6184ZM152.308 49.1216C150.593 48.1337 149.253 46.7263 148.282 44.8725L146.511 45.8005C147.65 47.9748 149.251 49.6684 151.309 50.8544L152.308 49.1216ZM148.282 44.8725C147.314 43.0238 146.814 40.8542 146.814 38.3353H144.814C144.814 41.1233 145.369 43.6211 146.511 45.8005L148.282 44.8725ZM165.031 35.8306C164.793 33.6278 164.116 31.8392 162.85 30.6526L161.482 32.1116C162.263 32.8431 162.832 34.0916 163.042 36.0447L165.031 35.8306ZM162.862 30.6639C161.646 29.4857 160.147 28.8955 158.426 28.8955V30.8955C159.646 30.8955 160.641 31.2964 161.47 32.1003L162.862 30.6639ZM158.426 28.8955C156.505 28.8955 154.863 29.5024 153.595 30.7709L155.009 32.1851C155.85 31.3437 156.958 30.8955 158.426 30.8955V28.8955ZM153.595 30.7709C152.344 32.0218 151.621 33.7347 151.345 35.8055L153.327 36.0698C153.562 34.3044 154.15 33.0441 155.009 32.1851L153.595 30.7709ZM152.336 36.9377H164.036V34.9377H152.336V36.9377ZM197.131 25.6277L197.945 26.2074L199.069 24.6277H197.131V25.6277ZM188.259 38.0956L187.444 37.5158L187.032 38.0954L187.444 38.6751L188.259 38.0956ZM197.466 51.043V52.043H199.404L198.281 50.4634L197.466 51.043ZM190.561 51.043L189.73 51.5987L190.027 52.043H190.561V51.043ZM184.663 42.2196L185.494 41.6638L184.666 40.4252L183.833 41.6607L184.663 42.2196ZM178.717 51.043V52.043H179.248L179.546 51.6018L178.717 51.043ZM171.811 51.043L170.996 50.4634L169.873 52.043H171.811V51.043ZM181.018 38.0956L181.833 38.6751L182.245 38.0954L181.833 37.5158L181.018 38.0956ZM172.147 25.6277V24.6277H170.208L171.332 26.2074L172.147 25.6277ZM179.052 25.6277L179.882 25.0697L179.585 24.6277H179.052V25.6277ZM184.663 33.9716L183.833 34.5296L184.663 35.7637L185.493 34.5296L184.663 33.9716ZM190.273 25.6277V24.6277H189.741L189.443 25.0697L190.273 25.6277ZM196.316 25.0479L187.444 37.5158L189.074 38.6753L197.945 26.2074L196.316 25.0479ZM187.444 38.6751L196.651 51.6225L198.281 50.4634L189.074 37.516L187.444 38.6751ZM197.466 50.043H190.561V52.043H197.466V50.043ZM191.392 50.4872L185.494 41.6638L183.831 42.7753L189.73 51.5987L191.392 50.4872ZM183.833 41.6607L177.887 50.4841L179.546 51.6018L185.492 42.7784L183.833 41.6607ZM178.717 50.043H171.811V52.043H178.717V50.043ZM172.626 51.6225L181.833 38.6751L180.203 37.516L170.996 50.4634L172.626 51.6225ZM181.833 37.5158L172.962 25.0479L171.332 26.2074L180.203 38.6753L181.833 37.5158ZM172.147 26.6277H179.052V24.6277H172.147V26.6277ZM178.222 26.1857L183.833 34.5296L185.493 33.4136L179.882 25.0697L178.222 26.1857ZM185.493 34.5296L191.103 26.1857L189.443 25.0697L183.833 33.4136L185.493 34.5296ZM190.273 26.6277H197.131V24.6277H190.273V26.6277Z" fill="black" mask="url(#path-8-outside-2_227_265)"/>
<defs>
<linearGradient id="paint0_linear_227_265" x1="98.3623" y1="0.452916" x2="115.627" y2="17.7199" gradientUnits="userSpaceOnUse">
<stop stop-color="#7B7B7B" stop-opacity="0"/>
<stop offset="0.5"/>
<stop offset="1" stop-color="#757575" stop-opacity="0"/>
</linearGradient>
<linearGradient id="paint1_linear_227_265" x1="98.3623" y1="17.7175" x2="115.627" y2="0.450538" gradientUnits="userSpaceOnUse">
<stop stop-color="#6F6F6F" stop-opacity="0"/>
<stop offset="0.5"/>
<stop offset="1" stop-color="#646464" stop-opacity="0"/>
</linearGradient>
</defs>
</svg>
