<svg width="201" height="65" viewBox="0 0 201 65" fill="none" xmlns="http://www.w3.org/2000/svg">
<mask id="path-1-outside-1_97_2296" maskUnits="userSpaceOnUse" x="0" y="15.0215" width="86" height="38" fill="black">
<rect fill="white" y="15.0215" width="86" height="38"/>
<path d="M20.3802 16.9746H26.5182V51.0215H20.6679L20.524 47.377C19.7888 48.6878 18.7338 49.7267 17.3591 50.494C15.9845 51.2293 14.434 51.5969 12.7076 51.5969C10.5338 51.5969 8.6316 51.0535 7.00119 49.9665C5.37078 48.8796 4.12399 47.3451 3.26083 45.363C2.39767 43.3489 1.96609 40.9992 1.96609 38.3138C1.96609 35.6285 2.39767 33.2947 3.26083 31.3127C4.12399 29.2986 5.37078 27.7481 7.00119 26.6612C8.6316 25.5742 10.5338 25.0308 12.7076 25.0308C14.37 25.0308 15.8726 25.3984 17.2153 26.1337C18.5579 26.837 19.6129 27.8121 20.3802 29.0588V16.9746ZM19.9965 42.7256C20.5081 41.4788 20.7638 40.0082 20.7638 38.3138C20.7638 36.5875 20.5081 35.085 19.9965 33.8062C19.485 32.5275 18.7498 31.5524 17.7907 30.8811C16.8636 30.1778 15.7767 29.8261 14.5299 29.8261C12.6117 29.8261 11.0932 30.5934 9.9743 32.1279C8.85539 33.6624 8.29593 35.7244 8.29593 38.3138C8.29593 40.8394 8.85539 42.8694 9.9743 44.4039C11.1252 45.9065 12.6437 46.6577 14.5299 46.6577C15.7767 46.6577 16.8636 46.3221 17.7907 45.6507C18.7498 44.9474 19.485 43.9723 19.9965 42.7256ZM31.7028 38.3138C31.7028 35.6604 32.2303 33.3267 33.2852 31.3127C34.3402 29.2986 35.8108 27.7481 37.697 26.6612C39.5831 25.5742 41.789 25.0308 44.3145 25.0308C46.5523 25.0308 48.5664 25.5423 50.3566 26.5653C52.1469 27.5883 53.5695 29.1068 54.6245 31.1208C55.6795 33.1349 56.2229 35.5965 56.2549 38.5057V39.9922H38.1765C38.3044 42.1022 38.8958 43.7645 39.9508 44.9794C41.0377 46.1622 42.4923 46.7536 44.3145 46.7536C45.4654 46.7536 46.5204 46.4339 47.4794 45.7946C48.4385 45.1552 49.1578 44.292 49.6373 43.2051L55.9192 43.6846C55.152 46.0823 53.7134 48.0004 51.6034 49.439C49.4935 50.8776 47.0638 51.5969 44.3145 51.5969C41.789 51.5969 39.5831 51.0535 37.697 49.9665C35.8108 48.8796 34.3402 47.3291 33.2852 45.315C32.2303 43.301 31.7028 40.9673 31.7028 38.3138ZM49.9251 35.9162C49.7013 33.8382 49.0779 32.3197 48.0549 31.3606C47.0319 30.3696 45.7851 29.8741 44.3145 29.8741C42.6202 29.8741 41.2455 30.4015 40.1905 31.4565C39.1356 32.5115 38.4802 33.998 38.2244 35.9162H49.9251ZM74.5446 51.0215H67.3037L57.9527 25.6062H64.2826L70.9002 44.7875L77.5177 25.6062H83.9435L74.5446 51.0215Z"/>
</mask>
<path d="M20.3802 16.9746V15.9746H19.3802V16.9746H20.3802ZM26.5182 16.9746H27.5182V15.9746H26.5182V16.9746ZM26.5182 51.0215V52.0215H27.5182V51.0215H26.5182ZM20.6679 51.0215L19.6687 51.0609L19.7066 52.0215H20.6679V51.0215ZM20.524 47.377L21.5233 47.3376L21.3836 43.8007L19.6519 46.8878L20.524 47.377ZM17.3591 50.494L17.8308 51.3758L17.8387 51.3716L17.8465 51.3672L17.3591 50.494ZM7.00119 49.9665L7.55589 49.1345L7.00119 49.9665ZM3.26083 45.363L2.34167 45.7569L2.34399 45.7623L3.26083 45.363ZM3.26083 31.3127L4.17768 31.7119L4.17997 31.7066L3.26083 31.3127ZM7.00119 26.6612L7.55589 27.4932L7.55589 27.4932L7.00119 26.6612ZM17.2153 26.1337L16.7349 27.0108L16.7431 27.0152L16.7512 27.0195L17.2153 26.1337ZM20.3802 29.0588L19.5285 29.5829L21.3802 32.5919V29.0588H20.3802ZM19.9965 33.8062L20.925 33.4348L19.9965 33.8062ZM17.7907 30.8811L17.1863 31.6778L17.2016 31.6893L17.2172 31.7003L17.7907 30.8811ZM9.9743 32.1279L9.16629 31.5387L9.9743 32.1279ZM9.9743 44.4039L9.16629 44.9931L9.17324 45.0026L9.18042 45.012L9.9743 44.4039ZM17.7907 45.6507L18.3772 46.4607L18.3821 46.4571L17.7907 45.6507ZM20.3802 17.9746H26.5182V15.9746H20.3802V17.9746ZM25.5182 16.9746V51.0215H27.5182V16.9746H25.5182ZM26.5182 50.0215H20.6679V52.0215H26.5182V50.0215ZM21.6671 50.982L21.5233 47.3376L19.5248 47.4165L19.6687 51.0609L21.6671 50.982ZM19.6519 46.8878C19.0113 48.0296 18.0932 48.9391 16.8717 49.6208L17.8465 51.3672C19.3744 50.5144 20.5662 49.3459 21.3962 47.8663L19.6519 46.8878ZM16.8875 49.6122C15.673 50.2618 14.2874 50.5969 12.7076 50.5969V52.5969C14.5805 52.5969 16.2959 52.1967 17.8308 51.3758L16.8875 49.6122ZM12.7076 50.5969C10.7087 50.5969 9.00431 50.1001 7.55589 49.1345L6.44649 50.7986C8.2589 52.0068 10.3588 52.5969 12.7076 52.5969V50.5969ZM7.55589 49.1345C6.10152 48.1649 4.97237 46.7886 4.17766 44.9637L2.34399 45.7623C3.27561 47.9015 4.64003 49.5943 6.44649 50.7986L7.55589 49.1345ZM4.17997 44.9691C3.38074 43.1042 2.96609 40.8935 2.96609 38.3138H0.966087C0.966087 41.1049 1.41459 43.5937 2.34168 45.7569L4.17997 44.9691ZM2.96609 38.3138C2.96609 35.7336 3.38093 33.5415 4.17766 31.7119L2.34399 30.9134C1.41441 33.048 0.966087 35.5234 0.966087 38.3138H2.96609ZM4.17997 31.7066C4.97606 29.849 6.10555 28.4601 7.55589 27.4932L6.44649 25.8291C4.636 27.0361 3.27191 28.7482 2.34168 30.9187L4.17997 31.7066ZM7.55589 27.4932C9.00431 26.5276 10.7087 26.0308 12.7076 26.0308V24.0308C10.3588 24.0308 8.2589 24.6209 6.44649 25.8291L7.55589 27.4932ZM12.7076 26.0308C14.2169 26.0308 15.552 26.363 16.7349 27.0108L17.6956 25.2566C16.1932 24.4339 14.5231 24.0308 12.7076 24.0308V26.0308ZM16.7512 27.0195C17.9404 27.6424 18.859 28.495 19.5285 29.5829L21.2318 28.5347C20.3668 27.1291 19.1755 26.0316 17.6793 25.2479L16.7512 27.0195ZM21.3802 29.0588V16.9746H19.3802V29.0588H21.3802ZM20.9217 43.1051C21.4936 41.7112 21.7638 40.1061 21.7638 38.3138H19.7638C19.7638 39.9103 19.5225 41.2463 19.0714 42.346L20.9217 43.1051ZM21.7638 38.3138C21.7638 36.4914 21.4941 34.8575 20.925 33.4348L19.0681 34.1776C19.522 35.3125 19.7638 36.6837 19.7638 38.3138H21.7638ZM20.925 33.4348C20.3543 32.0079 19.509 30.8633 18.3642 30.0618L17.2172 31.7003C17.9905 32.2416 18.6158 33.047 19.0681 34.1776L20.925 33.4348ZM18.3951 30.0844C17.2813 29.2395 15.9783 28.8261 14.5299 28.8261V30.8261C15.575 30.8261 16.4459 31.116 17.1863 31.6778L18.3951 30.0844ZM14.5299 28.8261C12.296 28.8261 10.4757 29.743 9.16629 31.5387L10.7823 32.717C11.7107 31.4437 12.9274 30.8261 14.5299 30.8261V28.8261ZM9.16629 31.5387C7.88443 33.2967 7.29593 35.5882 7.29593 38.3138H9.29593C9.29593 35.8605 9.82634 34.0281 10.7823 32.717L9.16629 31.5387ZM7.29593 38.3138C7.29593 40.982 7.88723 43.239 9.16629 44.9931L10.7823 43.8148C9.82354 42.4999 9.29593 40.6968 9.29593 38.3138H7.29593ZM9.18042 45.012C10.5198 46.7606 12.3312 47.6577 14.5299 47.6577V45.6577C12.9562 45.6577 11.7306 45.0523 10.7682 43.7958L9.18042 45.012ZM14.5299 47.6577C15.9675 47.6577 17.2641 47.2667 18.3772 46.4607L17.2042 44.8408C16.4631 45.3774 15.5858 45.6577 14.5299 45.6577V47.6577ZM18.3821 46.4571C19.5086 45.631 20.3499 44.499 20.9217 43.1051L19.0714 42.346C18.6202 43.4457 17.991 44.2638 17.1993 44.8443L18.3821 46.4571ZM33.2852 31.3127L34.1711 31.7767L33.2852 31.3127ZM37.697 26.6612L38.1963 27.5276V27.5276L37.697 26.6612ZM50.3566 26.5653L50.8528 25.697L50.3566 26.5653ZM54.6245 31.1208L55.5103 30.6568L54.6245 31.1208ZM56.2549 38.5057H57.255L57.2548 38.4947L56.2549 38.5057ZM56.2549 39.9922V40.9922H57.2549V39.9922H56.2549ZM38.1765 39.9922V38.9922H37.114L37.1783 40.0527L38.1765 39.9922ZM39.9508 44.9794L39.1957 45.635L39.2049 45.6456L39.2144 45.656L39.9508 44.9794ZM49.6373 43.2051L49.7135 42.208L49.008 42.1541L48.7224 42.8014L49.6373 43.2051ZM55.9192 43.6846L56.8717 43.9894L57.2574 42.7839L55.9953 42.6875L55.9192 43.6846ZM51.6034 49.439L52.1668 50.2653L51.6034 49.439ZM37.697 49.9665L38.1963 49.1001L37.697 49.9665ZM33.2852 45.315L32.3994 45.779L33.2852 45.315ZM49.9251 35.9162V36.9162H51.0385L50.9193 35.8091L49.9251 35.9162ZM48.0549 31.3606L47.3591 32.0788L47.365 32.0845L47.3709 32.0901L48.0549 31.3606ZM38.2244 35.9162L37.2332 35.784L37.0823 36.9162H38.2244V35.9162ZM32.7028 38.3138C32.7028 35.795 33.2027 33.6254 34.1711 31.7767L32.3994 30.8486C31.2578 33.028 30.7028 35.5258 30.7028 38.3138H32.7028ZM34.1711 31.7767C35.1421 29.9229 36.482 28.5155 38.1963 27.5276L37.1977 25.7948C35.1396 26.9808 33.5383 28.6744 32.3994 30.8486L34.1711 31.7767ZM38.1963 27.5276C39.9077 26.5413 41.9359 26.0308 44.3145 26.0308V24.0308C41.6421 24.0308 39.2585 24.6071 37.1977 25.7948L38.1963 27.5276ZM44.3145 26.0308C46.3936 26.0308 48.2341 26.5041 49.8605 27.4335L50.8528 25.697C48.8987 24.5804 46.7111 24.0308 44.3145 24.0308V26.0308ZM49.8605 27.4335C51.4681 28.3522 52.7629 29.722 53.7387 31.5849L55.5103 30.6568C54.3761 28.4916 52.8257 26.8244 50.8528 25.697L49.8605 27.4335ZM53.7387 31.5849C54.7028 33.4254 55.2243 35.7225 55.255 38.5166L57.2548 38.4947C57.2216 35.4705 56.6562 32.8443 55.5103 30.6568L53.7387 31.5849ZM55.2549 38.5057V39.9922H57.2549V38.5057H55.2549ZM56.2549 38.9922H38.1765V40.9922H56.2549V38.9922ZM37.1783 40.0527C37.3153 42.3134 37.9568 44.2084 39.1957 45.635L40.7058 44.3237C39.8348 43.3207 39.2934 41.8909 39.1747 39.9317L37.1783 40.0527ZM39.2144 45.656C40.5171 47.0736 42.2539 47.7536 44.3145 47.7536V45.7536C42.7307 45.7536 41.5583 45.2508 40.6871 44.3027L39.2144 45.656ZM44.3145 47.7536C45.6631 47.7536 46.9111 47.3753 48.0341 46.6266L46.9247 44.9625C46.1297 45.4926 45.2676 45.7536 44.3145 45.7536V47.7536ZM48.0341 46.6266C49.1567 45.8783 49.9984 44.8642 50.5523 43.6087L48.7224 42.8014C48.3172 43.7198 47.7203 44.4321 46.9247 44.9625L48.0341 46.6266ZM49.5612 44.2022L55.8431 44.6817L55.9953 42.6875L49.7135 42.208L49.5612 44.2022ZM54.9668 43.3798C54.2685 45.5619 52.9687 47.2978 51.0401 48.6128L52.1668 50.2653C54.458 48.703 56.0354 46.6027 56.8717 43.9894L54.9668 43.3798ZM51.0401 48.6128C49.1091 49.9294 46.879 50.5969 44.3145 50.5969V52.5969C47.2486 52.5969 49.8779 51.8258 52.1668 50.2653L51.0401 48.6128ZM44.3145 50.5969C41.9359 50.5969 39.9077 50.0864 38.1963 49.1001L37.1977 50.8329C39.2585 52.0205 41.6421 52.5969 44.3145 52.5969V50.5969ZM38.1963 49.1001C36.482 48.1122 35.1421 46.7048 34.1711 44.851L32.3994 45.779C33.5383 47.9533 35.1396 49.6469 37.1977 50.8329L38.1963 49.1001ZM34.1711 44.851C33.2027 43.0023 32.7028 40.8327 32.7028 38.3138H30.7028C30.7028 41.1018 31.2578 43.5997 32.3994 45.779L34.1711 44.851ZM50.9193 35.8091C50.6821 33.6063 50.0046 31.8177 48.7388 30.6311L47.3709 32.0901C48.1512 32.8217 48.7205 34.0701 48.9308 36.0233L50.9193 35.8091ZM48.7507 30.6424C47.5345 29.4642 46.0354 28.8741 44.3145 28.8741V30.8741C45.5347 30.8741 46.5293 31.275 47.3591 32.0788L48.7507 30.6424ZM44.3145 28.8741C42.3941 28.8741 40.7519 29.4809 39.4834 30.7494L40.8976 32.1636C41.7391 31.3222 42.8462 30.8741 44.3145 30.8741V28.8741ZM39.4834 30.7494C38.2325 32.0004 37.5093 33.7132 37.2332 35.784L39.2157 36.0483C39.4511 34.2829 40.0386 33.0226 40.8976 32.1636L39.4834 30.7494ZM38.2244 36.9162H49.9251V34.9162H38.2244V36.9162ZM74.5446 51.0215V52.0215H75.241L75.4825 51.3683L74.5446 51.0215ZM67.3036 51.0215L66.3652 51.3668L66.606 52.0215H67.3036V51.0215ZM57.9527 25.6062V24.6062H56.5193L57.0143 25.9515L57.9527 25.6062ZM64.2826 25.6062L65.2279 25.2801L64.9954 24.6062H64.2826V25.6062ZM70.9002 44.7875L69.9548 45.1137L70.9002 47.8538L71.8455 45.1137L70.9002 44.7875ZM77.5177 25.6062V24.6062H76.8049L76.5724 25.2801L77.5177 25.6062ZM83.9435 25.6062L84.8814 25.9531L85.3795 24.6062H83.9435V25.6062ZM74.5446 50.0215H67.3036V52.0215H74.5446V50.0215ZM68.2421 50.6762L58.8912 25.2609L57.0143 25.9515L66.3652 51.3668L68.2421 50.6762ZM57.9527 26.6062H64.2826V24.6062H57.9527V26.6062ZM63.3373 25.9323L69.9548 45.1137L71.8455 44.4614L65.2279 25.2801L63.3373 25.9323ZM71.8455 45.1137L78.463 25.9323L76.5724 25.2801L69.9548 44.4614L71.8455 45.1137ZM77.5177 26.6062H83.9435V24.6062H77.5177V26.6062ZM83.0055 25.2594L73.6067 50.6746L75.4825 51.3683L84.8814 25.9531L83.0055 25.2594Z" fill="#888888" mask="url(#path-1-outside-1_97_2296)"/>
<path d="M108.3 10.5681C107.818 9.5524 106.373 9.55238 105.891 10.5681L87.358 49.6264C86.9382 50.511 87.5834 51.5313 88.5626 51.5313H125.628C126.607 51.5313 127.252 50.511 126.832 49.6264L108.3 10.5681Z" stroke="#888888" stroke-width="1.90476"/>
<path d="M97.9152 42.2098L98.7696 42.6152L97.9152 42.2098C97.4955 43.0945 98.1406 44.1147 99.1198 44.1147H115.071C116.05 44.1147 116.695 43.0945 116.275 42.2098L108.3 25.402C107.818 24.3863 106.373 24.3864 105.891 25.402L97.9152 42.2098Z" fill="white" stroke="white" stroke-width="1.90476"/>
<path opacity="0.9" d="M98.7936 6.74327e-05L97.9303 0.863281L115.197 18.1275L116.061 17.2643L98.7936 6.74327e-05Z" fill="url(#paint0_linear_97_2296)"/>
<path opacity="0.9" d="M98.7936 18.1279L97.9303 17.2646L115.197 0.00045031L116.061 0.863664L98.7936 18.1279Z" fill="url(#paint1_linear_97_2296)"/>
<path d="M106.995 10.2833C107.669 10.2833 108.216 9.73678 108.216 9.06257C108.216 8.38836 107.669 7.8418 106.995 7.8418C106.321 7.8418 105.774 8.38836 105.774 9.06257C105.774 9.73678 106.321 10.2833 106.995 10.2833Z" fill="white"/>
<mask id="path-8-outside-2_97_2296" maskUnits="userSpaceOnUse" x="131.19" y="15.0215" width="69" height="38" fill="black">
<rect fill="white" x="131.19" y="15.0215" width="69" height="38"/>
<path d="M138.685 16.9746V44.4039C138.685 44.9794 138.845 45.4429 139.165 45.7946C139.516 46.1143 139.98 46.2741 140.555 46.2741H142.474V51.0215H138.973C137.023 51.0215 135.456 50.462 134.273 49.3431C133.123 48.1922 132.547 46.6258 132.547 44.6437V16.9746H138.685ZM145.814 38.3138C145.814 35.6604 146.342 33.3267 147.397 31.3127C148.452 29.2986 149.922 27.7481 151.808 26.6612C153.694 25.5742 155.9 25.0308 158.426 25.0308C160.664 25.0308 162.678 25.5423 164.468 26.5653C166.258 27.5883 167.681 29.1068 168.736 31.1208C169.791 33.1349 170.334 35.5965 170.366 38.5057V39.9922H152.288C152.416 42.1022 153.007 43.7645 154.062 44.9794C155.149 46.1622 156.604 46.7536 158.426 46.7536C159.577 46.7536 160.632 46.4339 161.591 45.7946C162.55 45.1552 163.269 44.292 163.749 43.2051L170.031 43.6846C169.263 46.0823 167.825 48.0004 165.715 49.439C163.605 50.8776 161.175 51.5969 158.426 51.5969C155.9 51.5969 153.694 51.0535 151.808 49.9665C149.922 48.8796 148.452 47.3291 147.397 45.315C146.342 43.301 145.814 40.9673 145.814 38.3138ZM164.036 35.9162C163.813 33.8382 163.189 32.3197 162.166 31.3606C161.143 30.3696 159.896 29.8741 158.426 29.8741C156.732 29.8741 155.357 30.4015 154.302 31.4565C153.247 32.5115 152.592 33.998 152.336 35.9162H164.036ZM197.131 25.6062L188.259 38.0741L197.466 51.0215H190.561L184.663 42.1981L178.717 51.0215H171.811L181.018 38.0741L172.147 25.6062H179.052L184.663 33.9501L190.273 25.6062H197.131Z"/>
</mask>
<path d="M138.685 16.9746H139.685V15.9746H138.685V16.9746ZM139.165 45.7946L138.425 46.4672L138.457 46.5025L138.492 46.5345L139.165 45.7946ZM142.474 46.2741H143.474V45.2741H142.474V46.2741ZM142.474 51.0215V52.0215H143.474V51.0215H142.474ZM134.273 49.3431L133.566 50.0502L133.576 50.06L133.586 50.0696L134.273 49.3431ZM132.547 16.9746V15.9746H131.547V16.9746H132.547ZM137.685 16.9746V44.4039H139.685V16.9746H137.685ZM137.685 44.4039C137.685 45.173 137.904 45.8944 138.425 46.4672L139.905 45.1219C139.786 44.9914 139.685 44.7858 139.685 44.4039H137.685ZM138.492 46.5345C139.065 47.0553 139.786 47.2741 140.555 47.2741V45.2741C140.174 45.2741 139.968 45.1732 139.837 45.0546L138.492 46.5345ZM140.555 47.2741H142.474V45.2741H140.555V47.2741ZM141.474 46.2741V51.0215H143.474V46.2741H141.474ZM142.474 50.0215H138.973V52.0215H142.474V50.0215ZM138.973 50.0215C137.225 50.0215 135.922 49.5262 134.961 48.6166L133.586 50.0696C134.99 51.3979 136.821 52.0215 138.973 52.0215V50.0215ZM134.981 48.636C134.057 47.7121 133.547 46.4221 133.547 44.6437H131.547C131.547 46.8294 132.189 48.6724 133.566 50.0502L134.981 48.636ZM133.547 44.6437V16.9746H131.547V44.6437H133.547ZM132.547 17.9746H138.685V15.9746H132.547V17.9746ZM147.397 31.3127L148.282 31.7767L147.397 31.3127ZM151.808 26.6612L152.308 27.5276V27.5276L151.808 26.6612ZM164.468 26.5653L164.964 25.697L164.468 26.5653ZM168.736 31.1208L169.622 30.6568L168.736 31.1208ZM170.366 38.5057H171.366L171.366 38.4947L170.366 38.5057ZM170.366 39.9922V40.9922H171.366V39.9922H170.366ZM152.288 39.9922V38.9922H151.225L151.29 40.0527L152.288 39.9922ZM154.062 44.9794L153.307 45.635L153.316 45.6456L153.326 45.656L154.062 44.9794ZM163.749 43.2051L163.825 42.208L163.119 42.1541L162.834 42.8014L163.749 43.2051ZM170.031 43.6846L170.983 43.9894L171.369 42.7839L170.107 42.6875L170.031 43.6846ZM165.715 49.439L166.278 50.2653L165.715 49.439ZM151.808 49.9665L152.308 49.1001L151.808 49.9665ZM147.397 45.315L146.511 45.779L147.397 45.315ZM164.036 35.9162V36.9162H165.15L165.031 35.8091L164.036 35.9162ZM162.166 31.3606L161.47 32.0788L161.476 32.0845L161.482 32.0901L162.166 31.3606ZM152.336 35.9162L151.345 35.784L151.194 36.9162H152.336V35.9162ZM146.814 38.3138C146.814 35.795 147.314 33.6254 148.282 31.7767L146.511 30.8486C145.369 33.028 144.814 35.5258 144.814 38.3138H146.814ZM148.282 31.7767C149.253 29.9229 150.593 28.5155 152.308 27.5276L151.309 25.7948C149.251 26.9808 147.65 28.6744 146.511 30.8486L148.282 31.7767ZM152.308 27.5276C154.019 26.5413 156.047 26.0308 158.426 26.0308V24.0308C155.753 24.0308 153.37 24.6071 151.309 25.7948L152.308 27.5276ZM158.426 26.0308C160.505 26.0308 162.345 26.5041 163.972 27.4335L164.964 25.697C163.01 24.5804 160.822 24.0308 158.426 24.0308V26.0308ZM163.972 27.4335C165.579 28.3522 166.874 29.722 167.85 31.5849L169.622 30.6568C168.487 28.4916 166.937 26.8244 164.964 25.697L163.972 27.4335ZM167.85 31.5849C168.814 33.4254 169.336 35.7225 169.366 38.5166L171.366 38.4947C171.333 35.4705 170.768 32.8443 169.622 30.6568L167.85 31.5849ZM169.366 38.5057V39.9922H171.366V38.5057H169.366ZM170.366 38.9922H152.288V40.9922H170.366V38.9922ZM151.29 40.0527C151.427 42.3134 152.068 44.2084 153.307 45.635L154.817 44.3237C153.946 43.3207 153.405 41.8909 153.286 39.9317L151.29 40.0527ZM153.326 45.656C154.628 47.0736 156.365 47.7536 158.426 47.7536V45.7536C156.842 45.7536 155.67 45.2508 154.798 44.3027L153.326 45.656ZM158.426 47.7536C159.774 47.7536 161.022 47.3753 162.145 46.6266L161.036 44.9625C160.241 45.4926 159.379 45.7536 158.426 45.7536V47.7536ZM162.145 46.6266C163.268 45.8783 164.11 44.8642 164.664 43.6087L162.834 42.8014C162.429 43.7198 161.832 44.4321 161.036 44.9625L162.145 46.6266ZM163.673 44.2022L169.954 44.6817L170.107 42.6875L163.825 42.208L163.673 44.2022ZM169.078 43.3798C168.38 45.5619 167.08 47.2978 165.151 48.6128L166.278 50.2653C168.569 48.703 170.147 46.6027 170.983 43.9894L169.078 43.3798ZM165.151 48.6128C163.22 49.9294 160.99 50.5969 158.426 50.5969V52.5969C161.36 52.5969 163.989 51.8258 166.278 50.2653L165.151 48.6128ZM158.426 50.5969C156.047 50.5969 154.019 50.0864 152.308 49.1001L151.309 50.8329C153.37 52.0205 155.753 52.5969 158.426 52.5969V50.5969ZM152.308 49.1001C150.593 48.1122 149.253 46.7048 148.282 44.851L146.511 45.779C147.65 47.9533 149.251 49.6469 151.309 50.8329L152.308 49.1001ZM148.282 44.851C147.314 43.0023 146.814 40.8327 146.814 38.3138H144.814C144.814 41.1018 145.369 43.5997 146.511 45.779L148.282 44.851ZM165.031 35.8091C164.793 33.6063 164.116 31.8177 162.85 30.6311L161.482 32.0901C162.263 32.8217 162.832 34.0701 163.042 36.0233L165.031 35.8091ZM162.862 30.6424C161.646 29.4642 160.147 28.8741 158.426 28.8741V30.8741C159.646 30.8741 160.641 31.275 161.47 32.0788L162.862 30.6424ZM158.426 28.8741C156.505 28.8741 154.863 29.4809 153.595 30.7494L155.009 32.1636C155.85 31.3222 156.958 30.8741 158.426 30.8741V28.8741ZM153.595 30.7494C152.344 32.0004 151.621 33.7132 151.345 35.784L153.327 36.0483C153.562 34.2829 154.15 33.0226 155.009 32.1636L153.595 30.7494ZM152.336 36.9162H164.036V34.9162H152.336V36.9162ZM197.131 25.6062L197.945 26.186L199.069 24.6062H197.131V25.6062ZM188.259 38.0741L187.444 37.4943L187.032 38.0739L187.444 38.6536L188.259 38.0741ZM197.466 51.0215V52.0215H199.404L198.281 50.442L197.466 51.0215ZM190.561 51.0215L189.73 51.5772L190.027 52.0215H190.561V51.0215ZM184.663 42.1981L185.494 41.6423L184.666 40.4037L183.833 41.6392L184.663 42.1981ZM178.717 51.0215V52.0215H179.248L179.546 51.5803L178.717 51.0215ZM171.811 51.0215L170.996 50.442L169.873 52.0215H171.811V51.0215ZM181.018 38.0741L181.833 38.6536L182.245 38.0739L181.833 37.4943L181.018 38.0741ZM172.147 25.6062V24.6062H170.208L171.332 26.186L172.147 25.6062ZM179.052 25.6062L179.882 25.0482L179.585 24.6062H179.052V25.6062ZM184.663 33.9501L183.833 34.5081L184.663 35.7422L185.493 34.5081L184.663 33.9501ZM190.273 25.6062V24.6062H189.741L189.443 25.0482L190.273 25.6062ZM196.316 25.0265L187.444 37.4943L189.074 38.6538L197.945 26.186L196.316 25.0265ZM187.444 38.6536L196.651 51.601L198.281 50.442L189.074 37.4946L187.444 38.6536ZM197.466 50.0215H190.561V52.0215H197.466V50.0215ZM191.392 50.4657L185.494 41.6423L183.831 42.7538L189.73 51.5772L191.392 50.4657ZM183.833 41.6392L177.887 50.4626L179.546 51.5803L185.492 42.7569L183.833 41.6392ZM178.717 50.0215H171.811V52.0215H178.717V50.0215ZM172.626 51.601L181.833 38.6536L180.203 37.4946L170.996 50.442L172.626 51.601ZM181.833 37.4943L172.962 25.0265L171.332 26.186L180.203 38.6538L181.833 37.4943ZM172.147 26.6062H179.052V24.6062H172.147V26.6062ZM178.222 26.1642L183.833 34.5081L185.493 33.3921L179.882 25.0482L178.222 26.1642ZM185.493 34.5081L191.103 26.1642L189.443 25.0482L183.833 33.3921L185.493 34.5081ZM190.273 26.6062H197.131V24.6062H190.273V26.6062Z" fill="#888888" mask="url(#path-8-outside-2_97_2296)"/>
<defs>
<linearGradient id="paint0_linear_97_2296" x1="98.362" y1="0.431676" x2="115.626" y2="17.6986" gradientUnits="userSpaceOnUse">
<stop stop-color="white" stop-opacity="0"/>
<stop offset="0.5" stop-color="white"/>
<stop offset="1" stop-color="white" stop-opacity="0"/>
</linearGradient>
<linearGradient id="paint1_linear_97_2296" x1="98.362" y1="17.6963" x2="115.626" y2="0.429298" gradientUnits="userSpaceOnUse">
<stop stop-color="white" stop-opacity="0"/>
<stop offset="0.5" stop-color="white"/>
<stop offset="1" stop-color="white" stop-opacity="0"/>
</linearGradient>
</defs>
</svg>
