<svg width="32" height="32" viewBox="0 0 32 32" fill="none" xmlns="http://www.w3.org/2000/svg">
<path d="M15.8 3C8.7344 3 3 8.7344 3 15.8C3 22.8656 8.7344 28.6 15.8 28.6C22.8656 28.6 28.6 22.8656 28.6 15.8C28.6 8.7344 22.8784 3 15.8 3ZM19.64 18.6544L15.928 20.792C15.4672 21.0608 14.9552 21.1888 14.456 21.1888C13.944 21.1888 13.4448 21.0608 12.984 20.792C12.0624 20.2544 11.512 19.3072 11.512 18.232V13.944C11.512 12.8816 12.0624 11.9216 12.984 11.384C13.9056 10.8464 15.0064 10.8464 15.9408 11.384L19.6528 13.5216C20.5744 14.0592 21.1248 15.0064 21.1248 16.0816C21.1248 17.1568 20.5744 18.1168 19.64 18.6544Z" fill="#30AF5B"/>
</svg>
