<svg width="1920" height="1517" viewBox="0 0 1920 1517" fill="none" xmlns="http://www.w3.org/2000/svg">
<path d="M855.724 138.6H874.724V143.12H860.924V150.88H874.004V155.36H860.924V167H855.724V138.6ZM897.509 167H892.789L892.709 163.64C891.549 166.4 889.189 167.48 886.429 167.48C881.829 167.48 879.269 164.2 879.269 159.44V145.8H884.389V157.76C884.389 161.36 885.349 163.32 888.029 163.32C890.789 163.32 892.389 161.36 892.389 157.76V145.8H897.509V167ZM915.149 152.6C914.749 150.44 912.869 149.16 910.829 149.16C908.829 149.16 907.269 150.2 907.309 151.92C907.349 153.64 909.469 154.36 911.589 154.76C917.389 155.76 920.589 157.28 920.589 161.32C920.589 165.52 916.509 167.48 911.549 167.48C905.749 167.48 901.829 164.76 901.469 160.28L906.709 160C907.109 162.24 908.789 163.6 911.429 163.6C913.189 163.6 915.309 162.96 915.269 161.2C915.269 159.16 912.909 158.84 910.749 158.36C905.509 157.32 901.989 155.96 901.989 152C901.989 147.84 905.429 145.32 911.109 145.32C916.069 145.32 919.629 148 920.349 152.36L915.149 152.6ZM924.386 145.8H929.506V167H924.386V145.8ZM924.306 142.88V138.64H929.626V142.88H924.306ZM944.371 167.48C938.011 167.48 933.851 163.12 933.851 156.4C933.851 149.68 938.011 145.32 944.371 145.32C950.691 145.32 954.851 149.68 954.851 156.4C954.851 163.12 950.691 167.48 944.371 167.48ZM939.171 156.4C939.171 160.76 941.051 163.32 944.371 163.32C947.651 163.32 949.571 160.76 949.571 156.4C949.571 152.04 947.651 149.48 944.371 149.48C941.051 149.48 939.171 152.04 939.171 156.4ZM958.996 145.8H963.636L963.796 149.32C964.916 146.44 967.316 145.32 970.156 145.32C974.876 145.32 977.436 148.6 977.436 153.36V167H972.276V155C972.276 151.44 971.356 149.48 968.596 149.48C965.796 149.48 964.116 151.44 964.116 155V167H958.996V145.8ZM984.673 145.24C984.673 140.96 986.753 138.6 991.473 138.6H995.433V142.56H992.073C990.753 142.56 989.833 143.6 989.833 145.24V146.4H995.113V150.36H989.833V167H984.673V150.36H981.633V146.4H984.673V145.24ZM1007.85 167.48C1001.49 167.48 997.328 163.12 997.328 156.4C997.328 149.68 1001.49 145.32 1007.85 145.32C1014.17 145.32 1018.33 149.68 1018.33 156.4C1018.33 163.12 1014.17 167.48 1007.85 167.48ZM1002.65 156.4C1002.65 160.76 1004.53 163.32 1007.85 163.32C1011.13 163.32 1013.05 160.76 1013.05 156.4C1013.05 152.04 1011.13 149.48 1007.85 149.48C1004.53 149.48 1002.65 152.04 1002.65 156.4ZM1022.78 138.6H1027.9V161.48C1027.9 162.48 1028.46 163.04 1029.46 163.04H1031.06V167H1028.14C1024.94 167 1022.78 165 1022.78 161.68V138.6ZM1035.32 145.8H1040.44V167H1035.32V145.8ZM1035.24 142.88V138.64H1040.56V142.88H1035.24ZM1055.31 167.48C1048.95 167.48 1044.79 163.12 1044.79 156.4C1044.79 149.68 1048.95 145.32 1055.31 145.32C1061.63 145.32 1065.79 149.68 1065.79 156.4C1065.79 163.12 1061.63 167.48 1055.31 167.48ZM1050.11 156.4C1050.11 160.76 1051.99 163.32 1055.31 163.32C1058.59 163.32 1060.51 160.76 1060.51 156.4C1060.51 152.04 1058.59 149.48 1055.31 149.48C1051.99 149.48 1050.11 152.04 1050.11 156.4ZM508.693 207.44C509.293 210.76 511.653 212.96 515.533 212.96C518.533 212.96 520.573 211.76 520.573 209.44C520.533 207.08 518.533 205.72 513.693 204.52C508.013 203.16 504.013 200.72 504.013 196.16C504.013 191.12 508.173 187.96 514.253 187.96C520.533 187.96 524.773 191.84 525.373 197.4L520.133 197.64C519.733 194.48 517.493 192.44 514.173 192.44C511.293 192.44 509.253 193.92 509.333 196.24C509.373 198.96 512.653 199.8 515.893 200.64C521.813 202.04 525.893 204.72 525.893 209.16C525.893 214.52 521.133 217.48 515.293 217.48C508.613 217.48 503.893 213.68 503.413 207.76L508.693 207.44ZM529.914 188.6H535.034V198.64C536.274 196.24 538.594 195.32 541.194 195.32C545.594 195.32 548.354 198.52 548.354 203.36V217H543.234V205.2C543.234 201.56 542.154 199.64 539.514 199.64C536.714 199.64 535.034 201.6 535.034 205.2V217H529.914V188.6ZM562.789 217.48C556.429 217.48 552.269 213.12 552.269 206.4C552.269 199.68 556.429 195.32 562.789 195.32C569.109 195.32 573.269 199.68 573.269 206.4C573.269 213.12 569.109 217.48 562.789 217.48ZM557.589 206.4C557.589 210.76 559.469 213.32 562.789 213.32C566.069 213.32 567.989 210.76 567.989 206.4C567.989 202.04 566.069 199.48 562.789 199.48C559.469 199.48 557.589 202.04 557.589 206.4ZM592.793 195.8L597.153 211.12L601.513 195.8H606.513L600.033 217H594.793L590.593 202.72L586.393 217H581.153L574.673 195.8H579.633L583.953 211.12L588.353 195.8H592.793ZM622.974 203.6C622.574 200.96 620.654 199.48 618.414 199.48C615.094 199.48 613.214 202.04 613.214 206.4C613.214 210.76 615.094 213.32 618.414 213.32C620.774 213.32 622.654 211.8 623.054 208.92L628.374 209.16C627.774 214.28 623.694 217.48 618.414 217.48C612.054 217.48 607.894 213.12 607.894 206.4C607.894 199.68 612.054 195.32 618.414 195.32C623.534 195.32 627.694 198.36 628.254 203.32L622.974 203.6ZM631.926 202.28C632.766 197.84 636.166 195.32 641.406 195.32C647.526 195.32 650.726 198.48 650.726 204.44V211.72C650.726 212.92 651.246 213.28 652.046 213.28H652.886V217L651.686 217.04C650.046 217.08 646.686 217.12 646.286 213.76C645.286 215.88 642.886 217.48 639.206 217.48C634.926 217.48 631.566 215.2 631.566 211.44C631.566 207.36 634.646 205.96 639.646 205L645.566 203.84C645.566 200.56 644.166 199 641.406 199C639.126 199 637.646 200.24 637.166 202.56L631.926 202.28ZM636.886 211.28C636.886 212.72 638.126 213.88 640.606 213.88C643.486 213.88 645.686 211.76 645.686 207.6V207.32L641.646 208.04C638.966 208.52 636.886 208.88 636.886 211.28ZM669.074 202.6C668.674 200.44 666.794 199.16 664.754 199.16C662.754 199.16 661.194 200.2 661.234 201.92C661.274 203.64 663.394 204.36 665.514 204.76C671.314 205.76 674.514 207.28 674.514 211.32C674.514 215.52 670.434 217.48 665.474 217.48C659.674 217.48 655.754 214.76 655.394 210.28L660.634 210C661.034 212.24 662.714 213.6 665.354 213.6C667.114 213.6 669.234 212.96 669.194 211.2C669.194 209.16 666.834 208.84 664.674 208.36C659.434 207.32 655.914 205.96 655.914 202C655.914 197.84 659.354 195.32 665.034 195.32C669.994 195.32 673.554 198 674.274 202.36L669.074 202.6ZM678.312 195.8H683.432V217H678.312V195.8ZM678.232 192.88V188.64H683.552V192.88H678.232ZM688.547 195.8H693.187L693.347 199.32C694.467 196.44 696.867 195.32 699.707 195.32C704.427 195.32 706.987 198.6 706.987 203.36V217H701.827V205C701.827 201.44 700.907 199.48 698.147 199.48C695.347 199.48 693.667 201.44 693.667 205V217H688.547V195.8ZM720.182 215.96C714.662 215.96 710.902 211.88 710.902 205.84C710.902 199.56 714.662 195.32 720.142 195.32C722.902 195.32 725.262 196.72 726.342 199.08V195.8H731.342V214.6C731.342 220.2 727.182 223.48 721.182 223.48C716.342 223.48 712.662 221.08 711.542 217.4L716.782 217.08C717.462 218.64 719.022 219.64 721.222 219.64C724.342 219.64 726.182 218.16 726.182 215.24V212.6C725.182 214.64 722.782 215.96 720.182 215.96ZM716.182 205.8C716.182 209.68 718.222 212.2 721.342 212.2C724.342 212.2 726.342 209.68 726.382 205.8C726.422 201.88 724.462 199.4 721.342 199.4C718.182 199.4 716.182 201.88 716.182 205.8ZM746.837 188.6H765.837V193.12H752.037V200.88H765.117V205.36H752.037V217H746.837V188.6ZM788.623 217H783.903L783.823 213.64C782.663 216.4 780.303 217.48 777.543 217.48C772.943 217.48 770.383 214.2 770.383 209.44V195.8H775.503V207.76C775.503 211.36 776.463 213.32 779.143 213.32C781.903 213.32 783.503 211.36 783.503 207.76V195.8H788.623V217ZM794.25 188.6H799.37V211.48C799.37 212.48 799.93 213.04 800.93 213.04H802.53V217H799.61C796.41 217 794.25 215 794.25 211.68V188.6ZM806.789 188.6H811.909V211.48C811.909 212.48 812.469 213.04 813.469 213.04H815.069V217H812.149C808.949 217 806.789 215 806.789 211.68V188.6ZM831.535 202.6C831.135 200.44 829.255 199.16 827.215 199.16C825.215 199.16 823.655 200.2 823.695 201.92C823.735 203.64 825.855 204.36 827.975 204.76C833.775 205.76 836.975 207.28 836.975 211.32C836.975 215.52 832.895 217.48 827.935 217.48C822.135 217.48 818.215 214.76 817.855 210.28L823.095 210C823.495 212.24 825.175 213.6 827.815 213.6C829.575 213.6 831.695 212.96 831.655 211.2C831.655 209.16 829.295 208.84 827.135 208.36C821.895 207.32 818.375 205.96 818.375 202C818.375 197.84 821.815 195.32 827.495 195.32C832.455 195.32 836.015 198 836.735 202.36L831.535 202.6ZM842.664 191H847.784V195.8H853.384V199.76H847.784V210.48C847.784 212.12 848.624 213.04 850.184 213.04H853.384V217H849.344C844.984 217 842.664 214.8 842.664 210.48V199.76H839.304V195.8H842.664V191ZM856.653 202.28C857.493 197.84 860.893 195.32 866.133 195.32C872.253 195.32 875.453 198.48 875.453 204.44V211.72C875.453 212.92 875.973 213.28 876.773 213.28H877.613V217L876.413 217.04C874.773 217.08 871.413 217.12 871.013 213.76C870.013 215.88 867.613 217.48 863.933 217.48C859.653 217.48 856.293 215.2 856.293 211.44C856.293 207.36 859.373 205.96 864.373 205L870.293 203.84C870.293 200.56 868.893 199 866.133 199C863.853 199 862.373 200.24 861.893 202.56L856.653 202.28ZM861.613 211.28C861.613 212.72 862.853 213.88 865.333 213.88C868.213 213.88 870.413 211.76 870.413 207.6V207.32L866.373 208.04C863.693 208.52 861.613 208.88 861.613 211.28ZM895.201 203.6C894.801 200.96 892.881 199.48 890.641 199.48C887.321 199.48 885.441 202.04 885.441 206.4C885.441 210.76 887.321 213.32 890.641 213.32C893.001 213.32 894.881 211.8 895.281 208.92L900.601 209.16C900.001 214.28 895.921 217.48 890.641 217.48C884.281 217.48 880.121 213.12 880.121 206.4C880.121 199.68 884.281 195.32 890.641 195.32C895.761 195.32 899.921 198.36 900.481 203.32L895.201 203.6ZM904.367 188.6H909.487V205.36L918.167 195.8H924.447L916.167 204.56L924.847 217H919.087L912.807 207.64L909.487 211.2V217H904.367V188.6ZM937.057 188.6H942.537L947.777 209.8L952.977 188.6H957.817L963.097 209.8L968.257 188.6H973.737L966.137 217H960.377L955.417 197.96L950.417 217H944.697L937.057 188.6ZM977.492 195.8H982.612V217H977.492V195.8ZM977.412 192.88V188.64H982.732V192.88H977.412ZM1006.07 200.16L993.594 213.04H1006.39V217H987.714V212.64L1000.07 199.76H988.234V195.8H1006.07V200.16ZM1010.64 202.28C1011.48 197.84 1014.88 195.32 1020.12 195.32C1026.24 195.32 1029.44 198.48 1029.44 204.44V211.72C1029.44 212.92 1029.96 213.28 1030.76 213.28H1031.6V217L1030.4 217.04C1028.76 217.08 1025.4 217.12 1025 213.76C1024 215.88 1021.6 217.48 1017.92 217.48C1013.64 217.48 1010.28 215.2 1010.28 211.44C1010.28 207.36 1013.36 205.96 1018.36 205L1024.28 203.84C1024.28 200.56 1022.88 199 1020.12 199C1017.84 199 1016.36 200.24 1015.88 202.56L1010.64 202.28ZM1015.6 211.28C1015.6 212.72 1016.84 213.88 1019.32 213.88C1022.2 213.88 1024.4 211.76 1024.4 207.6V207.32L1020.36 208.04C1017.68 208.52 1015.6 208.88 1015.6 211.28ZM1035.34 195.8H1040.14L1040.26 199.96C1041.06 197.16 1042.66 195.8 1045.38 195.8H1047.34V199.76H1045.34C1041.94 199.76 1040.46 201.52 1040.46 204.92V217H1035.34V195.8ZM1069.74 188.6V217H1064.86L1064.74 213.96C1063.54 216.12 1061.14 217.48 1058.22 217.48C1052.7 217.48 1049.26 213.2 1049.26 206.4C1049.26 199.6 1052.7 195.32 1058.22 195.32C1060.98 195.32 1063.38 196.6 1064.62 198.68V188.6H1069.74ZM1054.54 206.4C1054.54 210.64 1056.62 213.36 1059.74 213.36C1062.9 213.36 1064.94 210.64 1064.94 206.4C1064.94 202.08 1062.9 199.32 1059.74 199.32C1056.58 199.32 1054.54 202.08 1054.54 206.4ZM1074.84 195.8H1079.64L1079.76 199.96C1080.56 197.16 1082.16 195.8 1084.88 195.8H1086.84V199.76H1084.84C1081.44 199.76 1079.96 201.52 1079.96 204.92V217H1074.84V195.8ZM1089.36 195.8H1094.32L1100 211.64L1105.48 195.8H1110.44L1102 219.24C1101.08 221.84 1099.36 223 1096.52 223H1093.04V219.08H1095.64C1096.88 219.08 1097.48 218.68 1097.92 217.68L1098.52 216.12H1097.04L1089.36 195.8ZM1133.31 187.96C1137.87 188.24 1141.63 191.8 1140.67 195.96C1140.15 198.4 1138.15 200.56 1134.99 202.32L1140.19 208.84C1140.95 207.76 1141.27 205.76 1141.23 204.04L1146.51 204.52C1146.35 207.64 1145.23 210.68 1143.51 212.64L1147.23 217H1141.15L1139.99 215.6C1138.35 216.8 1135.99 217.48 1133.47 217.48C1126.71 217.48 1122.23 214.56 1122.23 209.4C1122.23 206.16 1123.79 204.08 1127.63 201.68C1127.75 201.6 1127.91 201.48 1128.07 201.4C1126.07 199.08 1125.23 196.96 1125.23 194.88C1125.23 190.68 1128.99 187.72 1133.31 187.96ZM1127.51 209.16C1127.55 211.52 1129.55 213.08 1132.95 213.08C1134.47 213.08 1135.83 212.6 1136.55 211.84L1130.83 204.72C1129.27 205.68 1127.47 207.12 1127.51 209.16ZM1130.47 195.2C1130.47 196.28 1130.99 197.52 1132.19 199.12C1134.39 198.08 1135.63 196.64 1135.63 195.2C1135.63 193.68 1134.75 192.56 1133.27 192.48C1131.67 192.4 1130.43 193.68 1130.47 195.2ZM1169.99 188.6C1179.03 188.6 1184.11 193.72 1184.11 202.84C1184.11 211.92 1179.15 217 1170.23 217H1160.55V188.6H1169.99ZM1165.75 212.48H1169.99C1175.91 212.48 1178.79 209.32 1178.79 202.84C1178.79 196.28 1175.91 193.12 1169.99 193.12H1165.75V212.48ZM1187.5 206.4C1187.5 199.68 1191.66 195.32 1198.02 195.32C1203.5 195.32 1207.9 199.08 1207.98 206.56V207.8H1192.9C1193.14 211.32 1194.98 213.44 1198.02 213.44C1199.94 213.44 1201.7 212.32 1202.46 210.48L1207.7 210.88C1206.42 214.92 1202.58 217.48 1198.02 217.48C1191.66 217.48 1187.5 213.12 1187.5 206.4ZM1192.94 204.4H1202.7C1202.3 200.76 1200.3 199.36 1198.02 199.36C1195.18 199.36 1193.34 201.24 1192.94 204.4ZM1224.97 202.6C1224.57 200.44 1222.69 199.16 1220.65 199.16C1218.65 199.16 1217.09 200.2 1217.13 201.92C1217.17 203.64 1219.29 204.36 1221.41 204.76C1227.21 205.76 1230.41 207.28 1230.41 211.32C1230.41 215.52 1226.33 217.48 1221.37 217.48C1215.57 217.48 1211.65 214.76 1211.29 210.28L1216.53 210C1216.93 212.24 1218.61 213.6 1221.25 213.6C1223.01 213.6 1225.13 212.96 1225.09 211.2C1225.09 209.16 1222.73 208.84 1220.57 208.36C1215.33 207.32 1211.81 205.96 1211.81 202C1211.81 197.84 1215.25 195.32 1220.93 195.32C1225.89 195.32 1229.45 198 1230.17 202.36L1224.97 202.6ZM1234.21 195.8H1239.33V217H1234.21V195.8ZM1234.13 192.88V188.64H1239.45V192.88H1234.13ZM1252.96 215.96C1247.44 215.96 1243.68 211.88 1243.68 205.84C1243.68 199.56 1247.44 195.32 1252.92 195.32C1255.68 195.32 1258.04 196.72 1259.12 199.08V195.8H1264.12V214.6C1264.12 220.2 1259.96 223.48 1253.96 223.48C1249.12 223.48 1245.44 221.08 1244.32 217.4L1249.56 217.08C1250.24 218.64 1251.8 219.64 1254 219.64C1257.12 219.64 1258.96 218.16 1258.96 215.24V212.6C1257.96 214.64 1255.56 215.96 1252.96 215.96ZM1248.96 205.8C1248.96 209.68 1251 212.2 1254.12 212.2C1257.12 212.2 1259.12 209.68 1259.16 205.8C1259.2 201.88 1257.24 199.4 1254.12 199.4C1250.96 199.4 1248.96 201.88 1248.96 205.8ZM1269.76 195.8H1274.4L1274.56 199.32C1275.68 196.44 1278.08 195.32 1280.92 195.32C1285.64 195.32 1288.2 198.6 1288.2 203.36V217H1283.04V205C1283.04 201.44 1282.12 199.48 1279.36 199.48C1276.56 199.48 1274.88 201.44 1274.88 205V217H1269.76V195.8ZM1303.63 188.6H1310.63L1318.47 210.6L1326.27 188.6H1333.31V217H1328.11V197.48L1320.95 216.96H1315.99L1308.83 197.48V217H1303.63V188.6ZM1338.33 202.28C1339.17 197.84 1342.57 195.32 1347.81 195.32C1353.93 195.32 1357.13 198.48 1357.13 204.44V211.72C1357.13 212.92 1357.65 213.28 1358.45 213.28H1359.29V217L1358.09 217.04C1356.45 217.08 1353.09 217.12 1352.69 213.76C1351.69 215.88 1349.29 217.48 1345.61 217.48C1341.33 217.48 1337.97 215.2 1337.97 211.44C1337.97 207.36 1341.05 205.96 1346.05 205L1351.97 203.84C1351.97 200.56 1350.57 199 1347.81 199C1345.53 199 1344.05 200.24 1343.57 202.56L1338.33 202.28ZM1343.29 211.28C1343.29 212.72 1344.53 213.88 1347.01 213.88C1349.89 213.88 1352.09 211.76 1352.09 207.6V207.32L1348.05 208.04C1345.37 208.52 1343.29 208.88 1343.29 211.28ZM1371.08 215.96C1365.56 215.96 1361.8 211.88 1361.8 205.84C1361.8 199.56 1365.56 195.32 1371.04 195.32C1373.8 195.32 1376.16 196.72 1377.24 199.08V195.8H1382.24V214.6C1382.24 220.2 1378.08 223.48 1372.08 223.48C1367.24 223.48 1363.56 221.08 1362.44 217.4L1367.68 217.08C1368.36 218.64 1369.92 219.64 1372.12 219.64C1375.24 219.64 1377.08 218.16 1377.08 215.24V212.6C1376.08 214.64 1373.68 215.96 1371.08 215.96ZM1367.08 205.8C1367.08 209.68 1369.12 212.2 1372.24 212.2C1375.24 212.2 1377.24 209.68 1377.28 205.8C1377.32 201.88 1375.36 199.4 1372.24 199.4C1369.08 199.4 1367.08 201.88 1367.08 205.8ZM1387.45 195.8H1392.57V217H1387.45V195.8ZM1387.37 192.88V188.64H1392.69V192.88H1387.37ZM1412 203.6C1411.6 200.96 1409.68 199.48 1407.44 199.48C1404.12 199.48 1402.24 202.04 1402.24 206.4C1402.24 210.76 1404.12 213.32 1407.44 213.32C1409.8 213.32 1411.68 211.8 1412.08 208.92L1417.4 209.16C1416.8 214.28 1412.72 217.48 1407.44 217.48C1401.08 217.48 1396.92 213.12 1396.92 206.4C1396.92 199.68 1401.08 195.32 1407.44 195.32C1412.56 195.32 1416.72 198.36 1417.28 203.32L1412 203.6Z" fill="#EAEAEA"/>
<g clip-path="url(#clip0_243_340)">
<g filter="url(#filter0_dd_243_340)">
<rect x="469" y="308" width="56" height="56" rx="28" fill="#0A0A0A"/>
<g clip-path="url(#clip1_243_340)">
<mask id="mask0_243_340" style="mask-type:luminance" maskUnits="userSpaceOnUse" x="481" y="320" width="32" height="32">
<path d="M513 320H481V352H513V320Z" fill="white"/>
</mask>
<g mask="url(#mask0_243_340)">
<path d="M497 350.75C505.146 350.75 511.75 344.146 511.75 336C511.75 327.854 505.146 321.25 497 321.25C488.854 321.25 482.25 327.854 482.25 336C482.25 344.146 488.854 350.75 497 350.75Z" fill="black" stroke="#EDEDED" stroke-width="2" stroke-linecap="round" stroke-linejoin="round"/>
<path d="M502.26 342V330Z" fill="black"/>
<path d="M502.26 342V330" stroke="url(#paint0_linear_243_340)" stroke-width="2" stroke-miterlimit="1.41421" stroke-linejoin="round"/>
<path fill-rule="evenodd" clip-rule="evenodd" d="M492.99 330.002L490.49 330V342H492.99V333.936L505.723 349.415C506.424 348.959 507.087 348.448 507.706 347.891L492.99 330.002Z" fill="url(#paint1_linear_243_340)"/>
</g>
</g>
</g>
<g filter="url(#filter1_dd_243_340)">
<rect x="654.188" y="308" width="56" height="56" rx="28" fill="#0A0A0A"/>
<g clip-path="url(#clip2_243_340)">
<mask id="mask1_243_340" style="mask-type:luminance" maskUnits="userSpaceOnUse" x="666" y="320" width="33" height="32">
<path d="M698.188 320H666.188V352H698.188V320Z" fill="white"/>
</mask>
<g mask="url(#mask1_243_340)">
<path fill-rule="evenodd" clip-rule="evenodd" d="M675.188 323.876C675.591 323.643 676.177 323.572 677.014 323.821C677.854 324.071 678.851 324.622 679.941 325.479C680.211 325.692 680.484 325.921 680.759 326.167C679.912 327.069 679.073 328.087 678.263 329.202C676.893 329.346 675.591 329.564 674.386 329.846C674.311 329.485 674.249 329.134 674.2 328.793C674.002 327.421 674.024 326.282 674.228 325.43C674.43 324.581 674.785 324.108 675.188 323.876ZM681.177 323.907C681.512 324.171 681.85 324.456 682.188 324.761C682.526 324.456 682.863 324.171 683.199 323.907C684.406 322.957 685.628 322.251 686.79 321.905C687.956 321.557 689.156 321.548 690.188 322.144C691.22 322.74 691.812 323.784 692.094 324.967C692.375 326.147 692.374 327.557 692.155 329.078C692.094 329.501 692.016 329.935 691.921 330.381C692.354 330.521 692.77 330.671 693.166 330.829C694.593 331.4 695.815 332.104 696.696 332.938C697.58 333.774 698.188 334.808 698.188 336C698.188 337.192 697.58 338.227 696.696 339.062C695.815 339.896 694.593 340.601 693.166 341.171C692.77 341.33 692.354 341.479 691.921 341.62C692.016 342.065 692.094 342.5 692.155 342.922C692.374 344.443 692.375 345.854 692.094 347.034C691.812 348.217 691.22 349.261 690.188 349.857C689.156 350.453 687.956 350.443 686.79 350.096C685.628 349.749 684.406 349.043 683.199 348.093C682.863 347.829 682.526 347.544 682.188 347.239C681.85 347.544 681.512 347.829 681.177 348.093C679.969 349.043 678.748 349.749 677.586 350.096C676.42 350.443 675.22 350.453 674.188 349.857C673.156 349.261 672.564 348.217 672.282 347.034C672.001 345.854 672.001 344.443 672.221 342.922C672.281 342.5 672.36 342.065 672.455 341.62C672.022 341.479 671.606 341.33 671.21 341.171C669.783 340.601 668.561 339.896 667.68 339.062C666.796 338.227 666.188 337.192 666.188 336C666.188 334.808 666.796 333.774 667.68 332.938C668.561 332.104 669.783 331.4 671.21 330.829C671.606 330.671 672.022 330.521 672.455 330.381C672.36 329.935 672.281 329.501 672.221 329.078C672.002 327.557 672.001 326.147 672.282 324.967C672.564 323.784 673.156 322.74 674.188 322.144C675.22 321.548 676.42 321.557 677.586 321.905C678.748 322.251 679.97 322.957 681.177 323.907ZM680.923 329.021C681.343 328.504 681.766 328.019 682.188 327.567C682.61 328.019 683.033 328.504 683.453 329.021C683.035 329.007 682.613 329 682.188 329C681.762 329 681.341 329.007 680.923 329.021ZM683.616 326.167C684.464 327.069 685.303 328.087 686.113 329.202C687.483 329.346 688.785 329.564 689.99 329.846C690.065 329.485 690.127 329.134 690.176 328.793C690.373 327.421 690.351 326.282 690.148 325.43C689.946 324.581 689.591 324.108 689.188 323.876C688.785 323.643 688.199 323.572 687.362 323.821C686.522 324.071 685.525 324.622 684.435 325.479C684.165 325.692 683.892 325.921 683.616 326.167ZM682.188 331C683.157 331 684.101 331.038 685.012 331.109C685.529 331.862 686.034 332.661 686.518 333.5C687.002 334.339 687.442 335.175 687.835 336C687.442 336.825 687.002 337.661 686.518 338.5C686.034 339.339 685.529 340.138 685.012 340.891C684.101 340.963 683.157 341 682.188 341C681.219 341 680.275 340.963 679.364 340.891C678.847 340.138 678.342 339.339 677.858 338.5C677.374 337.661 676.934 336.825 676.54 336C676.934 335.175 677.373 334.339 677.858 333.5C678.342 332.661 678.847 331.862 679.364 331.109C680.275 331.038 681.219 331 682.188 331ZM688.25 332.5C688.463 332.869 688.668 333.237 688.865 333.606C689.102 332.984 689.311 332.375 689.491 331.784C688.889 331.644 688.257 331.52 687.6 331.415C687.821 331.77 688.037 332.132 688.25 332.5ZM688.25 339.5C688.463 339.132 688.668 338.763 688.865 338.394C689.102 339.016 689.311 339.625 689.491 340.217C688.889 340.357 688.257 340.48 687.6 340.585C687.82 340.231 688.037 339.869 688.25 339.5ZM690.038 336C690.598 337.259 691.06 338.495 691.418 339.68C691.769 339.564 692.104 339.442 692.423 339.314C693.711 338.799 694.686 338.211 695.322 337.609C695.957 337.009 696.188 336.465 696.188 336C696.188 335.535 695.957 334.991 695.322 334.391C694.686 333.789 693.711 333.201 692.423 332.686C692.104 332.558 691.769 332.436 691.418 332.321C691.06 333.505 690.598 334.742 690.038 336ZM686.113 342.798C687.483 342.654 688.785 342.436 689.99 342.154C690.065 342.515 690.127 342.867 690.176 343.207C690.374 344.58 690.351 345.718 690.148 346.57C689.946 347.42 689.591 347.892 689.188 348.125C688.785 348.357 688.199 348.429 687.362 348.179C686.522 347.929 685.525 347.379 684.435 346.521C684.165 346.309 683.892 346.079 683.616 345.834C684.464 344.931 685.303 343.913 686.113 342.798ZM683.453 342.98C683.033 343.496 682.61 343.982 682.188 344.433C681.766 343.982 681.343 343.496 680.923 342.98C681.341 342.993 681.763 343 682.188 343C682.613 343 683.035 342.993 683.453 342.98ZM676.126 339.5C676.339 339.869 676.555 340.231 676.776 340.585C676.119 340.48 675.487 340.357 674.885 340.217C675.065 339.625 675.274 339.016 675.511 338.394C675.708 338.763 675.913 339.132 676.126 339.5ZM678.263 342.798C676.893 342.654 675.591 342.436 674.386 342.154C674.311 342.515 674.249 342.867 674.2 343.207C674.002 344.58 674.024 345.718 674.228 346.57C674.43 347.42 674.785 347.892 675.188 348.125C675.591 348.357 676.177 348.429 677.014 348.179C677.854 347.929 678.851 347.379 679.94 346.521C680.211 346.309 680.484 346.079 680.759 345.834C679.912 344.931 679.073 343.913 678.263 342.798ZM674.338 336C673.778 337.259 673.316 338.495 672.958 339.68C672.607 339.564 672.272 339.442 671.953 339.314C670.665 338.799 669.69 338.211 669.054 337.609C668.419 337.009 668.188 336.465 668.188 336C668.188 335.535 668.419 334.991 669.054 334.391C669.69 333.789 670.665 333.201 671.953 332.686C672.272 332.558 672.607 332.436 672.958 332.321C673.316 333.505 673.778 334.742 674.338 336ZM675.511 333.606C675.274 332.984 675.065 332.375 674.885 331.784C675.487 331.644 676.119 331.52 676.776 331.415C676.555 331.77 676.339 332.132 676.126 332.5C675.913 332.869 675.708 333.237 675.511 333.606ZM684.688 336C684.688 337.381 683.569 338.5 682.188 338.5C680.807 338.5 679.688 337.381 679.688 336C679.688 334.619 680.807 333.5 682.188 333.5C683.569 333.5 684.688 334.619 684.688 336Z" fill="#149ECA"/>
</g>
</g>
</g>
<g filter="url(#filter2_dd_243_340)">
<rect x="839.376" y="308" width="56" height="56" rx="28" fill="#0A0A0A"/>
</g>
<g filter="url(#filter3_dd_243_340)">
<rect x="1024.56" y="308" width="56" height="56" rx="28" fill="#0A0A0A"/>
<path fill-rule="evenodd" clip-rule="evenodd" d="M1064.47 329.283C1064.48 329.316 1064.48 329.35 1064.48 329.383V334.65C1064.48 334.718 1064.46 334.784 1064.43 334.842C1064.4 334.901 1064.35 334.949 1064.29 334.983L1059.87 337.528V342.572C1059.87 342.71 1059.79 342.836 1059.68 342.905L1050.45 348.217C1050.43 348.229 1050.4 348.237 1050.38 348.245C1050.37 348.248 1050.36 348.253 1050.36 348.256C1050.29 348.273 1050.22 348.273 1050.16 348.256C1050.15 348.253 1050.14 348.247 1050.13 348.243C1050.11 348.235 1050.09 348.229 1050.07 348.217L1040.84 342.905C1040.78 342.872 1040.73 342.823 1040.7 342.765C1040.66 342.706 1040.65 342.64 1040.65 342.572V326.773C1040.65 326.738 1040.65 326.705 1040.66 326.672C1040.66 326.661 1040.67 326.651 1040.67 326.64C1040.68 326.62 1040.69 326.599 1040.7 326.58C1040.71 326.568 1040.72 326.558 1040.72 326.546C1040.74 326.531 1040.75 326.515 1040.76 326.501C1040.77 326.49 1040.78 326.482 1040.8 326.473C1040.81 326.461 1040.82 326.449 1040.84 326.44L1045.45 323.784C1045.51 323.75 1045.58 323.732 1045.64 323.732C1045.71 323.732 1045.78 323.75 1045.84 323.784L1050.45 326.44H1050.45C1050.47 326.449 1050.48 326.461 1050.49 326.472C1050.5 326.482 1050.52 326.49 1050.53 326.501C1050.54 326.515 1050.55 326.531 1050.56 326.546C1050.57 326.558 1050.58 326.568 1050.59 326.58C1050.6 326.599 1050.61 326.62 1050.62 326.64C1050.62 326.651 1050.63 326.661 1050.63 326.672C1050.64 326.705 1050.64 326.739 1050.64 326.773V336.641L1054.49 334.428V329.383C1054.49 329.349 1054.49 329.315 1054.5 329.283C1054.5 329.272 1054.51 329.261 1054.51 329.25C1054.52 329.23 1054.53 329.21 1054.54 329.191C1054.54 329.178 1054.56 329.168 1054.56 329.157C1054.58 329.141 1054.58 329.126 1054.6 329.112C1054.61 329.101 1054.62 329.093 1054.64 329.083C1054.65 329.072 1054.66 329.059 1054.68 329.05L1059.29 326.394C1059.35 326.361 1059.42 326.343 1059.48 326.343C1059.55 326.343 1059.62 326.361 1059.68 326.394L1064.29 329.05C1064.3 329.06 1064.32 329.072 1064.33 329.083C1064.34 329.093 1064.36 329.101 1064.37 329.112C1064.38 329.126 1064.39 329.141 1064.4 329.157C1064.41 329.168 1064.42 329.178 1064.43 329.191C1064.44 329.21 1064.45 329.23 1064.45 329.25C1064.46 329.261 1064.46 329.272 1064.47 329.283ZM1063.71 334.428V330.048L1062.1 330.977L1059.87 332.261V336.641L1063.71 334.428H1063.71ZM1059.1 342.35V337.968L1056.91 339.221L1050.64 342.796V347.219L1059.1 342.35ZM1041.42 327.437V342.35L1049.87 347.219V342.796L1045.45 340.296L1045.45 340.295L1045.45 340.294C1045.44 340.285 1045.42 340.273 1045.41 340.262C1045.4 340.253 1045.38 340.245 1045.37 340.234L1045.37 340.233C1045.36 340.221 1045.35 340.206 1045.34 340.193C1045.33 340.18 1045.32 340.169 1045.31 340.155L1045.31 340.154C1045.3 340.139 1045.3 340.122 1045.29 340.106C1045.29 340.091 1045.28 340.078 1045.27 340.062C1045.27 340.044 1045.27 340.025 1045.27 340.006C1045.26 339.991 1045.26 339.977 1045.26 339.963V339.962V329.651L1043.03 328.366L1041.42 327.437ZM1045.64 324.56L1041.8 326.773L1045.64 328.985L1049.49 326.772L1045.64 324.56H1045.64ZM1047.64 338.367L1049.87 337.084V327.437L1048.26 328.367L1046.03 329.651V339.297L1047.64 338.367ZM1059.48 327.171L1055.64 329.383L1059.48 331.596L1063.33 329.383L1059.48 327.171ZM1059.1 332.261L1056.87 330.977L1055.25 330.048V334.428L1057.48 335.711L1059.1 336.641V332.261ZM1050.26 342.131L1055.89 338.913L1058.71 337.305L1054.87 335.094L1050.45 337.639L1046.42 339.959L1050.26 342.131Z" fill="#FF2D20"/>
</g>
<g filter="url(#filter4_dd_243_340)">
<rect x="1209.75" y="308" width="56" height="56" rx="28" fill="#0A0A0A"/>
<rect x="1222.75" y="321" width="30" height="30" rx="15" fill="#007ACC"/>
<path d="M1229.75 332.12V333.098H1232.87V341.978H1235.09V333.098H1238.21V332.138C1238.21 331.598 1238.21 331.16 1238.18 331.148C1238.18 331.13 1236.28 331.124 1233.97 331.124L1229.77 331.142V332.126L1229.75 332.12ZM1243.77 331.118C1244.39 331.262 1244.85 331.538 1245.27 331.976C1245.5 332.216 1245.83 332.636 1245.85 332.744C1245.85 332.78 1244.81 333.482 1244.18 333.872C1244.16 333.89 1244.06 333.788 1243.97 333.632C1243.65 333.188 1243.34 332.996 1242.84 332.96C1242.12 332.912 1241.64 333.29 1241.64 333.92C1241.64 334.112 1241.67 334.22 1241.75 334.376C1241.91 334.706 1242.21 334.904 1243.14 335.312C1244.85 336.05 1245.6 336.536 1246.05 337.232C1246.56 338.012 1246.67 339.236 1246.33 340.154C1245.95 341.156 1245.01 341.834 1243.67 342.056C1243.25 342.128 1242.29 342.116 1241.84 342.038C1240.88 341.858 1239.96 341.378 1239.4 340.76C1239.18 340.52 1238.75 339.878 1238.78 339.836L1239 339.692L1239.9 339.17L1240.58 338.774L1240.74 338.984C1240.94 339.296 1241.38 339.716 1241.64 339.86C1242.42 340.262 1243.46 340.208 1243.98 339.74C1244.2 339.536 1244.3 339.32 1244.3 339.02C1244.3 338.744 1244.25 338.618 1244.12 338.408C1243.92 338.144 1243.54 337.928 1242.46 337.448C1241.22 336.92 1240.69 336.584 1240.2 336.068C1239.92 335.756 1239.66 335.27 1239.54 334.868C1239.45 334.52 1239.42 333.668 1239.5 333.326C1239.76 332.126 1240.67 331.286 1241.96 331.046C1242.38 330.962 1243.37 330.998 1243.79 331.106L1243.77 331.118Z" fill="white"/>
</g>
<g filter="url(#filter5_dd_243_340)">
<rect x="1394.94" y="308" width="56" height="56" rx="28" fill="#0A0A0A"/>
<g clip-path="url(#clip3_243_340)">
<path d="M1408 336C1408 327.716 1414.72 321 1423 321V321C1431.28 321 1438 327.716 1438 336V336C1438 344.284 1431.28 351 1423 351V351C1414.72 351 1408 344.284 1408 336V336Z" fill="#F0DB4F"/>
<path d="M1432.66 337.736C1432.44 336.367 1431.55 335.218 1428.9 334.145C1427.99 333.723 1426.96 333.421 1426.66 332.725C1426.55 332.32 1426.53 332.092 1426.6 331.847C1426.8 331.051 1427.75 330.803 1428.5 331.031C1428.99 331.194 1429.45 331.567 1429.72 332.163C1431.02 331.325 1431.01 331.331 1431.92 330.755C1431.59 330.241 1431.41 330.005 1431.19 329.785C1430.42 328.915 1429.35 328.468 1427.66 328.502C1427.36 328.539 1427.07 328.579 1426.77 328.616C1425.93 328.83 1425.12 329.275 1424.65 329.871C1423.23 331.482 1423.63 334.302 1425.36 335.463C1427.06 336.74 1429.56 337.031 1429.88 338.226C1430.19 339.689 1428.81 340.162 1427.43 339.994C1426.41 339.783 1425.85 339.267 1425.24 338.329C1424.12 338.979 1424.12 338.979 1422.96 339.643C1423.23 340.242 1423.52 340.513 1423.98 341.032C1426.15 343.237 1431.59 343.128 1432.57 339.792C1432.61 339.678 1432.87 338.913 1432.66 337.736ZM1421.42 328.679H1418.62C1418.62 331.103 1418.61 333.509 1418.61 335.933C1418.61 337.476 1418.69 338.891 1418.44 339.324C1418.02 340.177 1416.96 340.071 1416.48 339.906C1415.98 339.663 1415.73 339.318 1415.44 338.831C1415.36 338.691 1415.3 338.583 1415.28 338.574C1414.52 339.039 1413.76 339.507 1413 339.971C1413.38 340.75 1413.94 341.426 1414.65 341.865C1415.72 342.507 1417.16 342.703 1418.66 342.358C1419.64 342.073 1420.49 341.483 1420.93 340.584C1421.57 339.407 1421.43 337.981 1421.42 336.404C1421.44 333.832 1421.42 331.259 1421.42 328.679Z" fill="#323330"/>
</g>
</g>
<g clip-path="url(#clip4_243_340)">
<path d="M1052.38 364V377.351C1052.38 408.418 1036.62 437.479 1010.29 455C983.95 472.52 968.197 501.582 968.197 532.649V544" stroke="#FF2D20" stroke-width="2.0264"/>
<path d="M867.593 364V377.351C867.593 408.418 883.346 437.479 909.683 455C936.019 472.52 951.772 501.582 951.772 532.649V544" stroke="#00DC82" stroke-width="2.0264"/>
<path d="M1237.16 364C1237.16 413.706 1195.79 454 1144.77 454H1077.01C1025.99 454 984.622 494.294 984.622 544" stroke="#007ACC" stroke-width="2.0264"/>
<path d="M1421.94 364C1421.94 422.542 1373.22 470 1313.13 470H1077.01C1035.06 470 1001.05 503.131 1001.05 544" stroke="#F0DB4F" stroke-width="2.0264"/>
<path d="M682.81 364C682.81 413.706 724.174 454 775.201 454H842.955C893.982 454 935.347 494.294 935.347 544" stroke="#149ECA" stroke-width="2.0264"/>
<path d="M498.026 364C498.026 422.542 546.745 470 606.843 470H842.955C884.91 470 918.921 503.131 918.921 544" stroke="#8F8F8F" stroke-width="2.0264"/>
</g>
<rect x="878.985" y="544" width="162" height="56.5" rx="28.25" fill="#EDEDED"/>
<path d="M913.097 565.672H907.913V580H904.793V565.672H899.633V562.96H913.097V565.672ZM911.993 573.64C911.993 572.312 912.257 571.144 912.785 570.136C913.313 569.128 914.049 568.352 914.993 567.808C915.937 567.264 917.041 566.992 918.305 566.992C919.425 566.992 920.433 567.248 921.329 567.76C922.225 568.272 922.937 569.032 923.465 570.04C923.993 571.048 924.265 572.28 924.281 573.736V574.48H915.233C915.297 575.536 915.593 576.368 916.121 576.976C916.665 577.568 917.393 577.864 918.305 577.864C918.881 577.864 919.409 577.704 919.889 577.384C920.369 577.064 920.729 576.632 920.969 576.088L924.113 576.328C923.729 577.528 923.009 578.488 921.953 579.208C920.897 579.928 919.681 580.288 918.305 580.288C917.041 580.288 915.937 580.016 914.993 579.472C914.049 578.928 913.313 578.152 912.785 577.144C912.257 576.136 911.993 574.968 911.993 573.64ZM921.113 572.44C921.001 571.4 920.689 570.64 920.177 570.16C919.665 569.664 919.041 569.416 918.305 569.416C917.457 569.416 916.769 569.68 916.241 570.208C915.713 570.736 915.385 571.48 915.257 572.44H921.113ZM934.355 571.96C934.227 571.192 933.907 570.592 933.395 570.16C932.899 569.712 932.307 569.488 931.619 569.488C930.627 569.488 929.859 569.848 929.315 570.568C928.771 571.288 928.499 572.312 928.499 573.64C928.499 574.968 928.771 575.992 929.315 576.712C929.859 577.432 930.627 577.792 931.619 577.792C932.339 577.792 932.955 577.568 933.467 577.12C933.979 576.656 934.291 576 934.403 575.152L937.595 575.296C937.483 576.304 937.155 577.184 936.611 577.936C936.067 578.688 935.363 579.272 934.499 579.688C933.635 580.088 932.675 580.288 931.619 580.288C930.355 580.288 929.251 580.016 928.307 579.472C927.363 578.928 926.627 578.152 926.099 577.144C925.571 576.136 925.307 574.968 925.307 573.64C925.307 572.312 925.571 571.144 926.099 570.136C926.627 569.128 927.363 568.352 928.307 567.808C929.251 567.264 930.355 566.992 931.619 566.992C932.643 566.992 933.579 567.192 934.427 567.592C935.291 567.976 935.995 568.528 936.539 569.248C937.083 569.968 937.411 570.816 937.523 571.792L934.355 571.96ZM941.779 562.96V570.184L941.347 570.28C941.555 569.144 942.027 568.312 942.763 567.784C943.515 567.256 944.419 566.992 945.475 566.992C946.787 566.992 947.827 567.432 948.595 568.312C949.379 569.192 949.771 570.36 949.771 571.816V580H946.699V572.92C946.699 571.784 946.523 570.944 946.171 570.4C945.819 569.856 945.251 569.584 944.467 569.584C943.619 569.584 942.955 569.872 942.475 570.448C942.011 571.024 941.779 571.848 941.779 572.92V580H938.707V562.96H941.779ZM959.633 574.264C959.761 574.952 960.001 575.544 960.353 576.04C960.705 576.52 961.161 576.896 961.721 577.168C962.297 577.44 962.969 577.576 963.737 577.576C964.345 577.576 964.873 577.496 965.321 577.336C965.785 577.176 966.137 576.944 966.377 576.64C966.633 576.32 966.761 575.928 966.761 575.464C966.745 574.76 966.417 574.184 965.777 573.736C965.137 573.272 964.089 572.864 962.633 572.512C960.793 572.064 959.361 571.44 958.337 570.64C957.329 569.84 956.825 568.792 956.825 567.496C956.825 566.504 957.081 565.64 957.593 564.904C958.105 564.152 958.825 563.576 959.753 563.176C960.681 562.776 961.753 562.576 962.969 562.576C964.201 562.576 965.297 562.816 966.257 563.296C967.233 563.776 968.009 564.44 968.585 565.288C969.161 566.136 969.513 567.12 969.641 568.24L966.497 568.384C966.433 567.76 966.241 567.216 965.921 566.752C965.601 566.272 965.185 565.904 964.673 565.648C964.161 565.392 963.577 565.264 962.921 565.264C962.041 565.264 961.329 565.472 960.785 565.888C960.257 566.304 960.001 566.856 960.017 567.544C960.033 568.024 960.201 568.432 960.521 568.768C960.857 569.088 961.273 569.344 961.769 569.536C962.265 569.728 962.897 569.92 963.665 570.112C963.729 570.128 963.825 570.152 963.953 570.184C965.841 570.648 967.313 571.304 968.369 572.152C969.425 572.984 969.953 574.032 969.953 575.296C969.953 576.336 969.665 577.232 969.089 577.984C968.529 578.736 967.769 579.312 966.809 579.712C965.849 580.096 964.777 580.288 963.593 580.288C962.265 580.288 961.081 580.048 960.041 579.568C959.001 579.088 958.169 578.408 957.545 577.528C956.921 576.648 956.561 575.624 956.465 574.456L959.633 574.264ZM975.635 564.4V576.088C975.635 576.584 975.755 576.968 975.995 577.24C976.251 577.496 976.611 577.624 977.075 577.624H978.995V580H976.571C975.259 580 974.259 579.672 973.571 579.016C972.899 578.36 972.563 577.384 972.563 576.088V564.4H975.635ZM978.995 567.28V569.656H970.547V567.28H978.995ZM980.02 571.168C980.276 569.84 980.892 568.816 981.868 568.096C982.86 567.36 984.14 566.992 985.708 566.992C987.532 566.992 988.916 567.456 989.86 568.384C990.82 569.312 991.3 570.672 991.3 572.464V576.832C991.3 577.184 991.364 577.432 991.492 577.576C991.636 577.704 991.836 577.768 992.092 577.768H992.596V580L991.876 580.024H991.612C990.876 580.056 990.22 579.944 989.644 579.688C989.068 579.416 988.732 578.872 988.636 578.056C988.316 578.728 987.788 579.272 987.052 579.688C986.332 580.088 985.444 580.288 984.388 580.288C983.076 580.288 981.98 579.96 981.1 579.304C980.236 578.648 979.804 577.768 979.804 576.664C979.804 575.864 979.988 575.216 980.356 574.72C980.74 574.224 981.276 573.84 981.964 573.568C982.652 573.28 983.548 573.024 984.652 572.8L988.204 572.104C988.204 571.112 987.996 570.384 987.58 569.92C987.164 569.44 986.54 569.2 985.708 569.2C985.02 569.2 984.46 569.384 984.028 569.752C983.596 570.104 983.308 570.632 983.164 571.336L980.02 571.168ZM982.996 576.568C982.996 577.032 983.188 577.408 983.572 577.696C983.956 577.984 984.508 578.128 985.228 578.128C985.82 578.128 986.34 577.984 986.788 577.696C987.252 577.408 987.612 576.984 987.868 576.424C988.14 575.848 988.276 575.16 988.276 574.36V574.192L985.852 574.624C985.74 574.64 985.62 574.656 985.492 574.672C984.916 574.784 984.452 574.904 984.1 575.032C983.764 575.144 983.492 575.328 983.284 575.584C983.092 575.824 982.996 576.152 982.996 576.568ZM1002.21 571.96C1002.08 571.192 1001.76 570.592 1001.25 570.16C1000.76 569.712 1000.16 569.488 999.476 569.488C998.484 569.488 997.716 569.848 997.172 570.568C996.628 571.288 996.356 572.312 996.356 573.64C996.356 574.968 996.628 575.992 997.172 576.712C997.716 577.432 998.484 577.792 999.476 577.792C1000.2 577.792 1000.81 577.568 1001.32 577.12C1001.84 576.656 1002.15 576 1002.26 575.152L1005.45 575.296C1005.34 576.304 1005.01 577.184 1004.47 577.936C1003.92 578.688 1003.22 579.272 1002.36 579.688C1001.49 580.088 1000.53 580.288 999.476 580.288C998.212 580.288 997.108 580.016 996.164 579.472C995.22 578.928 994.484 578.152 993.956 577.144C993.428 576.136 993.164 574.968 993.164 573.64C993.164 572.312 993.428 571.144 993.956 570.136C994.484 569.128 995.22 568.352 996.164 567.808C997.108 567.264 998.212 566.992 999.476 566.992C1000.5 566.992 1001.44 567.192 1002.28 567.592C1003.15 567.976 1003.85 568.528 1004.4 569.248C1004.94 569.968 1005.27 570.816 1005.38 571.792L1002.21 571.96ZM1009.82 562.96V573.016L1015.03 567.28H1018.8L1013.83 572.536L1019.04 580H1015.58L1011.82 574.384L1009.82 576.52V580H1006.75V562.96H1009.82Z" fill="#0A0A0A"/>
<rect x="958.985" y="600.5" width="2" height="788" fill="url(#paint2_linear_243_340)"/>
<path d="M869.775 327.83L867 332.593L864.225 327.83H855L867 348.455L879 327.83H869.775Z" fill="#42B883"/>
<path d="M869.775 327.83L867 332.593L864.225 327.83H859.8L867 340.205L874.2 327.83H869.775Z" fill="#35495E"/>
</g>
<defs>
<filter id="filter0_dd_243_340" x="467" y="307" width="60" height="60" filterUnits="userSpaceOnUse" color-interpolation-filters="sRGB">
<feFlood flood-opacity="0" result="BackgroundImageFix"/>
<feColorMatrix in="SourceAlpha" type="matrix" values="0 0 0 0 0 0 0 0 0 0 0 0 0 0 0 0 0 0 127 0" result="hardAlpha"/>
<feOffset dy="1"/>
<feGaussianBlur stdDeviation="1"/>
<feComposite in2="hardAlpha" operator="out"/>
<feColorMatrix type="matrix" values="0 0 0 0 0 0 0 0 0 0 0 0 0 0 0 0 0 0 0.16 0"/>
<feBlend mode="normal" in2="BackgroundImageFix" result="effect1_dropShadow_243_340"/>
<feColorMatrix in="SourceAlpha" type="matrix" values="0 0 0 0 0 0 0 0 0 0 0 0 0 0 0 0 0 0 127 0" result="hardAlpha"/>
<feMorphology radius="1" operator="dilate" in="SourceAlpha" result="effect2_dropShadow_243_340"/>
<feOffset/>
<feComposite in2="hardAlpha" operator="out"/>
<feColorMatrix type="matrix" values="0 0 0 0 1 0 0 0 0 1 0 0 0 0 1 0 0 0 0.145 0"/>
<feBlend mode="normal" in2="effect1_dropShadow_243_340" result="effect2_dropShadow_243_340"/>
<feBlend mode="normal" in="SourceGraphic" in2="effect2_dropShadow_243_340" result="shape"/>
</filter>
<filter id="filter1_dd_243_340" x="652.188" y="307" width="60" height="60" filterUnits="userSpaceOnUse" color-interpolation-filters="sRGB">
<feFlood flood-opacity="0" result="BackgroundImageFix"/>
<feColorMatrix in="SourceAlpha" type="matrix" values="0 0 0 0 0 0 0 0 0 0 0 0 0 0 0 0 0 0 127 0" result="hardAlpha"/>
<feOffset dy="1"/>
<feGaussianBlur stdDeviation="1"/>
<feComposite in2="hardAlpha" operator="out"/>
<feColorMatrix type="matrix" values="0 0 0 0 0 0 0 0 0 0 0 0 0 0 0 0 0 0 0.16 0"/>
<feBlend mode="normal" in2="BackgroundImageFix" result="effect1_dropShadow_243_340"/>
<feColorMatrix in="SourceAlpha" type="matrix" values="0 0 0 0 0 0 0 0 0 0 0 0 0 0 0 0 0 0 127 0" result="hardAlpha"/>
<feMorphology radius="1" operator="dilate" in="SourceAlpha" result="effect2_dropShadow_243_340"/>
<feOffset/>
<feComposite in2="hardAlpha" operator="out"/>
<feColorMatrix type="matrix" values="0 0 0 0 1 0 0 0 0 1 0 0 0 0 1 0 0 0 0.145 0"/>
<feBlend mode="normal" in2="effect1_dropShadow_243_340" result="effect2_dropShadow_243_340"/>
<feBlend mode="normal" in="SourceGraphic" in2="effect2_dropShadow_243_340" result="shape"/>
</filter>
<filter id="filter2_dd_243_340" x="837.376" y="307" width="60" height="60" filterUnits="userSpaceOnUse" color-interpolation-filters="sRGB">
<feFlood flood-opacity="0" result="BackgroundImageFix"/>
<feColorMatrix in="SourceAlpha" type="matrix" values="0 0 0 0 0 0 0 0 0 0 0 0 0 0 0 0 0 0 127 0" result="hardAlpha"/>
<feOffset dy="1"/>
<feGaussianBlur stdDeviation="1"/>
<feComposite in2="hardAlpha" operator="out"/>
<feColorMatrix type="matrix" values="0 0 0 0 0 0 0 0 0 0 0 0 0 0 0 0 0 0 0.16 0"/>
<feBlend mode="normal" in2="BackgroundImageFix" result="effect1_dropShadow_243_340"/>
<feColorMatrix in="SourceAlpha" type="matrix" values="0 0 0 0 0 0 0 0 0 0 0 0 0 0 0 0 0 0 127 0" result="hardAlpha"/>
<feMorphology radius="1" operator="dilate" in="SourceAlpha" result="effect2_dropShadow_243_340"/>
<feOffset/>
<feComposite in2="hardAlpha" operator="out"/>
<feColorMatrix type="matrix" values="0 0 0 0 1 0 0 0 0 1 0 0 0 0 1 0 0 0 0.145 0"/>
<feBlend mode="normal" in2="effect1_dropShadow_243_340" result="effect2_dropShadow_243_340"/>
<feBlend mode="normal" in="SourceGraphic" in2="effect2_dropShadow_243_340" result="shape"/>
</filter>
<filter id="filter3_dd_243_340" x="1022.56" y="307" width="60" height="60" filterUnits="userSpaceOnUse" color-interpolation-filters="sRGB">
<feFlood flood-opacity="0" result="BackgroundImageFix"/>
<feColorMatrix in="SourceAlpha" type="matrix" values="0 0 0 0 0 0 0 0 0 0 0 0 0 0 0 0 0 0 127 0" result="hardAlpha"/>
<feOffset dy="1"/>
<feGaussianBlur stdDeviation="1"/>
<feComposite in2="hardAlpha" operator="out"/>
<feColorMatrix type="matrix" values="0 0 0 0 0 0 0 0 0 0 0 0 0 0 0 0 0 0 0.16 0"/>
<feBlend mode="normal" in2="BackgroundImageFix" result="effect1_dropShadow_243_340"/>
<feColorMatrix in="SourceAlpha" type="matrix" values="0 0 0 0 0 0 0 0 0 0 0 0 0 0 0 0 0 0 127 0" result="hardAlpha"/>
<feMorphology radius="1" operator="dilate" in="SourceAlpha" result="effect2_dropShadow_243_340"/>
<feOffset/>
<feComposite in2="hardAlpha" operator="out"/>
<feColorMatrix type="matrix" values="0 0 0 0 1 0 0 0 0 1 0 0 0 0 1 0 0 0 0.145 0"/>
<feBlend mode="normal" in2="effect1_dropShadow_243_340" result="effect2_dropShadow_243_340"/>
<feBlend mode="normal" in="SourceGraphic" in2="effect2_dropShadow_243_340" result="shape"/>
</filter>
<filter id="filter4_dd_243_340" x="1207.75" y="307" width="60" height="60" filterUnits="userSpaceOnUse" color-interpolation-filters="sRGB">
<feFlood flood-opacity="0" result="BackgroundImageFix"/>
<feColorMatrix in="SourceAlpha" type="matrix" values="0 0 0 0 0 0 0 0 0 0 0 0 0 0 0 0 0 0 127 0" result="hardAlpha"/>
<feOffset dy="1"/>
<feGaussianBlur stdDeviation="1"/>
<feComposite in2="hardAlpha" operator="out"/>
<feColorMatrix type="matrix" values="0 0 0 0 0 0 0 0 0 0 0 0 0 0 0 0 0 0 0.16 0"/>
<feBlend mode="normal" in2="BackgroundImageFix" result="effect1_dropShadow_243_340"/>
<feColorMatrix in="SourceAlpha" type="matrix" values="0 0 0 0 0 0 0 0 0 0 0 0 0 0 0 0 0 0 127 0" result="hardAlpha"/>
<feMorphology radius="1" operator="dilate" in="SourceAlpha" result="effect2_dropShadow_243_340"/>
<feOffset/>
<feComposite in2="hardAlpha" operator="out"/>
<feColorMatrix type="matrix" values="0 0 0 0 1 0 0 0 0 1 0 0 0 0 1 0 0 0 0.145 0"/>
<feBlend mode="normal" in2="effect1_dropShadow_243_340" result="effect2_dropShadow_243_340"/>
<feBlend mode="normal" in="SourceGraphic" in2="effect2_dropShadow_243_340" result="shape"/>
</filter>
<filter id="filter5_dd_243_340" x="1392.94" y="307" width="60" height="60" filterUnits="userSpaceOnUse" color-interpolation-filters="sRGB">
<feFlood flood-opacity="0" result="BackgroundImageFix"/>
<feColorMatrix in="SourceAlpha" type="matrix" values="0 0 0 0 0 0 0 0 0 0 0 0 0 0 0 0 0 0 127 0" result="hardAlpha"/>
<feOffset dy="1"/>
<feGaussianBlur stdDeviation="1"/>
<feComposite in2="hardAlpha" operator="out"/>
<feColorMatrix type="matrix" values="0 0 0 0 0 0 0 0 0 0 0 0 0 0 0 0 0 0 0.16 0"/>
<feBlend mode="normal" in2="BackgroundImageFix" result="effect1_dropShadow_243_340"/>
<feColorMatrix in="SourceAlpha" type="matrix" values="0 0 0 0 0 0 0 0 0 0 0 0 0 0 0 0 0 0 127 0" result="hardAlpha"/>
<feMorphology radius="1" operator="dilate" in="SourceAlpha" result="effect2_dropShadow_243_340"/>
<feOffset/>
<feComposite in2="hardAlpha" operator="out"/>
<feColorMatrix type="matrix" values="0 0 0 0 1 0 0 0 0 1 0 0 0 0 1 0 0 0 0.145 0"/>
<feBlend mode="normal" in2="effect1_dropShadow_243_340" result="effect2_dropShadow_243_340"/>
<feBlend mode="normal" in="SourceGraphic" in2="effect2_dropShadow_243_340" result="shape"/>
</filter>
<linearGradient id="paint0_linear_243_340" x1="-nan" y1="-nan" x2="-nan" y2="-nan" gradientUnits="userSpaceOnUse">
<stop stop-color="white"/>
<stop offset="0.609375" stop-color="white" stop-opacity="0.57"/>
<stop offset="0.796875" stop-color="white" stop-opacity="0"/>
<stop offset="1" stop-color="white" stop-opacity="0"/>
</linearGradient>
<linearGradient id="paint1_linear_243_340" x1="500.875" y1="338.125" x2="508.115" y2="346.798" gradientUnits="userSpaceOnUse">
<stop stop-color="white"/>
<stop offset="1" stop-color="white" stop-opacity="0"/>
</linearGradient>
<linearGradient id="paint2_linear_243_340" x1="959.985" y1="1388.5" x2="959.985" y2="600.5" gradientUnits="userSpaceOnUse">
<stop stop-opacity="0"/>
<stop offset="1" stop-color="#EDEDED"/>
</linearGradient>
<clipPath id="clip0_243_340">
<rect width="981.97" height="1080.5" fill="white" transform="translate(469 308)"/>
</clipPath>
<clipPath id="clip1_243_340">
<rect width="32" height="32" fill="white" transform="translate(481 320)"/>
</clipPath>
<clipPath id="clip2_243_340">
<rect width="32" height="32" fill="white" transform="translate(666.188 320)"/>
</clipPath>
<clipPath id="clip3_243_340">
<rect width="30" height="30" fill="white" transform="translate(1408 321)"/>
</clipPath>
<clipPath id="clip4_243_340">
<rect width="925.969" height="180" fill="white" transform="translate(497 364)"/>
</clipPath>
</defs>
</svg>
