<svg width="872" height="731" viewBox="0 0 872 731" fill="none" xmlns="http://www.w3.org/2000/svg">
<g opacity="0.7">
<path opacity="0.11" d="M228.357 548.731C228.901 548.377 229.056 547.65 228.703 547.105C228.349 546.561 227.622 546.406 227.077 546.759C226.533 547.113 226.378 547.84 226.731 548.385C227.085 548.929 227.812 549.084 228.357 548.731Z" fill="white"/>
<path d="M235.071 552.072C235.479 551.807 235.596 551.262 235.331 550.854C235.066 550.445 234.52 550.329 234.112 550.594C233.704 550.859 233.588 551.405 233.853 551.813C234.118 552.221 234.663 552.337 235.071 552.072Z" fill="white"/>
<path d="M244.618 531.178C245.026 530.913 245.142 530.368 244.878 529.96C244.613 529.551 244.067 529.435 243.659 529.7C243.251 529.965 243.135 530.511 243.4 530.919C243.664 531.327 244.21 531.443 244.618 531.178Z" fill="white"/>
<path d="M202.104 557.365C202.513 557.1 202.629 556.555 202.364 556.147C202.099 555.738 201.553 555.622 201.145 555.887C200.737 556.152 200.621 556.698 200.886 557.106C201.151 557.514 201.696 557.63 202.104 557.365Z" fill="white"/>
<path opacity="0.11" d="M185.388 585.015C185.932 584.661 186.087 583.934 185.734 583.389C185.381 582.845 184.653 582.69 184.109 583.043C183.564 583.397 183.409 584.124 183.763 584.669C184.116 585.213 184.844 585.368 185.388 585.015Z" fill="white"/>
<path d="M168.999 580.249C169.271 580.073 169.348 579.709 169.172 579.437C168.995 579.165 168.632 579.088 168.36 579.264C168.088 579.441 168.01 579.804 168.187 580.076C168.363 580.348 168.727 580.426 168.999 580.249Z" fill="white"/>
<path d="M239.342 568.904C239.614 568.727 239.692 568.364 239.515 568.092C239.339 567.82 238.975 567.742 238.703 567.919C238.431 568.095 238.354 568.459 238.531 568.731C238.707 569.003 239.07 569.08 239.342 568.904Z" fill="white"/>
<path d="M346.741 499.211C347.013 499.034 347.09 498.671 346.914 498.399C346.737 498.127 346.374 498.049 346.102 498.226C345.83 498.402 345.752 498.766 345.929 499.038C346.105 499.31 346.469 499.387 346.741 499.211Z" fill="white"/>
<path d="M383.171 437.76C383.443 437.584 383.52 437.22 383.343 436.949C383.167 436.677 382.803 436.599 382.531 436.776C382.26 436.952 382.182 437.316 382.359 437.588C382.535 437.86 382.899 437.937 383.171 437.76Z" fill="white"/>
<path d="M425.725 461.254C425.997 461.077 426.075 460.714 425.898 460.442C425.722 460.17 425.358 460.092 425.086 460.269C424.814 460.445 424.737 460.809 424.913 461.081C425.09 461.353 425.453 461.43 425.725 461.254Z" fill="white"/>
<path d="M67.3034 663.047C67.5753 662.87 67.6527 662.507 67.4762 662.235C67.2998 661.963 66.9362 661.885 66.6643 662.062C66.3923 662.238 66.315 662.602 66.4914 662.874C66.6679 663.146 67.0314 663.223 67.3034 663.047Z" fill="white"/>
<path opacity="0.11" d="M42.6549 641.239C42.9269 641.062 43.0043 640.698 42.8278 640.427C42.6513 640.155 42.2878 640.077 42.0158 640.254C41.7439 640.43 41.6665 640.794 41.843 641.066C42.0195 641.338 42.383 641.415 42.6549 641.239Z" fill="white"/>
<path opacity="0.11" d="M28.8268 666.316C29.0987 666.139 29.1761 665.776 28.9996 665.504C28.8232 665.232 28.4597 665.154 28.1877 665.331C27.9158 665.507 27.8384 665.871 28.0148 666.143C28.1913 666.415 28.5548 666.492 28.8268 666.316Z" fill="white"/>
<path opacity="0.11" d="M64.2643 685.324C64.5363 685.148 64.6136 684.784 64.4371 684.512C64.2607 684.241 63.8972 684.163 63.6252 684.34C63.3533 684.516 63.2759 684.88 63.4523 685.152C63.6288 685.424 63.9924 685.501 64.2643 685.324Z" fill="white"/>
<path opacity="0.11" d="M168.717 589.531C168.989 589.355 169.067 588.991 168.89 588.719C168.714 588.448 168.35 588.37 168.078 588.547C167.806 588.723 167.729 589.087 167.905 589.359C168.082 589.631 168.445 589.708 168.717 589.531Z" fill="white"/>
<path opacity="0.11" d="M249.874 587.278C250.146 587.101 250.223 586.738 250.047 586.466C249.87 586.194 249.507 586.116 249.235 586.293C248.963 586.469 248.885 586.833 249.062 587.105C249.238 587.377 249.602 587.454 249.874 587.278Z" fill="white"/>
<path opacity="0.11" d="M341.257 520.969C341.528 520.793 341.606 520.429 341.429 520.157C341.253 519.886 340.889 519.808 340.617 519.985C340.345 520.161 340.268 520.525 340.445 520.797C340.621 521.069 340.985 521.146 341.257 520.969Z" fill="white"/>
<path opacity="0.3" d="M81.9753 636.024C82.2472 635.847 82.3246 635.484 82.1481 635.212C81.9716 634.94 81.6081 634.862 81.3361 635.039C81.0642 635.215 80.9868 635.579 81.1633 635.851C81.3398 636.123 81.7033 636.2 81.9753 636.024Z" fill="white"/>
<path d="M178.014 535.891C178.286 535.715 178.364 535.351 178.187 535.079C178.011 534.807 177.647 534.73 177.375 534.907C177.103 535.083 177.026 535.447 177.202 535.718C177.379 535.99 177.742 536.068 178.014 535.891Z" fill="white"/>
<path d="M253.241 485.675C253.513 485.498 253.59 485.135 253.414 484.863C253.237 484.591 252.874 484.513 252.602 484.69C252.33 484.866 252.252 485.23 252.429 485.502C252.605 485.774 252.969 485.851 253.241 485.675Z" fill="white"/>
<path d="M173.928 602.953C174.2 602.777 174.278 602.413 174.101 602.141C173.925 601.869 173.561 601.792 173.289 601.969C173.017 602.145 172.94 602.509 173.116 602.78C173.293 603.052 173.656 603.13 173.928 602.953Z" fill="white"/>
<path opacity="0.3" d="M139.444 625.334C139.716 625.157 139.793 624.794 139.617 624.522C139.44 624.25 139.077 624.172 138.805 624.349C138.533 624.525 138.456 624.889 138.632 625.161C138.809 625.433 139.172 625.51 139.444 625.334Z" fill="white"/>
<path opacity="0.11" d="M79.2331 621.003C79.505 620.826 79.5824 620.463 79.4059 620.191C79.2294 619.919 78.8659 619.841 78.594 620.018C78.322 620.194 78.2446 620.558 78.4211 620.83C78.5976 621.102 78.9611 621.179 79.2331 621.003Z" fill="white"/>
<path opacity="0.3" d="M194.561 541.96C194.833 541.783 194.911 541.42 194.734 541.148C194.558 540.876 194.194 540.798 193.922 540.975C193.65 541.151 193.573 541.515 193.749 541.787C193.926 542.059 194.289 542.136 194.561 541.96Z" fill="white"/>
<path opacity="0.3" d="M188.381 606.879C188.653 606.702 188.731 606.339 188.554 606.067C188.378 605.795 188.014 605.717 187.742 605.894C187.47 606.07 187.393 606.434 187.57 606.706C187.746 606.978 188.11 607.055 188.381 606.879Z" fill="white"/>
<path opacity="0.3" d="M131.967 650.487C132.239 650.311 132.317 649.947 132.14 649.676C131.964 649.404 131.6 649.326 131.328 649.503C131.056 649.679 130.979 650.043 131.155 650.315C131.332 650.587 131.695 650.664 131.967 650.487Z" fill="white"/>
<path opacity="0.3" d="M96.2643 626.755C96.5363 626.578 96.6137 626.215 96.4372 625.943C96.2607 625.671 95.8972 625.593 95.6252 625.77C95.3533 625.946 95.2759 626.31 95.4524 626.582C95.6289 626.854 95.9924 626.931 96.2643 626.755Z" fill="white"/>
<path opacity="0.3" d="M401.717 426.426C401.989 426.25 402.067 425.886 401.89 425.615C401.714 425.343 401.35 425.265 401.078 425.442C400.806 425.618 400.729 425.982 400.905 426.254C401.082 426.526 401.446 426.603 401.717 426.426Z" fill="white"/>
<path opacity="0.11" d="M309.296 457.697C309.567 457.521 309.645 457.157 309.468 456.886C309.292 456.614 308.928 456.536 308.656 456.713C308.385 456.889 308.307 457.253 308.484 457.525C308.66 457.797 309.024 457.874 309.296 457.697Z" fill="white"/>
<path opacity="0.11" d="M402.163 456.239C402.435 456.062 402.512 455.698 402.336 455.427C402.159 455.155 401.796 455.077 401.524 455.254C401.252 455.43 401.174 455.794 401.351 456.066C401.527 456.338 401.891 456.415 402.163 456.239Z" fill="white"/>
<path opacity="0.3" d="M280.404 541.558C280.948 541.204 281.103 540.477 280.75 539.932C280.396 539.388 279.669 539.233 279.124 539.586C278.58 539.94 278.425 540.667 278.778 541.212C279.132 541.756 279.859 541.911 280.404 541.558Z" fill="white"/>
<path opacity="0.11" d="M299.88 507.917C300.425 507.563 300.579 506.836 300.226 506.291C299.873 505.747 299.145 505.592 298.601 505.945C298.057 506.299 297.902 507.026 298.255 507.571C298.608 508.115 299.336 508.27 299.88 507.917Z" fill="white"/>
<path d="M288.446 490.834C288.854 490.57 288.971 490.024 288.706 489.616C288.441 489.208 287.895 489.091 287.487 489.356C287.079 489.621 286.963 490.167 287.228 490.575C287.493 490.983 288.038 491.099 288.446 490.834Z" fill="white"/>
<path d="M288.026 564.619C288.434 564.354 288.551 563.809 288.286 563.4C288.021 562.992 287.475 562.876 287.067 563.141C286.659 563.406 286.543 563.951 286.808 564.36C287.073 564.768 287.618 564.884 288.026 564.619Z" fill="white"/>
<path d="M457.972 468.333C458.38 468.069 458.496 467.523 458.231 467.115C457.966 466.707 457.421 466.59 457.012 466.855C456.604 467.12 456.488 467.666 456.753 468.074C457.018 468.482 457.564 468.598 457.972 468.333Z" fill="white"/>
<path d="M132.815 667.44C133.224 667.175 133.34 666.63 133.075 666.222C132.81 665.814 132.264 665.697 131.856 665.962C131.448 666.227 131.332 666.773 131.597 667.181C131.862 667.589 132.407 667.705 132.815 667.44Z" fill="white"/>
<path d="M59.9463 698.628C60.3544 698.363 60.4705 697.818 60.2057 697.41C59.9408 697.002 59.3952 696.885 58.9871 697.15C58.5789 697.415 58.4628 697.961 58.7276 698.369C58.9925 698.777 59.5381 698.893 59.9463 698.628Z" fill="white"/>
<path d="M38.7822 684.358C39.1904 684.093 39.3065 683.548 39.0416 683.14C38.7768 682.732 38.2312 682.615 37.823 682.88C37.4149 683.145 37.2987 683.691 37.5636 684.099C37.8285 684.507 38.3741 684.623 38.7822 684.358Z" fill="white"/>
<path d="M271.196 516.032C271.604 515.767 271.721 515.222 271.456 514.814C271.191 514.405 270.645 514.289 270.237 514.554C269.829 514.819 269.713 515.365 269.978 515.773C270.243 516.181 270.788 516.297 271.196 516.032Z" fill="white"/>
<path d="M209.136 608.113C209.544 607.848 209.66 607.303 209.395 606.895C209.13 606.486 208.585 606.37 208.177 606.635C207.768 606.9 207.652 607.446 207.917 607.854C208.182 608.262 208.728 608.378 209.136 608.113Z" fill="white"/>
<path d="M347.026 548.734C347.434 548.469 347.551 547.924 347.286 547.516C347.021 547.107 346.475 546.991 346.067 547.256C345.659 547.521 345.543 548.067 345.808 548.475C346.073 548.883 346.618 548.999 347.026 548.734Z" fill="white"/>
<path d="M455.829 430.515C456.237 430.25 456.353 429.705 456.088 429.296C455.824 428.888 455.278 428.772 454.87 429.037C454.462 429.302 454.346 429.847 454.61 430.256C454.875 430.664 455.421 430.78 455.829 430.515Z" fill="white"/>
<path d="M450.071 395.748C450.479 395.483 450.596 394.938 450.331 394.529C450.066 394.121 449.52 394.005 449.112 394.27C448.704 394.535 448.588 395.08 448.853 395.489C449.118 395.897 449.663 396.013 450.071 395.748Z" fill="white"/>
<path opacity="0.3" d="M329.411 464.951C329.956 464.598 330.111 463.87 329.757 463.325C329.404 462.781 328.676 462.626 328.132 462.979C327.588 463.333 327.433 464.06 327.786 464.605C328.139 465.149 328.867 465.304 329.411 464.951Z" fill="white"/>
<path d="M306.708 429.976C307.253 429.622 307.408 428.895 307.054 428.35C306.701 427.806 305.973 427.651 305.429 428.004C304.885 428.358 304.73 429.085 305.083 429.63C305.436 430.174 306.164 430.329 306.708 429.976Z" fill="white"/>
<path d="M361.815 459.325C362.224 459.06 362.34 458.515 362.075 458.106C361.81 457.698 361.264 457.582 360.856 457.847C360.448 458.112 360.332 458.658 360.597 459.066C360.862 459.474 361.407 459.59 361.815 459.325Z" fill="white"/>
<path opacity="0.3" d="M373.24 424.607C373.784 424.254 373.939 423.526 373.586 422.982C373.232 422.437 372.505 422.282 371.96 422.636C371.416 422.989 371.261 423.717 371.614 424.261C371.968 424.805 372.695 424.96 373.24 424.607Z" fill="white"/>
<path opacity="0.3" d="M444.708 427.934C445.253 427.58 445.408 426.853 445.054 426.308C444.701 425.764 443.973 425.609 443.429 425.962C442.885 426.316 442.73 427.043 443.083 427.588C443.436 428.132 444.164 428.287 444.708 427.934Z" fill="white"/>
<path opacity="0.3" d="M387.708 466.323C388.253 465.97 388.408 465.242 388.054 464.698C387.701 464.153 386.973 463.998 386.429 464.352C385.885 464.705 385.73 465.433 386.083 465.977C386.436 466.521 387.164 466.676 387.708 466.323Z" fill="white"/>
<path opacity="0.3" d="M110.372 658.202C110.917 657.848 111.072 657.121 110.718 656.576C110.365 656.032 109.637 655.877 109.093 656.23C108.549 656.584 108.394 657.311 108.747 657.856C109.1 658.4 109.828 658.555 110.372 658.202Z" fill="white"/>
<path opacity="0.3" d="M52.8801 657.003C53.4245 656.65 53.5794 655.923 53.2261 655.378C52.8729 654.834 52.1452 654.679 51.6009 655.032C51.0565 655.385 50.9016 656.113 51.2549 656.658C51.6081 657.202 52.3358 657.357 52.8801 657.003Z" fill="white"/>
<path opacity="0.11" d="M414.919 426.263C415.464 425.91 415.618 425.182 415.265 424.638C414.912 424.093 414.184 423.938 413.64 424.292C413.096 424.645 412.941 425.372 413.294 425.917C413.647 426.461 414.375 426.616 414.919 426.263Z" fill="white"/>
<path opacity="0.3" d="M112.458 594.539C113.003 594.185 113.158 593.458 112.804 592.913C112.451 592.369 111.723 592.214 111.179 592.567C110.635 592.921 110.48 593.648 110.833 594.193C111.186 594.737 111.914 594.892 112.458 594.539Z" fill="white"/>
<path opacity="0.11" d="M92.763 593.318C93.3073 592.965 93.4622 592.237 93.109 591.693C92.7557 591.148 92.028 590.993 91.4837 591.347C90.9393 591.7 90.7844 592.428 91.1377 592.972C91.4909 593.516 92.2186 593.671 92.763 593.318Z" fill="white"/>
<path opacity="0.3" d="M109.286 627.403C109.831 627.05 109.986 626.322 109.632 625.778C109.279 625.233 108.551 625.078 108.007 625.432C107.463 625.785 107.308 626.513 107.661 627.057C108.014 627.601 108.742 627.756 109.286 627.403Z" fill="white"/>
<path d="M139.751 606.93C140.159 606.665 140.275 606.12 140.01 605.711C139.745 605.303 139.2 605.187 138.792 605.452C138.384 605.717 138.267 606.262 138.532 606.671C138.797 607.079 139.343 607.195 139.751 606.93Z" fill="white"/>
<path opacity="0.11" d="M301.091 287.733C301.635 287.38 301.79 286.652 301.437 286.108C301.084 285.563 300.356 285.408 299.812 285.762C299.267 286.115 299.113 286.843 299.466 287.387C299.819 287.931 300.547 288.086 301.091 287.733Z" fill="white"/>
<path d="M307.808 291.075C308.216 290.81 308.332 290.265 308.067 289.856C307.802 289.448 307.257 289.332 306.848 289.597C306.44 289.862 306.324 290.408 306.589 290.816C306.854 291.224 307.399 291.34 307.808 291.075Z" fill="white"/>
<path d="M317.354 270.18C317.763 269.915 317.879 269.37 317.614 268.961C317.349 268.553 316.803 268.437 316.395 268.702C315.987 268.967 315.871 269.513 316.136 269.921C316.401 270.329 316.946 270.445 317.354 270.18Z" fill="white"/>
<path d="M274.837 296.368C275.245 296.103 275.361 295.558 275.096 295.149C274.831 294.741 274.286 294.625 273.878 294.89C273.47 295.155 273.353 295.701 273.618 296.109C273.883 296.517 274.429 296.633 274.837 296.368Z" fill="white"/>
<path opacity="0.11" d="M258.122 324.017C258.667 323.663 258.822 322.936 258.468 322.391C258.115 321.847 257.387 321.692 256.843 322.045C256.299 322.399 256.144 323.126 256.497 323.671C256.85 324.215 257.578 324.37 258.122 324.017Z" fill="white"/>
<path d="M241.733 319.253C242.005 319.076 242.082 318.713 241.906 318.441C241.729 318.169 241.366 318.091 241.094 318.268C240.822 318.444 240.745 318.808 240.921 319.08C241.098 319.352 241.461 319.429 241.733 319.253Z" fill="white"/>
<path d="M312.077 307.905C312.349 307.729 312.426 307.365 312.25 307.094C312.073 306.822 311.71 306.744 311.438 306.921C311.166 307.097 311.088 307.461 311.265 307.733C311.441 308.005 311.805 308.082 312.077 307.905Z" fill="white"/>
<path d="M419.475 238.214C419.747 238.037 419.825 237.674 419.648 237.402C419.472 237.13 419.108 237.052 418.836 237.229C418.564 237.405 418.487 237.769 418.663 238.041C418.84 238.313 419.203 238.39 419.475 238.214Z" fill="white"/>
<path d="M455.905 176.763C456.177 176.587 456.254 176.223 456.078 175.951C455.901 175.679 455.538 175.602 455.266 175.779C454.994 175.955 454.916 176.319 455.093 176.591C455.269 176.862 455.633 176.94 455.905 176.763Z" fill="white"/>
<path d="M498.46 200.259C498.732 200.082 498.809 199.719 498.632 199.447C498.456 199.175 498.092 199.097 497.821 199.274C497.549 199.45 497.471 199.814 497.648 200.086C497.824 200.358 498.188 200.435 498.46 200.259Z" fill="white"/>
<path d="M140.038 402.049C140.31 401.872 140.387 401.509 140.211 401.237C140.034 400.965 139.671 400.887 139.399 401.064C139.127 401.24 139.049 401.604 139.226 401.876C139.402 402.148 139.766 402.225 140.038 402.049Z" fill="white"/>
<path opacity="0.11" d="M115.389 380.24C115.661 380.064 115.739 379.7 115.562 379.428C115.386 379.157 115.022 379.079 114.75 379.256C114.478 379.432 114.401 379.796 114.577 380.068C114.754 380.34 115.117 380.417 115.389 380.24Z" fill="white"/>
<path opacity="0.11" d="M101.561 405.318C101.833 405.141 101.911 404.778 101.734 404.506C101.558 404.234 101.194 404.156 100.922 404.333C100.65 404.509 100.573 404.873 100.749 405.145C100.926 405.417 101.289 405.494 101.561 405.318Z" fill="white"/>
<path opacity="0.11" d="M136.999 424.326C137.271 424.15 137.348 423.786 137.172 423.514C136.995 423.242 136.632 423.165 136.36 423.342C136.088 423.518 136.01 423.882 136.187 424.154C136.363 424.425 136.727 424.503 136.999 424.326Z" fill="white"/>
<path opacity="0.11" d="M241.452 328.533C241.724 328.357 241.801 327.993 241.625 327.721C241.448 327.45 241.085 327.372 240.813 327.549C240.541 327.725 240.463 328.089 240.64 328.361C240.816 328.632 241.18 328.71 241.452 328.533Z" fill="white"/>
<path opacity="0.11" d="M322.608 326.279C322.88 326.103 322.957 325.739 322.781 325.468C322.604 325.196 322.241 325.118 321.969 325.295C321.697 325.471 321.62 325.835 321.796 326.107C321.973 326.379 322.336 326.456 322.608 326.279Z" fill="white"/>
<path opacity="0.11" d="M413.991 259.971C414.263 259.795 414.34 259.431 414.164 259.159C413.987 258.888 413.624 258.81 413.352 258.987C413.08 259.163 413.002 259.527 413.179 259.799C413.355 260.071 413.719 260.148 413.991 259.971Z" fill="white"/>
<path opacity="0.3" d="M154.71 375.027C154.982 374.85 155.059 374.487 154.882 374.215C154.706 373.943 154.342 373.865 154.071 374.042C153.799 374.218 153.721 374.582 153.898 374.854C154.074 375.126 154.438 375.203 154.71 375.027Z" fill="white"/>
<path d="M250.749 274.894C251.021 274.717 251.098 274.354 250.922 274.082C250.745 273.81 250.382 273.732 250.11 273.909C249.838 274.085 249.76 274.449 249.937 274.721C250.113 274.993 250.477 275.07 250.749 274.894Z" fill="white"/>
<path d="M325.975 224.676C326.247 224.5 326.325 224.136 326.148 223.865C325.972 223.593 325.608 223.515 325.336 223.692C325.064 223.868 324.987 224.232 325.163 224.504C325.34 224.776 325.703 224.853 325.975 224.676Z" fill="white"/>
<path d="M246.663 341.957C246.935 341.78 247.012 341.417 246.836 341.145C246.659 340.873 246.296 340.795 246.024 340.972C245.752 341.148 245.674 341.512 245.851 341.784C246.027 342.056 246.391 342.133 246.663 341.957Z" fill="white"/>
<path opacity="0.3" d="M212.178 364.336C212.45 364.159 212.528 363.796 212.351 363.524C212.175 363.252 211.811 363.174 211.539 363.351C211.267 363.527 211.19 363.891 211.366 364.163C211.543 364.435 211.906 364.512 212.178 364.336Z" fill="white"/>
<path opacity="0.11" d="M151.967 360.006C152.239 359.829 152.317 359.466 152.14 359.194C151.964 358.922 151.6 358.844 151.328 359.021C151.056 359.197 150.979 359.561 151.155 359.833C151.332 360.105 151.695 360.182 151.967 360.006Z" fill="white"/>
<path opacity="0.3" d="M267.296 280.962C267.568 280.785 267.645 280.422 267.468 280.15C267.292 279.878 266.928 279.8 266.656 279.977C266.385 280.153 266.307 280.517 266.484 280.789C266.66 281.061 267.024 281.138 267.296 280.962Z" fill="white"/>
<path opacity="0.3" d="M261.116 345.881C261.388 345.704 261.465 345.341 261.289 345.069C261.112 344.797 260.749 344.719 260.477 344.896C260.205 345.072 260.127 345.436 260.304 345.708C260.48 345.98 260.844 346.057 261.116 345.881Z" fill="white"/>
<path opacity="0.3" d="M204.702 389.49C204.974 389.314 205.051 388.95 204.875 388.678C204.698 388.407 204.335 388.329 204.063 388.506C203.791 388.682 203.713 389.046 203.89 389.318C204.066 389.59 204.43 389.667 204.702 389.49Z" fill="white"/>
<path opacity="0.3" d="M168.999 365.757C169.271 365.58 169.348 365.217 169.172 364.945C168.995 364.673 168.632 364.595 168.36 364.772C168.088 364.948 168.01 365.312 168.187 365.584C168.363 365.856 168.727 365.933 168.999 365.757Z" fill="white"/>
<path opacity="0.3" d="M474.452 165.428C474.724 165.252 474.801 164.888 474.625 164.616C474.448 164.345 474.085 164.267 473.813 164.444C473.541 164.62 473.463 164.984 473.64 165.256C473.816 165.528 474.18 165.605 474.452 165.428Z" fill="white"/>
<path opacity="0.11" d="M382.03 196.7C382.302 196.524 382.379 196.16 382.203 195.888C382.026 195.617 381.663 195.539 381.391 195.716C381.119 195.892 381.041 196.256 381.218 196.528C381.394 196.799 381.758 196.877 382.03 196.7Z" fill="white"/>
<path opacity="0.11" d="M474.897 195.241C475.169 195.065 475.246 194.701 475.07 194.429C474.893 194.158 474.53 194.08 474.258 194.257C473.986 194.433 473.909 194.797 474.085 195.069C474.262 195.341 474.625 195.418 474.897 195.241Z" fill="white"/>
<path opacity="0.3" d="M353.138 280.561C353.682 280.207 353.837 279.48 353.484 278.935C353.131 278.391 352.403 278.236 351.859 278.589C351.314 278.943 351.159 279.67 351.513 280.215C351.866 280.759 352.594 280.914 353.138 280.561Z" fill="white"/>
<path opacity="0.11" d="M372.615 246.919C373.159 246.565 373.314 245.838 372.961 245.293C372.607 244.749 371.88 244.594 371.335 244.947C370.791 245.301 370.636 246.028 370.989 246.573C371.343 247.117 372.07 247.272 372.615 246.919Z" fill="white"/>
<path d="M361.183 229.836C361.591 229.571 361.707 229.026 361.442 228.618C361.177 228.21 360.632 228.093 360.223 228.358C359.815 228.623 359.699 229.169 359.964 229.577C360.229 229.985 360.774 230.101 361.183 229.836Z" fill="white"/>
<path d="M360.761 303.621C361.169 303.356 361.285 302.811 361.02 302.402C360.755 301.994 360.21 301.878 359.802 302.143C359.393 302.408 359.277 302.953 359.542 303.362C359.807 303.77 360.353 303.886 360.761 303.621Z" fill="white"/>
<path d="M530.704 207.335C531.112 207.07 531.228 206.525 530.964 206.117C530.699 205.709 530.153 205.592 529.745 205.857C529.337 206.122 529.221 206.668 529.485 207.076C529.75 207.484 530.296 207.6 530.704 207.335Z" fill="white"/>
<path d="M205.55 406.442C205.958 406.177 206.074 405.632 205.809 405.224C205.544 404.816 204.999 404.699 204.591 404.964C204.182 405.229 204.066 405.775 204.331 406.183C204.596 406.591 205.142 406.707 205.55 406.442Z" fill="white"/>
<path d="M132.683 437.63C133.091 437.365 133.207 436.82 132.942 436.412C132.677 436.004 132.132 435.887 131.723 436.152C131.315 436.417 131.199 436.963 131.464 437.371C131.729 437.779 132.274 437.895 132.683 437.63Z" fill="white"/>
<path d="M111.519 423.36C111.927 423.095 112.043 422.55 111.778 422.142C111.513 421.734 110.967 421.617 110.559 421.882C110.151 422.147 110.035 422.693 110.3 423.101C110.565 423.509 111.11 423.625 111.519 423.36Z" fill="white"/>
<path d="M343.933 255.035C344.341 254.77 344.457 254.225 344.192 253.816C343.927 253.408 343.382 253.292 342.973 253.557C342.565 253.822 342.449 254.368 342.714 254.776C342.979 255.184 343.524 255.3 343.933 255.035Z" fill="white"/>
<path d="M281.868 347.115C282.276 346.85 282.392 346.305 282.128 345.897C281.863 345.488 281.317 345.372 280.909 345.637C280.501 345.902 280.385 346.448 280.65 346.856C280.914 347.264 281.46 347.38 281.868 347.115Z" fill="white"/>
<path d="M419.761 287.736C420.169 287.471 420.285 286.926 420.02 286.518C419.755 286.109 419.21 285.993 418.802 286.258C418.393 286.523 418.277 287.069 418.542 287.477C418.807 287.885 419.353 288.001 419.761 287.736Z" fill="white"/>
<path d="M528.565 169.517C528.974 169.252 529.09 168.707 528.825 168.298C528.56 167.89 528.014 167.774 527.606 168.039C527.198 168.304 527.082 168.849 527.347 169.258C527.612 169.666 528.157 169.782 528.565 169.517Z" fill="white"/>
<path d="M522.808 134.751C523.216 134.487 523.332 133.941 523.067 133.533C522.802 133.125 522.257 133.008 521.848 133.273C521.44 133.538 521.324 134.084 521.589 134.492C521.854 134.9 522.399 135.016 522.808 134.751Z" fill="white"/>
<path opacity="0.3" d="M402.146 203.953C402.69 203.599 402.845 202.872 402.492 202.327C402.139 201.783 401.411 201.628 400.866 201.981C400.322 202.335 400.167 203.062 400.52 203.607C400.874 204.151 401.601 204.306 402.146 203.953Z" fill="white"/>
<path d="M379.443 168.978C379.987 168.624 380.142 167.897 379.789 167.352C379.435 166.808 378.708 166.653 378.163 167.006C377.619 167.36 377.464 168.087 377.817 168.632C378.171 169.176 378.898 169.331 379.443 168.978Z" fill="white"/>
<path d="M434.55 198.327C434.958 198.062 435.074 197.517 434.809 197.108C434.544 196.7 433.999 196.584 433.591 196.849C433.182 197.114 433.066 197.659 433.331 198.068C433.596 198.476 434.142 198.592 434.55 198.327Z" fill="white"/>
<path opacity="0.3" d="M445.976 163.609C446.52 163.256 446.675 162.528 446.322 161.984C445.969 161.439 445.241 161.284 444.697 161.638C444.152 161.991 443.997 162.719 444.351 163.263C444.704 163.807 445.431 163.962 445.976 163.609Z" fill="white"/>
<path opacity="0.3" d="M517.443 166.936C517.987 166.582 518.142 165.855 517.789 165.31C517.435 164.766 516.708 164.611 516.163 164.964C515.619 165.318 515.464 166.045 515.817 166.59C516.171 167.134 516.898 167.289 517.443 166.936Z" fill="white"/>
<path opacity="0.3" d="M460.443 205.325C460.987 204.972 461.142 204.244 460.789 203.7C460.435 203.155 459.708 203 459.163 203.354C458.619 203.707 458.464 204.434 458.817 204.979C459.171 205.523 459.898 205.678 460.443 205.325Z" fill="white"/>
<path opacity="0.3" d="M183.107 397.204C183.651 396.85 183.806 396.123 183.453 395.578C183.099 395.034 182.372 394.879 181.827 395.232C181.283 395.586 181.128 396.313 181.481 396.858C181.835 397.402 182.562 397.557 183.107 397.204Z" fill="white"/>
<path opacity="0.3" d="M125.615 396.007C126.159 395.654 126.314 394.926 125.961 394.382C125.607 393.837 124.88 393.682 124.335 394.036C123.791 394.389 123.636 395.117 123.989 395.661C124.343 396.205 125.07 396.36 125.615 396.007Z" fill="white"/>
<path opacity="0.11" d="M487.654 165.265C488.198 164.911 488.353 164.184 488 163.639C487.646 163.095 486.919 162.94 486.374 163.293C485.83 163.647 485.675 164.374 486.028 164.919C486.382 165.463 487.109 165.618 487.654 165.265Z" fill="white"/>
<path opacity="0.3" d="M185.193 333.542C185.737 333.188 185.892 332.461 185.539 331.916C185.185 331.372 184.458 331.217 183.913 331.57C183.369 331.924 183.214 332.651 183.567 333.196C183.921 333.74 184.648 333.895 185.193 333.542Z" fill="white"/>
<path opacity="0.11" d="M165.497 332.32C166.042 331.967 166.197 331.239 165.843 330.695C165.49 330.15 164.762 329.995 164.218 330.349C163.674 330.702 163.519 331.43 163.872 331.974C164.225 332.518 164.953 332.673 165.497 332.32Z" fill="white"/>
<path opacity="0.3" d="M182.021 366.406C182.565 366.053 182.72 365.325 182.367 364.781C182.014 364.236 181.286 364.081 180.742 364.435C180.197 364.788 180.042 365.516 180.396 366.06C180.749 366.604 181.476 366.759 182.021 366.406Z" fill="white"/>
<path d="M212.487 345.932C212.895 345.667 213.012 345.122 212.747 344.713C212.482 344.305 211.936 344.189 211.528 344.454C211.12 344.719 211.004 345.264 211.269 345.673C211.534 346.081 212.079 346.197 212.487 345.932Z" fill="white"/>
<path opacity="0.11" d="M610.226 196.814C610.77 196.46 610.925 195.733 610.572 195.188C610.219 194.644 609.491 194.489 608.947 194.842C608.402 195.196 608.247 195.923 608.601 196.468C608.954 197.012 609.681 197.167 610.226 196.814Z" fill="white"/>
<path d="M616.94 200.155C617.349 199.89 617.465 199.345 617.2 198.937C616.935 198.528 616.389 198.412 615.981 198.677C615.573 198.942 615.457 199.488 615.722 199.896C615.987 200.304 616.532 200.42 616.94 200.155Z" fill="white"/>
<path d="M626.487 179.261C626.895 178.996 627.012 178.451 626.747 178.043C626.482 177.634 625.936 177.518 625.528 177.783C625.12 178.048 625.004 178.594 625.269 179.002C625.534 179.41 626.079 179.526 626.487 179.261Z" fill="white"/>
<path d="M583.972 205.448C584.38 205.183 584.496 204.638 584.231 204.23C583.966 203.821 583.421 203.705 583.012 203.97C582.604 204.235 582.488 204.781 582.753 205.189C583.018 205.597 583.563 205.713 583.972 205.448Z" fill="white"/>
<path opacity="0.11" d="M567.255 233.097C567.799 232.744 567.954 232.016 567.601 231.471C567.248 230.927 566.52 230.772 565.976 231.126C565.432 231.479 565.277 232.206 565.63 232.751C565.983 233.295 566.711 233.45 567.255 233.097Z" fill="white"/>
<path d="M550.866 228.333C551.138 228.156 551.215 227.793 551.039 227.521C550.862 227.249 550.499 227.171 550.227 227.348C549.955 227.524 549.877 227.888 550.054 228.16C550.23 228.432 550.594 228.509 550.866 228.333Z" fill="white"/>
<path d="M621.21 216.987C621.482 216.81 621.559 216.447 621.382 216.175C621.206 215.903 620.843 215.825 620.571 216.002C620.299 216.178 620.221 216.542 620.398 216.814C620.574 217.086 620.938 217.163 621.21 216.987Z" fill="white"/>
<path d="M728.608 147.294C728.88 147.117 728.957 146.754 728.781 146.482C728.604 146.21 728.241 146.132 727.969 146.309C727.697 146.485 727.62 146.849 727.796 147.121C727.973 147.393 728.336 147.47 728.608 147.294Z" fill="white"/>
<path d="M765.038 85.8435C765.31 85.667 765.387 85.3035 765.211 85.0315C765.034 84.7596 764.671 84.6822 764.399 84.8587C764.127 85.0352 764.049 85.3987 764.226 85.6706C764.402 85.9426 764.766 86.02 765.038 85.8435Z" fill="white"/>
<path d="M807.592 109.337C807.864 109.16 807.942 108.797 807.765 108.525C807.589 108.253 807.225 108.175 806.953 108.352C806.681 108.528 806.604 108.892 806.78 109.164C806.957 109.436 807.321 109.513 807.592 109.337Z" fill="white"/>
<path d="M449.171 311.13C449.443 310.953 449.52 310.59 449.343 310.318C449.167 310.046 448.803 309.968 448.531 310.145C448.26 310.321 448.182 310.685 448.359 310.957C448.535 311.229 448.899 311.306 449.171 311.13Z" fill="white"/>
<path opacity="0.11" d="M424.522 289.321C424.794 289.145 424.871 288.781 424.695 288.51C424.519 288.238 424.155 288.16 423.883 288.337C423.611 288.513 423.534 288.877 423.71 289.149C423.887 289.421 424.25 289.498 424.522 289.321Z" fill="white"/>
<path opacity="0.11" d="M410.694 314.399C410.966 314.222 411.043 313.859 410.867 313.587C410.69 313.315 410.327 313.237 410.055 313.414C409.783 313.59 409.706 313.954 409.882 314.226C410.059 314.498 410.422 314.575 410.694 314.399Z" fill="white"/>
<path opacity="0.11" d="M446.132 333.407C446.403 333.231 446.481 332.867 446.304 332.596C446.128 332.324 445.764 332.246 445.492 332.423C445.22 332.599 445.143 332.963 445.32 333.235C445.496 333.507 445.86 333.584 446.132 333.407Z" fill="white"/>
<path opacity="0.11" d="M550.585 237.613C550.857 237.437 550.934 237.073 550.757 236.802C550.581 236.53 550.218 236.452 549.946 236.629C549.674 236.805 549.596 237.169 549.773 237.441C549.949 237.713 550.313 237.79 550.585 237.613Z" fill="white"/>
<path opacity="0.11" d="M631.733 235.361C632.005 235.184 632.082 234.821 631.906 234.549C631.729 234.277 631.366 234.199 631.094 234.376C630.822 234.552 630.745 234.916 630.921 235.188C631.098 235.46 631.461 235.537 631.733 235.361Z" fill="white"/>
<path opacity="0.11" d="M723.124 169.052C723.396 168.876 723.473 168.512 723.297 168.24C723.12 167.969 722.757 167.891 722.485 168.068C722.213 168.244 722.135 168.608 722.312 168.88C722.488 169.152 722.852 169.229 723.124 169.052Z" fill="white"/>
<path opacity="0.3" d="M463.842 284.107C464.114 283.93 464.192 283.567 464.015 283.295C463.839 283.023 463.475 282.945 463.203 283.122C462.931 283.298 462.854 283.662 463.03 283.934C463.207 284.206 463.57 284.283 463.842 284.107Z" fill="white"/>
<path d="M559.882 183.974C560.153 183.798 560.231 183.434 560.054 183.162C559.878 182.89 559.514 182.813 559.242 182.99C558.97 183.166 558.893 183.53 559.07 183.801C559.246 184.073 559.61 184.151 559.882 183.974Z" fill="white"/>
<path d="M635.108 133.758C635.38 133.581 635.457 133.218 635.281 132.946C635.104 132.674 634.741 132.596 634.469 132.773C634.197 132.949 634.12 133.313 634.296 133.585C634.473 133.857 634.836 133.934 635.108 133.758Z" fill="white"/>
<path d="M555.796 251.037C556.068 250.861 556.145 250.497 555.968 250.225C555.792 249.953 555.428 249.876 555.156 250.053C554.885 250.229 554.807 250.593 554.984 250.864C555.16 251.136 555.524 251.214 555.796 251.037Z" fill="white"/>
<path opacity="0.3" d="M521.311 273.417C521.583 273.24 521.66 272.877 521.484 272.605C521.308 272.333 520.944 272.255 520.672 272.432C520.4 272.608 520.323 272.972 520.499 273.244C520.676 273.516 521.039 273.593 521.311 273.417Z" fill="white"/>
<path opacity="0.11" d="M461.1 269.086C461.372 268.909 461.45 268.546 461.273 268.274C461.097 268.002 460.733 267.924 460.461 268.101C460.189 268.277 460.112 268.641 460.288 268.913C460.465 269.185 460.828 269.262 461.1 269.086Z" fill="white"/>
<path opacity="0.3" d="M576.428 190.043C576.7 189.866 576.778 189.503 576.601 189.231C576.425 188.959 576.061 188.881 575.789 189.058C575.517 189.234 575.44 189.598 575.616 189.87C575.793 190.142 576.156 190.219 576.428 190.043Z" fill="white"/>
<path opacity="0.3" d="M570.249 254.962C570.521 254.785 570.598 254.422 570.422 254.15C570.245 253.878 569.882 253.8 569.61 253.977C569.338 254.153 569.26 254.517 569.437 254.789C569.613 255.061 569.977 255.138 570.249 254.962Z" fill="white"/>
<path opacity="0.3" d="M513.835 298.571C514.107 298.394 514.184 298.031 514.007 297.759C513.831 297.487 513.468 297.409 513.196 297.586C512.924 297.762 512.846 298.126 513.023 298.398C513.199 298.67 513.563 298.747 513.835 298.571Z" fill="white"/>
<path opacity="0.3" d="M478.132 274.838C478.403 274.661 478.481 274.298 478.304 274.026C478.128 273.754 477.764 273.676 477.492 273.853C477.22 274.029 477.143 274.393 477.32 274.665C477.496 274.937 477.86 275.014 478.132 274.838Z" fill="white"/>
<path opacity="0.3" d="M783.585 74.5095C783.857 74.333 783.934 73.9695 783.757 73.6975C783.581 73.4256 783.218 73.3482 782.946 73.5247C782.674 73.7012 782.596 74.0647 782.773 74.3366C782.949 74.6086 783.313 74.6859 783.585 74.5095Z" fill="white"/>
<path opacity="0.11" d="M691.163 105.781C691.435 105.604 691.512 105.24 691.336 104.969C691.159 104.697 690.796 104.619 690.524 104.796C690.252 104.972 690.174 105.336 690.351 105.608C690.527 105.88 690.891 105.957 691.163 105.781Z" fill="white"/>
<path opacity="0.11" d="M784.03 104.322C784.302 104.145 784.379 103.782 784.203 103.51C784.026 103.238 783.663 103.16 783.391 103.337C783.119 103.513 783.042 103.877 783.218 104.149C783.394 104.421 783.758 104.498 784.03 104.322Z" fill="white"/>
<path opacity="0.3" d="M662.271 189.641C662.815 189.287 662.97 188.56 662.617 188.015C662.264 187.471 661.536 187.316 660.992 187.669C660.447 188.023 660.292 188.75 660.646 189.295C660.999 189.839 661.726 189.994 662.271 189.641Z" fill="white"/>
<path opacity="0.11" d="M681.747 156C682.292 155.646 682.447 154.919 682.093 154.374C681.74 153.83 681.012 153.675 680.468 154.028C679.924 154.382 679.769 155.109 680.122 155.654C680.475 156.198 681.203 156.353 681.747 156Z" fill="white"/>
<path d="M670.315 138.917C670.724 138.653 670.84 138.107 670.575 137.699C670.31 137.291 669.764 137.174 669.356 137.439C668.948 137.704 668.832 138.25 669.097 138.658C669.362 139.066 669.907 139.182 670.315 138.917Z" fill="white"/>
<path d="M669.894 212.702C670.302 212.437 670.418 211.892 670.153 211.483C669.888 211.075 669.342 210.959 668.934 211.224C668.526 211.489 668.41 212.034 668.675 212.443C668.94 212.851 669.485 212.967 669.894 212.702Z" fill="white"/>
<path d="M839.839 116.416C840.247 116.151 840.363 115.605 840.098 115.197C839.833 114.789 839.288 114.673 838.88 114.938C838.471 115.203 838.355 115.748 838.62 116.157C838.885 116.565 839.431 116.681 839.839 116.416Z" fill="white"/>
<path d="M514.683 315.523C515.091 315.258 515.207 314.713 514.942 314.305C514.677 313.897 514.132 313.78 513.723 314.045C513.315 314.31 513.199 314.856 513.464 315.264C513.729 315.672 514.274 315.788 514.683 315.523Z" fill="white"/>
<path d="M441.815 346.711C442.224 346.446 442.34 345.901 442.075 345.493C441.81 345.085 441.264 344.968 440.856 345.233C440.448 345.498 440.332 346.044 440.597 346.452C440.862 346.86 441.407 346.976 441.815 346.711Z" fill="white"/>
<path d="M420.651 332.441C421.059 332.176 421.176 331.631 420.911 331.223C420.646 330.815 420.1 330.698 419.692 330.963C419.284 331.228 419.168 331.774 419.433 332.182C419.698 332.59 420.243 332.706 420.651 332.441Z" fill="white"/>
<path d="M653.065 164.115C653.474 163.85 653.59 163.305 653.325 162.897C653.06 162.488 652.514 162.372 652.106 162.637C651.698 162.902 651.582 163.448 651.847 163.856C652.112 164.264 652.657 164.38 653.065 164.115Z" fill="white"/>
<path d="M591.001 256.196C591.409 255.931 591.525 255.386 591.26 254.978C590.995 254.569 590.45 254.453 590.042 254.718C589.634 254.983 589.517 255.529 589.782 255.937C590.047 256.345 590.593 256.461 591.001 256.196Z" fill="white"/>
<path d="M728.894 196.817C729.302 196.552 729.418 196.007 729.153 195.599C728.888 195.191 728.342 195.074 727.934 195.339C727.526 195.604 727.41 196.15 727.675 196.558C727.94 196.966 728.485 197.082 728.894 196.817Z" fill="white"/>
<path d="M837.698 78.5986C838.106 78.3337 838.222 77.7881 837.958 77.38C837.693 76.9718 837.147 76.8556 836.739 77.1205C836.331 77.3854 836.215 77.931 836.48 78.3391C836.744 78.7473 837.29 78.8634 837.698 78.5986Z" fill="white"/>
<path d="M831.94 43.831C832.349 43.5661 832.465 43.0205 832.2 42.6124C831.935 42.2042 831.389 42.0881 830.981 42.3529C830.573 42.6178 830.457 43.1634 830.722 43.5715C830.987 43.9797 831.532 44.0958 831.94 43.831Z" fill="white"/>
<path opacity="0.3" d="M711.271 113.034C711.815 112.68 711.97 111.953 711.617 111.408C711.264 110.864 710.536 110.709 709.992 111.062C709.447 111.416 709.292 112.143 709.645 112.688C709.999 113.232 710.726 113.387 711.271 113.034Z" fill="white"/>
<path d="M688.575 78.0587C689.12 77.7054 689.275 76.9778 688.921 76.4334C688.568 75.8891 687.841 75.7342 687.296 76.0874C686.752 76.4407 686.597 77.1683 686.95 77.7127C687.303 78.257 688.031 78.412 688.575 78.0587Z" fill="white"/>
<path d="M743.683 107.408C744.091 107.143 744.207 106.598 743.942 106.19C743.677 105.781 743.132 105.665 742.723 105.93C742.315 106.195 742.199 106.741 742.464 107.149C742.729 107.557 743.274 107.673 743.683 107.408Z" fill="white"/>
<path opacity="0.3" d="M755.107 72.6896C755.651 72.3363 755.806 71.6086 755.453 71.0643C755.099 70.5199 754.372 70.365 753.827 70.7183C753.283 71.0715 753.128 71.7992 753.481 72.3436C753.835 72.8879 754.562 73.0428 755.107 72.6896Z" fill="white"/>
<path opacity="0.3" d="M826.577 76.0167C827.122 75.6634 827.277 74.9358 826.923 74.3914C826.57 73.8471 825.842 73.6922 825.298 74.0454C824.754 74.3987 824.599 75.1263 824.952 75.6707C825.305 76.215 826.033 76.37 826.577 76.0167Z" fill="white"/>
<path opacity="0.3" d="M769.575 114.406C770.12 114.053 770.275 113.325 769.921 112.781C769.568 112.236 768.841 112.081 768.296 112.435C767.752 112.788 767.597 113.516 767.95 114.06C768.303 114.604 769.031 114.759 769.575 114.406Z" fill="white"/>
<path opacity="0.3" d="M492.24 306.285C492.784 305.931 492.939 305.204 492.586 304.659C492.232 304.115 491.505 303.96 490.96 304.313C490.416 304.667 490.261 305.394 490.614 305.939C490.968 306.483 491.695 306.638 492.24 306.285Z" fill="white"/>
<path opacity="0.3" d="M434.747 305.088C435.292 304.735 435.447 304.007 435.093 303.463C434.74 302.918 434.012 302.763 433.468 303.117C432.924 303.47 432.769 304.198 433.122 304.742C433.475 305.286 434.203 305.441 434.747 305.088Z" fill="white"/>
<path opacity="0.11" d="M796.786 74.3458C797.331 73.9925 797.486 73.2649 797.132 72.7205C796.779 72.1762 796.051 72.0213 795.507 72.3745C794.963 72.7278 794.808 73.4554 795.161 73.9998C795.514 74.5442 796.242 74.6991 796.786 74.3458Z" fill="white"/>
<path opacity="0.3" d="M494.325 242.622C494.87 242.268 495.025 241.541 494.671 240.996C494.318 240.452 493.591 240.297 493.046 240.65C492.502 241.004 492.347 241.731 492.7 242.276C493.053 242.82 493.781 242.975 494.325 242.622Z" fill="white"/>
<path opacity="0.11" d="M474.63 241.401C475.175 241.048 475.329 240.32 474.976 239.776C474.623 239.231 473.895 239.076 473.351 239.43C472.807 239.783 472.652 240.511 473.005 241.055C473.358 241.599 474.086 241.754 474.63 241.401Z" fill="white"/>
<path opacity="0.3" d="M491.154 275.486C491.698 275.133 491.853 274.405 491.5 273.861C491.146 273.316 490.419 273.161 489.874 273.515C489.33 273.868 489.175 274.596 489.528 275.14C489.882 275.684 490.609 275.839 491.154 275.486Z" fill="white"/>
<path d="M521.618 255.013C522.026 254.748 522.142 254.203 521.878 253.794C521.613 253.386 521.067 253.27 520.659 253.535C520.251 253.8 520.135 254.346 520.4 254.754C520.664 255.162 521.21 255.278 521.618 255.013Z" fill="white"/>
</g>
</svg>
